<svg width="803" height="110" viewBox="0 0 803 110" fill="none" xmlns="http://www.w3.org/2000/svg">
<g filter="url(#filter0_d_21_2)">
<path d="M12.936 72.832C12.264 74.08 10.44 77.344 9.672 78.592H13.128C15.528 78.592 16.68 78.784 16.68 79.168C16.68 79.936 14.76 80.32 10.92 80.32C9.864 80.32 9.096 80.608 8.616 81.088C8.136 81.568 7.08 83.296 5.448 86.272C3.432 89.824 2.472 92.128 2.472 93.28C2.472 94.24 2.856 94.72 3.72 94.72C4.392 94.72 7.656 94.144 13.608 92.992L19.944 91.744C24.072 84.928 28.008 78.592 31.752 72.832H29.256C27.624 72.832 26.568 72.736 25.896 72.64C25.8 72.64 25.416 72.544 24.744 72.544C24.264 72.544 21.576 72.64 19.08 72.64L12.936 72.832ZM60.84 66.208C60.936 66.688 60.456 66.976 59.784 66.976C58.44 66.976 57.864 66.4 58.44 65.632C59.112 65.152 60.552 65.44 60.84 66.208ZM59.304 53.632C53.448 64.288 50.472 69.664 50.472 69.856C50.472 70.24 50.568 70.432 50.76 70.432C51.144 70.432 51.912 69.856 53.16 68.608C54.216 67.648 54.792 67.168 54.888 67.264C54.984 67.264 55.08 67.456 55.08 67.936C55.08 68.8 54.6 69.76 53.544 70.624C52.776 71.296 51.912 71.776 51.048 71.872C50.184 72.064 47.688 72.256 43.56 72.448C37.896 72.736 35.016 72.928 35.016 73.024C35.016 73.024 35.688 77.536 36.168 80.992C36.744 84.448 37.224 86.848 37.608 88.096C37.992 89.344 38.568 90.688 39.336 91.936L41.256 94.912L45.48 94.816H45.96H48.168C49.992 94.72 51.624 93.952 53.16 92.512C54.6 90.784 58.44 84.352 64.68 73.12C66.216 70.336 67.368 68.224 68.232 66.688C78.12 48.832 83.112 39.616 83.112 39.04C83.112 38.752 80.52 38.56 75.432 38.272L68.232 37.888L59.304 53.632ZM33.096 36.256C21.864 56.32 15.72 67.36 14.856 69.472C14.76 69.76 14.664 69.952 14.664 70.048C14.664 70.336 15.432 70.432 16.968 70.432C18.696 70.432 19.656 70.624 19.944 71.008C20.232 71.488 20.616 71.488 21 71.104C21.48 70.72 26.184 70.528 35.016 70.528C44.04 70.528 48.552 70.432 48.552 70.144C48.552 69.088 47.208 64 44.52 54.688L40.104 39.328L37.608 39.04C35.592 38.752 35.208 38.752 35.208 37.696C35.208 37.024 35.304 36.16 35.592 35.104C35.688 34.336 35.784 33.952 35.784 33.856C35.784 33.472 35.688 33.28 35.496 33.28C35.112 33.28 34.344 34.24 33.096 36.256ZM102.224 75.52C101.744 75.328 101.84 75.232 102.512 75.232C102.799 75.136 103.088 75.136 103.184 75.232C103.472 75.328 103.376 75.52 103.088 75.616C102.799 75.712 102.512 75.616 102.224 75.52ZM125.264 74.176C124.976 74.752 124.304 75.136 123.056 75.328C121.808 75.616 119.12 75.808 114.8 76.096L107.312 76.48L108.368 75.232C108.944 74.56 109.904 74.176 111.152 73.984C112.4 73.792 115.568 73.6 120.464 73.504H122.672C124.496 73.504 125.36 73.696 125.36 73.984C125.36 74.08 125.264 74.08 125.264 74.176ZM152.24 73.984C151.376 73.888 151.28 73.6 152.048 73.12C152.72 72.544 153.2 72.256 153.296 72.256C153.584 72.256 153.872 73.984 152.24 73.984ZM144.752 73.12C144.752 73.792 144.272 74.08 143.312 73.888C142.256 73.6 141.68 73.696 141.583 73.984C141.488 74.272 140.048 74.464 137.36 74.656C134.576 74.944 132.272 75.04 130.256 75.04C129.2 75.04 128.528 74.944 128.144 74.848C127.568 74.56 127.472 74.176 127.856 73.696C128.336 73.216 130.352 73.024 134.096 72.928C139.184 72.928 139.375 72.544 142.448 72.352C143.984 72.256 144.752 72.544 144.752 73.12ZM117.776 50.848C119.216 49.12 121.904 51.904 118.64 52.192C118.352 52.192 118.064 52.096 117.68 52C116.72 51.616 116.911 51.52 117.776 50.848ZM141.488 51.904C140.912 52.768 140.144 53.248 139.088 53.248C138.896 53.248 138.704 53.152 138.416 53.056C138.031 52.768 138.224 52.096 139.088 51.136C140.336 49.696 140.432 49.696 141.104 50.56C141.583 51.232 141.776 51.616 141.488 51.904ZM139.568 48.736C138.896 49.216 137.167 49.696 134.384 50.176C131.504 50.656 129.2 50.944 127.472 50.944C126.8 50.944 126.416 50.944 126.224 50.848C125.168 50.656 124.976 50.368 125.648 50.08C126.224 49.792 127.76 49.504 130.16 49.12C132.56 48.736 134.384 48.544 135.536 48.544H136.112C138.031 49.216 136.208 47.776 139.088 47.776H140.912L139.568 48.736ZM123.824 39.136C117.872 47.584 114.704 52.096 114.416 52.576C113.936 53.248 113.648 53.824 113.648 54.112C113.648 54.4 113.84 54.688 114.32 55.168C114.992 55.84 115.376 55.936 115.568 55.456C115.664 55.168 116.911 54.976 119.216 54.976C121.04 54.976 122.672 54.976 124.016 55.072C131.696 55.456 133.712 55.936 133.712 57.184C133.712 57.472 131.792 57.664 127.856 57.664C122.576 57.664 119.792 57.472 119.504 57.088C119.312 56.704 119.024 56.512 118.544 56.512C118.16 56.512 118.16 56.512 118.256 56.8V56.992C118.256 57.28 115.184 57.856 112.496 58.24L110.48 58.528C110 58.816 107.216 62.56 102.032 69.952C96.8475 77.44 94.2555 81.376 94.2555 81.952C94.2555 83.104 95.5035 84.256 101.168 88.96C103.376 90.784 105.008 91.744 106.064 91.744H106.64C111.056 90.88 121.712 88.576 138.704 84.832L168.944 78.304L172.016 72.256C173.84 68.896 174.704 66.784 174.704 66.112C174.704 65.92 174.608 65.728 174.512 65.632C174.224 65.344 173.744 65.248 173.072 65.248C171.92 65.248 169.424 65.536 165.584 66.208C139.472 70.432 126.032 72.544 125.168 72.544C124.976 72.544 126.128 69.856 127.472 67.168L130.16 61.984L149.84 59.488C163.184 57.856 170.288 56.896 171.344 56.704C172.784 56.416 173.456 55.648 175.76 51.808C177.584 48.832 178.544 47.104 178.544 46.816C178.544 46.72 176.624 46.624 172.688 46.624C170.672 46.624 165.968 46.72 158.672 46.816L138.896 47.296C139.568 46.048 140.624 44.032 141.872 41.344H161.072C162.128 39.808 162.896 38.656 163.472 37.888H191.12L193.808 33.568C195.248 31.264 195.92 29.824 195.92 29.152C195.92 28.96 195.92 28.864 195.824 28.864C195.536 28.768 189.008 28.672 176.24 28.384C168.56 28.288 158.096 28 144.752 27.616L132.176 27.232L123.824 39.136ZM232.767 68.992C232.479 68.896 232.767 68.512 233.151 68.512C233.535 68.608 233.631 68.8 233.439 69.088C233.151 69.184 232.959 69.184 232.767 68.992ZM233.343 67.744C233.055 67.456 233.247 67.36 233.727 67.36C234.591 67.36 233.823 68.224 233.343 67.744ZM266.463 62.656C266.463 63.712 264.735 64.192 264.255 63.328C263.871 62.752 261.855 63.328 261.855 62.752C261.855 62.272 262.623 62.08 264.159 62.08C265.695 62.08 266.463 62.272 266.463 62.656ZM243.231 52.48C242.175 53.248 242.271 53.344 243.231 53.632C244.863 54.208 244.383 54.976 242.847 54.592C241.791 54.4 241.311 53.824 241.311 52.768C241.311 52.096 241.695 51.616 242.367 51.424C242.943 51.328 243.327 51.232 243.615 51.328C244.095 51.52 243.999 51.904 243.231 52.48ZM286.335 22.432C283.743 29.44 282.303 33.184 282.015 33.856L280.671 36.832C279.039 37.216 273.759 38.656 272.127 38.944L266.655 50.368C257.727 69.184 252.831 78.592 252.159 78.592C251.679 78.592 251.199 76.288 250.623 71.584C250.047 66.88 249.567 64.288 249.279 64C248.895 63.616 244.767 63.424 236.799 63.328C231.519 63.232 230.847 63.136 230.847 62.272C230.847 61.792 231.807 61.504 233.631 61.504C233.919 61.504 236.031 61.6 240.159 61.696L249.471 62.08L249.183 59.968C248.703 55.744 248.319 55.072 247.167 55.072C246.111 55.072 244.863 53.44 244.863 52.192C244.959 51.904 245.151 51.712 245.439 51.616C246.111 51.52 246.591 51.808 246.879 52.48C247.071 52.96 247.263 53.248 247.455 53.248C247.743 53.248 247.935 52.672 247.935 51.52C247.935 51.04 247.935 50.56 247.839 50.272C247.743 49.12 247.359 48.256 246.879 47.584C246.399 47.008 245.151 45.952 243.135 44.416C240.735 42.496 239.103 41.536 238.431 41.536H238.335C238.143 41.728 236.511 45.088 233.535 51.712C230.463 58.336 228.831 61.888 228.735 62.368C228.447 63.328 226.335 67.84 222.591 76C221.151 79.168 220.287 80.8 220.095 80.8C219.999 80.8 219.999 79.936 219.999 78.304C219.999 70.144 220.191 65.728 220.575 65.056C220.671 64.768 220.863 62.752 221.151 59.2C221.247 57.472 221.535 55.264 221.823 52.672C222.111 50.08 222.303 48.16 222.303 46.72C222.303 44.512 222.015 42.112 221.535 39.328C220.863 35.584 220.479 33.568 220.383 33.088C220.191 32.704 219.807 32.416 219.135 32.32C218.847 32.224 218.559 32.224 218.079 32.224C216.543 32.224 215.871 33.184 213.855 38.56C212.511 42.112 211.839 44.224 211.839 44.896C211.839 45.184 212.031 45.76 212.319 46.528C212.607 47.296 212.703 47.968 212.703 48.544C212.703 50.368 211.839 56.512 210.015 67.072C207.903 79.648 206.847 85.984 206.847 86.176C206.847 86.464 207.807 87.136 209.631 88.288C211.647 89.536 212.703 90.688 212.895 91.744C213.279 93.568 213.471 93.568 217.695 94.24C220.671 94.72 222.303 95.392 222.495 96.16C222.687 97.12 222.879 97.312 223.839 96.352C224.319 95.968 225.759 93.184 228.351 88C230.847 82.72 233.343 77.632 235.743 72.544C238.143 67.552 239.487 65.056 239.583 65.056C239.679 65.056 241.119 73.984 243.711 91.744C243.999 92.512 245.439 93.088 247.839 93.376C250.431 93.664 251.679 93.856 251.775 93.952C251.967 94.144 251.871 94.72 251.391 95.776C250.911 96.736 251.103 97.408 251.871 97.792C251.967 97.888 252.063 97.888 252.255 97.888C252.831 97.888 253.887 96.544 255.327 93.952C256.767 91.36 259.839 85.408 264.447 76.192C268.767 67.456 271.071 62.944 271.263 62.656C274.335 57.472 278.367 49.12 283.455 37.504C285.471 32.896 286.719 30.208 287.199 29.44C287.679 28.768 288.351 28.384 289.311 28.288C290.943 28.192 291.519 27.808 292.671 25.6C294.111 23.2 293.919 22.432 293.055 19.36C292.191 15.904 291.135 14.176 289.887 14.176C289.599 14.176 288.351 16.96 286.335 22.432ZM355.486 68.992C355.198 68.896 355.486 68.512 355.87 68.512C356.254 68.608 356.35 68.8 356.158 69.088C355.87 69.184 355.678 69.184 355.486 68.992ZM356.062 67.744C355.774 67.456 355.966 67.36 356.446 67.36C357.31 67.36 356.542 68.224 356.062 67.744ZM389.182 62.656C389.182 63.712 387.454 64.192 386.974 63.328C386.59 62.752 384.574 63.328 384.574 62.752C384.574 62.272 385.342 62.08 386.878 62.08C388.414 62.08 389.182 62.272 389.182 62.656ZM365.95 52.48C364.894 53.248 364.99 53.344 365.95 53.632C367.582 54.208 367.102 54.976 365.566 54.592C364.51 54.4 364.03 53.824 364.03 52.768C364.03 52.096 364.414 51.616 365.086 51.424C365.662 51.328 366.046 51.232 366.334 51.328C366.814 51.52 366.718 51.904 365.95 52.48ZM409.054 22.432C406.462 29.44 405.022 33.184 404.734 33.856L403.39 36.832C401.758 37.216 396.478 38.656 394.846 38.944L389.374 50.368C380.446 69.184 375.55 78.592 374.878 78.592C374.398 78.592 373.918 76.288 373.342 71.584C372.766 66.88 372.286 64.288 371.998 64C371.614 63.616 367.486 63.424 359.518 63.328C354.238 63.232 353.566 63.136 353.566 62.272C353.566 61.792 354.526 61.504 356.35 61.504C356.638 61.504 358.75 61.6 362.878 61.696L372.19 62.08L371.902 59.968C371.422 55.744 371.038 55.072 369.886 55.072C368.83 55.072 367.582 53.44 367.582 52.192C367.678 51.904 367.87 51.712 368.158 51.616C368.83 51.52 369.31 51.808 369.598 52.48C369.79 52.96 369.982 53.248 370.174 53.248C370.462 53.248 370.654 52.672 370.654 51.52C370.654 51.04 370.654 50.56 370.558 50.272C370.462 49.12 370.078 48.256 369.598 47.584C369.118 47.008 367.87 45.952 365.854 44.416C363.454 42.496 361.822 41.536 361.15 41.536H361.054C360.862 41.728 359.23 45.088 356.254 51.712C353.182 58.336 351.55 61.888 351.454 62.368C351.166 63.328 349.054 67.84 345.31 76C343.87 79.168 343.006 80.8 342.814 80.8C342.718 80.8 342.718 79.936 342.718 78.304C342.718 70.144 342.91 65.728 343.294 65.056C343.39 64.768 343.582 62.752 343.87 59.2C343.966 57.472 344.254 55.264 344.542 52.672C344.83 50.08 345.022 48.16 345.022 46.72C345.022 44.512 344.734 42.112 344.254 39.328C343.582 35.584 343.198 33.568 343.102 33.088C342.91 32.704 342.526 32.416 341.854 32.32C341.566 32.224 341.278 32.224 340.798 32.224C339.262 32.224 338.59 33.184 336.574 38.56C335.23 42.112 334.558 44.224 334.558 44.896C334.558 45.184 334.75 45.76 335.038 46.528C335.326 47.296 335.422 47.968 335.422 48.544C335.422 50.368 334.558 56.512 332.734 67.072C330.622 79.648 329.566 85.984 329.566 86.176C329.566 86.464 330.526 87.136 332.35 88.288C334.366 89.536 335.422 90.688 335.614 91.744C335.998 93.568 336.19 93.568 340.414 94.24C343.39 94.72 345.022 95.392 345.214 96.16C345.406 97.12 345.598 97.312 346.558 96.352C347.038 95.968 348.478 93.184 351.07 88C353.566 82.72 356.062 77.632 358.462 72.544C360.862 67.552 362.206 65.056 362.302 65.056C362.398 65.056 363.838 73.984 366.43 91.744C366.718 92.512 368.158 93.088 370.558 93.376C373.15 93.664 374.398 93.856 374.494 93.952C374.686 94.144 374.59 94.72 374.11 95.776C373.63 96.736 373.822 97.408 374.59 97.792C374.686 97.888 374.782 97.888 374.974 97.888C375.55 97.888 376.606 96.544 378.046 93.952C379.486 91.36 382.558 85.408 387.166 76.192C391.486 67.456 393.79 62.944 393.982 62.656C397.054 57.472 401.086 49.12 406.174 37.504C408.19 32.896 409.438 30.208 409.918 29.44C410.398 28.768 411.07 28.384 412.03 28.288C413.662 28.192 414.238 27.808 415.39 25.6C416.83 23.2 416.638 22.432 415.774 19.36C414.91 15.904 413.854 14.176 412.606 14.176C412.318 14.176 411.07 16.96 409.054 22.432ZM477.651 77.44C476.595 76.768 478.707 76.768 477.651 77.44V77.44ZM435.123 69.472C435.219 69.376 435.411 69.376 435.699 69.376H436.179C436.467 69.376 436.563 69.472 436.467 69.664C436.179 69.952 435.891 70.048 435.411 69.76L435.123 69.472ZM434.355 65.248C434.643 65.344 434.739 65.536 434.739 65.632C434.643 65.728 434.163 65.824 433.299 65.824C429.171 65.632 432.723 63.712 434.355 65.248ZM441.555 62.368C440.979 62.368 440.691 62.08 440.691 61.408C440.691 60.832 440.883 60.544 441.267 60.544C441.555 60.544 441.843 60.736 442.035 61.216C442.419 61.984 442.227 62.368 441.555 62.368ZM477.939 59.872C478.707 62.272 479.091 64.48 479.091 66.496C479.091 72.544 475.443 76.864 468.243 79.648C463.155 81.568 457.395 82.912 451.155 83.68L447.795 84.064C443.667 80.704 440.595 78.304 438.483 76.672L439.251 74.272C439.539 73.216 440.307 71.008 440.403 70.624C440.691 69.76 440.403 69.28 439.731 69.088C439.443 68.992 439.251 68.992 439.155 68.992L439.731 68.8H439.827C440.403 68.704 441.363 67.648 442.707 65.632C443.955 63.616 444.627 62.176 444.627 61.408L444.531 61.216V61.12C444.243 60.736 444.435 60.544 444.915 60.544C445.395 60.544 446.739 59.776 448.851 58.24C450.963 56.608 454.611 54.592 459.699 52C464.787 49.408 467.859 48.16 468.915 48.16H469.107C473.043 49.696 475.923 53.632 477.939 59.872ZM473.907 37.312C469.299 37.504 466.131 37.696 464.499 37.888C462.771 38.176 460.851 38.656 458.739 39.328C445.203 43.84 436.083 50.944 431.379 60.832C428.691 66.4 427.347 71.872 427.347 77.248C427.347 78.88 427.827 80.224 428.787 81.376C429.651 82.432 432.819 85.312 438.099 89.92L443.955 95.008L452.115 94.72C459.891 94.432 466.131 93.28 471.027 91.264C475.923 89.248 480.435 85.984 484.755 81.472C486.675 79.456 488.595 77.152 490.419 74.656C492.243 72.16 493.107 70.624 493.107 69.952C493.107 69.184 492.435 66.208 491.091 61.024C488.883 52.192 486.579 46.528 484.275 43.936C483.123 42.784 483.123 42.88 484.371 41.248C485.235 40.192 486.483 39.52 488.019 39.328C490.611 38.944 491.955 38.272 491.955 37.216C491.955 36.928 491.187 36.832 489.555 36.832C488.883 36.832 483.603 37.024 473.907 37.312ZM561.443 71.296C560.771 71.584 558.947 71.2 559.427 70.432C559.523 70.144 559.907 69.952 560.387 69.952C561.347 69.952 561.827 70.24 561.827 70.72C561.827 70.912 561.731 71.104 561.443 71.296ZM556.451 68.704C555.299 68.704 555.203 67.552 556.835 67.552C557.123 67.552 557.315 67.552 557.411 67.648C557.603 67.744 557.699 67.84 557.603 68.032C557.507 68.512 557.123 68.704 556.451 68.704ZM552.323 68.704C551.267 68.704 551.171 67.552 552.707 67.552C552.995 67.552 553.187 67.552 553.283 67.648C553.571 67.744 553.667 67.84 553.571 68.032C553.475 68.512 552.995 68.704 552.323 68.704ZM569.219 67.648C567.395 67.84 565.667 68.128 564.227 68.416C563.555 68.512 562.883 68.608 562.211 68.608C561.635 68.608 561.059 68.512 560.387 68.416L558.179 67.936L561.443 67.552C563.747 67.264 566.147 67.168 568.643 67.168H572.771L569.219 67.648ZM515.171 64.096C514.115 63.424 516.227 63.424 515.171 64.096V64.096ZM552.899 55.744C552.611 55.456 552.802 55.36 553.283 55.36C554.339 55.36 553.379 56.224 552.899 55.744ZM545.315 55.744C545.027 55.456 545.219 55.36 545.699 55.36C546.562 55.36 545.795 56.224 545.315 55.744ZM552.131 55.648C552.131 55.84 551.555 55.936 550.499 55.936C549.731 55.84 549.443 55.648 549.731 55.36C550.499 54.88 552.131 55.168 552.131 55.648ZM542.819 54.976C542.819 55.648 541.763 55.84 541.379 55.36C541.091 54.976 541.283 54.784 541.859 54.784C542.531 54.784 542.819 54.88 542.819 54.976ZM563.747 43.84C560.579 44.896 558.755 45.472 558.179 45.76C557.315 46.24 553.091 47.488 545.603 49.504C539.459 51.232 535.811 52.096 534.659 52.096C534.083 52.096 533.411 51.904 532.643 51.616C531.299 51.04 530.627 50.368 530.627 49.6C530.627 48.928 531.107 47.68 531.971 45.664L533.411 42.688H550.499L567.491 42.784L563.747 43.84ZM524.771 36.832C523.139 40.192 520.931 45.088 518.147 51.52C515.171 57.952 513.635 61.696 513.635 62.656C513.635 63.04 515.171 64.096 513.251 64.096C512.579 64.096 510.851 67.264 507.971 73.504C505.379 79.168 504.131 82.336 504.131 83.104C504.131 83.392 504.323 83.872 504.611 84.352C505.379 85.6 506.627 87.232 508.259 89.152C509.891 90.976 510.851 91.936 511.234 91.936C511.619 91.936 514.211 87.232 519.011 77.824L526.115 63.616L531.395 66.4C534.755 68.224 539.171 70.144 544.547 72.256C549.923 74.464 553.187 75.52 554.243 75.52H554.435C555.203 75.328 555.779 75.52 556.259 76.096C556.547 76.384 556.835 76.48 557.219 76.576C557.699 76.48 557.891 76.192 557.603 75.616C557.507 75.52 557.507 75.328 557.507 75.232C557.507 75.04 558.947 74.848 561.731 74.752C562.691 74.752 567.779 74.368 568.835 74.272C570.083 74.176 572.483 73.984 572.483 74.752C572.483 75.808 571.139 76.096 564.707 76.864C561.443 77.248 559.811 77.536 559.811 77.728C559.811 78.112 563.363 79.168 570.467 80.992C571.811 81.184 574.019 81.952 574.211 81.952C574.691 81.952 576.707 80.32 580.163 77.152C583.523 73.888 585.251 72.064 585.251 71.584C585.251 71.296 581.603 69.856 574.307 67.072C566.915 64.288 563.171 62.944 562.883 62.944C562.211 62.944 560.387 62.368 557.507 61.12C554.531 59.872 553.091 59.104 553.091 58.816C553.091 58.528 554.339 58.048 556.739 57.376C558.947 56.608 560.483 56.032 561.155 55.648C562.403 54.88 567.683 53.056 576.803 50.08C586.403 47.008 591.491 45.184 592.067 44.608C592.163 44.512 592.259 44.32 592.259 44.032C592.259 43.36 591.683 42.112 590.531 40.288C588.995 37.792 588.131 36.544 588.035 36.448C587.843 36.256 582.755 35.872 572.867 35.296C562.883 34.816 555.971 34.528 552.131 34.432C547.042 34.432 542.147 34.24 537.539 33.856C531.395 33.472 528.131 33.28 527.747 33.28C526.691 33.28 526.019 34.048 524.771 36.832ZM655.926 84.448C653.718 84.448 652.566 84.256 652.566 83.776C652.566 83.488 653.142 83.392 654.198 83.392C656.022 83.392 658.902 83.872 658.902 84.16C658.902 84.352 657.942 84.448 655.926 84.448ZM613.302 83.296C613.398 83.68 613.11 83.872 612.054 83.872C611.574 83.776 611.382 83.584 611.286 83.296C612.246 82.72 612.918 82.72 613.302 83.296ZM624.726 29.728L620.406 46.912C617.622 57.856 615.606 64.672 614.358 67.36C613.11 69.952 612.63 70.432 611.766 70.432C611.67 70.432 611.286 70.336 610.614 70.24L608.598 69.856L605.91 77.536C604.086 82.624 603.222 85.312 603.318 85.408L624.342 86.656C634.038 87.136 640.182 87.52 642.582 87.808C644.982 88.096 646.998 88.576 648.534 89.248L651.702 90.688L673.014 90.208C676.374 90.112 680.022 90.112 683.766 90.016C691.35 89.92 695.766 89.728 696.438 89.728C697.686 89.632 698.358 89.536 698.358 89.344L697.686 88.48C697.206 87.904 696.246 87.616 694.614 87.52C692.982 87.424 688.278 87.328 680.406 87.328C669.846 87.328 664.566 87.136 664.566 86.752C664.566 86.368 663.798 85.792 662.166 85.12C660.438 84.256 659.574 83.584 659.574 83.008C659.574 81.952 658.422 81.184 656.022 80.8C653.622 80.416 647.478 79.936 637.782 79.456C625.014 78.88 618.582 78.496 618.486 78.4C618.39 78.304 619.446 75.136 621.75 68.992C632.214 41.056 637.398 26.464 637.398 25.216C637.398 24.928 637.302 24.64 637.11 24.448C636.726 23.968 636.15 23.776 635.286 23.776C634.614 23.776 633.558 23.872 632.118 24.064C629.526 24.256 627.606 24.544 626.262 24.832C624.822 24.928 624.726 24.928 624.726 23.392C624.726 22.144 624.342 21.568 623.574 21.568C622.422 21.568 622.422 21.76 623.574 25.696L624.726 29.728ZM739.016 74.272C739.016 74.752 737.288 76.48 736.616 76.48H736.52C736.424 76.384 736.424 76.288 736.424 76.192C736.424 75.424 737.384 73.984 738.152 73.984C738.728 73.984 739.016 74.08 739.016 74.272ZM718.088 64.096C718.376 64.192 718.568 64.384 718.568 64.672C718.568 64.864 718.28 64.96 717.704 64.96C716.936 64.96 716.168 64.768 715.4 64.384L713.768 63.52H715.496C716.744 63.52 717.608 63.712 718.088 64.096ZM721.928 59.392C720.872 58.72 722.984 58.72 721.928 59.392V59.392ZM717.512 59.008C716.744 59.2 716.359 59.008 716.359 58.528C716.359 58.048 716.648 57.856 717.32 57.856C718.088 57.856 718.472 58.048 718.472 58.432C718.472 58.624 718.184 58.816 717.512 59.008ZM741.32 54.592C745.928 54.88 748.232 55.072 748.232 55.36C748.232 55.456 746.6 56.992 743.432 60.064C740.168 63.232 738.536 64.864 738.44 64.96C738.344 65.248 739.112 65.728 739.976 65.824C741.224 66.016 741.896 66.592 741.896 67.456C741.896 67.744 741.512 67.936 740.84 67.936C739.976 67.936 739.304 67.936 738.632 67.84L735.176 67.456C733.736 68.8 731.624 70.72 728.84 73.312L731.336 73.408C733.352 73.408 733.832 73.696 733.832 74.56C733.832 75.328 733.448 75.712 732.68 75.712C732.008 75.712 731.432 75.424 730.952 74.848C730.472 74.272 729.896 73.984 729.224 73.984C728.168 73.984 726.92 74.752 725.288 76.384C723.848 77.632 723.08 78.304 722.888 78.304C722.792 78.304 722.792 78.304 722.792 78.208C722.792 77.536 723.176 75.712 723.944 72.64C724.616 70.048 724.904 68.32 724.904 67.552C724.808 67.264 724.328 66.784 723.272 66.208C722.216 66.016 721.736 65.728 721.736 65.248C721.736 64.672 722.504 64.288 724.136 64.192C725.576 64.096 726.248 63.808 726.248 63.52C726.248 63.328 726.344 62.56 726.632 61.312C726.92 60.064 726.536 59.296 725.576 59.2C725.096 59.104 724.808 59.104 724.712 59.104L725.672 58.912H725.768C727.016 58.816 727.4 58.432 727.688 56.896C727.88 55.84 728.168 55.072 728.456 54.592C728.744 54.304 729.704 54.208 731.528 54.208C731.911 54.208 735.176 54.304 741.32 54.592ZM791.912 5.632C788.936 9.952 786.44 12.928 784.328 14.56C782.888 15.712 780.584 18.208 777.32 21.952C773.96 25.696 771.752 28.48 770.6 30.304C769.928 31.36 768.008 33.76 764.84 37.696L760.04 43.552C755.912 43.456 749.672 43.36 741.32 43.264C732.968 43.168 726.632 43.072 722.504 42.976L717.992 48.256C715.016 51.808 713.384 54.304 713.096 55.936C712.808 57.568 712.904 58.336 713.192 58.24C714.536 57.952 715.208 58.144 715.208 58.816C715.208 59.2 714.824 59.296 713.96 59.2H713.672C712.808 59.2 712.616 59.584 712.52 61.504C712.52 62.944 712.424 64 712.136 64.48C711.848 64.96 711.272 67.936 710.408 73.312C709.544 78.688 709.16 82.048 709.16 83.392C709.16 83.584 709.16 83.776 709.256 83.872C709.544 84.16 712.52 85.408 718.184 87.616L726.632 90.88L733.928 85.984C738.632 82.816 742.664 79.264 746.216 75.232C749.576 71.392 751.304 69.28 751.304 68.992C751.304 68.704 751.88 68.032 752.936 67.072C753.992 66.016 758.312 61.216 765.704 52.576C773.096 44.032 776.84 39.616 776.84 39.328C776.84 39.232 779.24 36.352 783.944 30.688L791.048 22.336V22.144L791.144 22.048C791.144 21.28 790.76 20.32 790.088 19.072L788.648 16.672L792.68 9.376C795.272 4.86399 796.52 1.984 796.52 0.735996C796.52 0.351995 796.424 0.159998 796.232 0.159998C795.848 0.159998 794.408 1.984 791.912 5.632Z" fill="#00FFF0"/>
</g>
<defs>
<filter id="filter0_d_21_2" x="0.472" y="0.159996" width="802.048" height="109.728" filterUnits="userSpaceOnUse" color-interpolation-filters="sRGB">
<feFlood flood-opacity="0" result="BackgroundImageFix"/>
<feColorMatrix in="SourceAlpha" type="matrix" values="0 0 0 0 0 0 0 0 0 0 0 0 0 0 0 0 0 0 127 0" result="hardAlpha"/>
<feOffset dx="2" dy="8"/>
<feGaussianBlur stdDeviation="2"/>
<feComposite in2="hardAlpha" operator="out"/>
<feColorMatrix type="matrix" values="0 0 0 0 0.779917 0 0 0 0 0.795833 0 0 0 0 0 0 0 0 1 0"/>
<feBlend mode="normal" in2="BackgroundImageFix" result="effect1_dropShadow_21_2"/>
<feBlend mode="normal" in="SourceGraphic" in2="effect1_dropShadow_21_2" result="shape"/>
</filter>
</defs>
</svg>
