<svg width="103" height="26" viewBox="0 0 103 26" fill="none" xmlns="http://www.w3.org/2000/svg">
<g filter="url(#filter0_d_34_3)">
<path d="M10.2 3.448H11.496V19H10.2V15.382L5.016 10.198V19H3.72V3.448H5.016V8.362L10.2 13.546V3.448ZM22.5069 4.744H16.0269V11.224H21.2109V12.52H16.0269V17.704H22.5069V19H14.7309V3.448H22.5069V4.744ZM30.9259 19C30.4819 19 30.0499 18.886 29.6299 18.658C29.2099 18.886 28.7779 19 28.3339 19C27.9739 19 27.6319 18.934 27.3079 18.802C26.9959 18.67 26.7199 18.49 26.4799 18.262C26.2519 18.022 26.0719 17.746 25.9399 17.434C25.8079 17.11 25.7419 16.768 25.7419 16.408V3.448H27.0379V16.408C27.0379 16.756 27.1639 17.062 27.4159 17.326C27.6799 17.578 27.9859 17.704 28.3339 17.704C28.5739 17.704 28.7899 17.644 28.9819 17.524V9.928H30.2779V17.524C30.4699 17.644 30.6859 17.704 30.9259 17.704C31.2739 17.704 31.5739 17.578 31.8259 17.326C32.0899 17.062 32.2219 16.756 32.2219 16.408V3.448H33.5179V16.408C33.5179 16.768 33.4459 17.11 33.3019 17.434C33.1699 17.746 32.9839 18.022 32.7439 18.262C32.5159 18.49 32.2459 18.67 31.9339 18.802C31.6219 18.934 31.2859 19 30.9259 19ZM49.1333 19C48.6893 19 48.2573 18.886 47.8373 18.658C47.4173 18.886 46.9853 19 46.5413 19C46.1813 19 45.8393 18.934 45.5153 18.802C45.2033 18.67 44.9273 18.49 44.6873 18.262C44.4593 18.022 44.2793 17.746 44.1473 17.434C44.0153 17.11 43.9493 16.768 43.9493 16.408V3.448H45.2453V16.408C45.2453 16.756 45.3713 17.062 45.6233 17.326C45.8873 17.578 46.1933 17.704 46.5413 17.704C46.7813 17.704 46.9973 17.644 47.1893 17.524V9.928H48.4853V17.524C48.6773 17.644 48.8933 17.704 49.1333 17.704C49.4813 17.704 49.7813 17.578 50.0333 17.326C50.2973 17.062 50.4293 16.756 50.4293 16.408V3.448H51.7253V16.408C51.7253 16.768 51.6533 17.11 51.5093 17.434C51.3773 17.746 51.1913 18.022 50.9513 18.262C50.7233 18.49 50.4533 18.67 50.1413 18.802C49.8293 18.934 49.4933 19 49.1333 19ZM60.1442 3.448C60.5042 3.448 60.8402 3.52 61.1522 3.664C61.4642 3.796 61.7342 3.982 61.9622 4.222C62.2022 4.45 62.3882 4.72 62.5202 5.032C62.6642 5.344 62.7362 5.68 62.7362 6.04V16.408C62.7362 16.768 62.6642 17.11 62.5202 17.434C62.3882 17.746 62.2022 18.022 61.9622 18.262C61.7342 18.49 61.4642 18.67 61.1522 18.802C60.8402 18.934 60.5042 19 60.1442 19H57.5522C57.1922 19 56.8502 18.934 56.5262 18.802C56.2142 18.67 55.9382 18.49 55.6982 18.262C55.4702 18.022 55.2902 17.746 55.1582 17.434C55.0262 17.11 54.9602 16.768 54.9602 16.408V6.04C54.9602 5.68 55.0262 5.344 55.1582 5.032C55.2902 4.72 55.4702 4.45 55.6982 4.222C55.9382 3.982 56.2142 3.796 56.5262 3.664C56.8502 3.52 57.1922 3.448 57.5522 3.448H60.1442ZM61.4402 6.04C61.4402 5.692 61.3082 5.392 61.0442 5.14C60.7922 4.876 60.4922 4.744 60.1442 4.744H57.5522C57.2042 4.744 56.8982 4.876 56.6342 5.14C56.3822 5.392 56.2562 5.692 56.2562 6.04V16.408C56.2562 16.756 56.3822 17.062 56.6342 17.326C56.8982 17.578 57.2042 17.704 57.5522 17.704H60.1442C60.4922 17.704 60.7922 17.578 61.0442 17.326C61.3082 17.062 61.4402 16.756 61.4402 16.408V6.04ZM73.7472 9.928C73.7472 10.3 73.6692 10.66 73.5132 11.008C73.3572 11.344 73.1412 11.632 72.8652 11.872C73.1412 12.112 73.3572 12.406 73.5132 12.754C73.6692 13.09 73.7472 13.444 73.7472 13.816V19H72.4512V13.816C72.4512 13.468 72.3192 13.168 72.0552 12.916C71.8032 12.652 71.5032 12.52 71.1552 12.52H67.2672V19H65.9712V3.448H71.1552C71.5152 3.448 71.8512 3.52 72.1632 3.664C72.4752 3.796 72.7452 3.982 72.9732 4.222C73.2132 4.45 73.3992 4.72 73.5312 5.032C73.6752 5.344 73.7472 5.68 73.7472 6.04V9.928ZM71.1552 11.224C71.5032 11.224 71.8032 11.098 72.0552 10.846C72.3192 10.582 72.4512 10.276 72.4512 9.928V6.04C72.4512 5.692 72.3192 5.392 72.0552 5.14C71.8032 4.876 71.5032 4.744 71.1552 4.744H67.2672V11.224H71.1552ZM78.2781 17.704H84.7581V19H76.9821V3.448H78.2781V17.704ZM93.177 3.448C93.537 3.448 93.873 3.52 94.185 3.664C94.497 3.796 94.767 3.982 94.995 4.222C95.235 4.45 95.421 4.72 95.553 5.032C95.697 5.344 95.769 5.68 95.769 6.04V16.408C95.769 16.768 95.697 17.104 95.553 17.416C95.421 17.728 95.235 18.004 94.995 18.244C94.767 18.472 94.497 18.658 94.185 18.802C93.873 18.934 93.537 19 93.177 19H87.993V3.448H93.177ZM94.473 6.04C94.473 5.692 94.341 5.392 94.077 5.14C93.825 4.876 93.525 4.744 93.177 4.744H89.289V17.704H93.177C93.525 17.704 93.825 17.578 94.077 17.326C94.341 17.062 94.473 16.756 94.473 16.408V6.04Z" fill="#444388"/>
</g>
<defs>
<filter id="filter0_d_34_3" x="0.720001" y="0.447998" width="102.049" height="25.552" filterUnits="userSpaceOnUse" color-interpolation-filters="sRGB">
<feFlood flood-opacity="0" result="BackgroundImageFix"/>
<feColorMatrix in="SourceAlpha" type="matrix" values="0 0 0 0 0 0 0 0 0 0 0 0 0 0 0 0 0 0 127 0" result="hardAlpha"/>
<feOffset dx="2" dy="2"/>
<feGaussianBlur stdDeviation="2.5"/>
<feComposite in2="hardAlpha" operator="out"/>
<feColorMatrix type="matrix" values="0 0 0 0 0.841844 0 0 0 0 0.259219 0 0 0 0 0.9875 0 0 0 1 0"/>
<feBlend mode="normal" in2="BackgroundImageFix" result="effect1_dropShadow_34_3"/>
<feBlend mode="normal" in="SourceGraphic" in2="effect1_dropShadow_34_3" result="shape"/>
</filter>
</defs>
</svg>
