<svg width="864" height="76" viewBox="0 0 864 76" fill="none" xmlns="http://www.w3.org/2000/svg">
<g filter="url(#filter0_d_30_2)">
<path d="M57.4 68C56.824 68 56.408 67.776 56.152 67.328L11.416 7.04V34.208C11.416 35.104 11.096 35.872 10.456 36.512C9.816 37.152 9.048 37.472 8.152 37.472H4.984V0.799995H12.76C13.208 0.799995 13.656 1.024 14.104 1.472L58.84 61.856V4.064C58.84 3.168 59.16 2.4 59.8 1.75999C60.44 1.12 61.208 0.799995 62.104 0.799995H65.272V68H57.4ZM104.519 0.799995H167.016V3.68C167.016 4.576 166.696 5.344 166.056 5.984C165.479 6.56 164.743 6.848 163.847 6.848H105.576C104.872 6.848 104.519 6.528 104.519 5.888V0.799995ZM160.872 34.208C160.872 35.104 160.552 35.872 159.912 36.512C159.336 37.152 158.6 37.472 157.704 37.472H104.519V32.288C104.519 31.712 104.839 31.424 105.479 31.424H160.872V34.208ZM104.519 68V62.816C104.519 62.24 104.807 61.952 105.384 61.952H164.808C165.704 61.952 166.44 62.272 167.016 62.912C167.656 63.488 167.976 64.224 167.976 65.12V68H104.519ZM290.784 68C290.08 68 289.44 67.872 288.864 67.616C288.288 67.296 287.84 66.88 287.52 66.368L252.576 5.216L217.536 66.368C217.216 66.88 216.768 67.296 216.192 67.616C215.616 67.872 214.976 68 214.272 68H210.72L210.816 1.184H212.832C213.92 1.184 214.88 1.504 215.712 2.144C216.544 2.78399 216.96 3.55199 216.96 4.44799V55.232L247.392 3.2C247.84 2.496 248.448 1.92 249.216 1.472C250.048 1.024 250.976 0.799995 252 0.799995H253.056C254.08 0.799995 255.008 1.024 255.84 1.472C256.672 1.92 257.28 2.496 257.664 3.2L288.096 55.232V4.44799C288.096 3.55199 288.512 2.78399 289.344 2.144C290.176 1.504 291.136 1.184 292.224 1.184H294.24L294.336 68H290.784ZM462.609 68C461.905 68 461.265 67.872 460.689 67.616C460.113 67.296 459.665 66.88 459.345 66.368L424.401 5.216L389.361 66.368C389.041 66.88 388.593 67.296 388.017 67.616C387.441 67.872 386.801 68 386.097 68H382.545L382.641 1.184H384.657C385.745 1.184 386.705 1.504 387.537 2.144C388.369 2.78399 388.785 3.55199 388.785 4.44799V55.232L419.217 3.2C419.665 2.496 420.273 1.92 421.041 1.472C421.873 1.024 422.801 0.799995 423.825 0.799995H424.881C425.905 0.799995 426.833 1.024 427.665 1.472C428.497 1.92 429.105 2.496 429.489 3.2L459.921 55.232V4.44799C459.921 3.55199 460.337 2.78399 461.169 2.144C462.001 1.504 462.961 1.184 464.049 1.184H466.065L466.161 68H462.609ZM575.512 34.4C575.512 39.008 574.616 43.36 572.824 47.456C571.096 51.552 568.696 55.136 565.624 58.208C562.616 61.216 559.064 63.616 554.968 65.408C550.872 67.136 546.52 68 541.912 68C537.304 68 532.952 67.136 528.856 65.408C524.76 63.616 521.176 61.216 518.104 58.208C515.096 55.136 512.696 51.552 510.904 47.456C509.176 43.36 508.312 39.008 508.312 34.4C508.312 29.792 509.176 25.44 510.904 21.344C512.696 17.248 515.096 13.696 518.104 10.688C521.176 7.616 524.76 5.216 528.856 3.488C532.952 1.696 537.304 0.799995 541.912 0.799995C546.52 0.799995 550.872 1.696 554.968 3.488C559.064 5.216 562.616 7.616 565.624 10.688C568.696 13.696 571.096 17.248 572.824 21.344C574.616 25.44 575.512 29.792 575.512 34.4ZM514.36 34.4C514.36 38.176 515.064 41.76 516.472 45.152C517.944 48.48 519.928 51.392 522.424 53.888C524.92 56.384 527.832 58.368 531.16 59.84C534.552 61.248 538.136 61.952 541.912 61.952C545.688 61.952 549.24 61.248 552.568 59.84C555.96 58.368 558.904 56.384 561.4 53.888C563.896 51.392 565.848 48.48 567.256 45.152C568.728 41.76 569.464 38.176 569.464 34.4C569.464 30.624 568.728 27.072 567.256 23.744C565.848 20.352 563.896 17.408 561.4 14.912C558.904 12.416 555.96 10.464 552.568 9.056C549.24 7.584 545.688 6.848 541.912 6.848C538.136 6.848 534.552 7.584 531.16 9.056C527.832 10.464 524.92 12.416 522.424 14.912C519.928 17.408 517.944 20.352 516.472 23.744C515.064 27.072 514.36 30.624 514.36 34.4ZM651.022 37.088C654.094 40.864 656.686 44.064 658.798 46.688C660.91 49.248 662.702 51.456 664.174 53.312C665.646 55.104 666.862 56.64 667.822 57.92C668.782 59.136 669.646 60.256 670.414 61.28C671.246 62.304 672.078 63.328 672.91 64.352C673.742 65.376 674.734 66.592 675.886 68H670.318C669.486 68 668.686 67.84 667.918 67.52C667.79 67.392 667.662 67.296 667.534 67.232C667.47 67.168 667.406 67.072 667.342 66.944C667.278 66.88 667.246 66.88 667.246 66.944C667.31 67.008 667.15 66.816 666.766 66.368C666.382 65.856 665.678 64.992 664.654 63.776C663.63 62.496 662.03 60.544 659.854 57.92C657.742 55.296 654.926 51.808 651.406 47.456C647.886 43.104 643.438 37.632 638.062 31.04H654.094C655.886 31.04 657.518 30.72 658.99 30.08C660.526 29.376 661.838 28.48 662.926 27.392C664.014 26.304 664.878 25.024 665.518 23.552C666.158 22.08 666.478 20.544 666.478 18.944C666.478 17.344 666.158 15.84 665.518 14.432C664.878 12.96 664.014 11.68 662.926 10.592C661.838 9.43999 660.526 8.54399 658.99 7.904C657.518 7.264 655.886 6.944 654.094 6.944C654.03 6.944 652.558 6.912 649.678 6.848H613.294C612.014 6.848 610.894 6.4 609.934 5.504C608.974 4.544 608.494 3.392 608.494 2.048V0.799995H653.614C656.238 0.735996 658.67 1.184 660.91 2.144C663.214 3.04 665.198 4.32 666.862 5.984C668.59 7.584 669.966 9.504 670.99 11.744C672.014 13.984 672.526 16.384 672.526 18.944C672.526 21.504 672.014 23.904 670.99 26.144C669.966 28.384 668.59 30.336 666.862 32C665.198 33.6 663.214 34.88 660.91 35.84C658.67 36.736 656.238 37.152 653.614 37.088H651.022ZM717.096 0.799995C717.992 0.799995 718.76 1.12 719.4 1.75999C720.04 2.4 720.36 3.168 720.36 4.064V34.4C720.36 38.24 721.064 41.856 722.472 45.248C723.88 48.576 725.8 51.488 728.232 53.984C730.664 56.48 733.512 58.432 736.776 59.84C740.104 61.248 743.688 61.952 747.528 61.952H761.448C762.344 61.952 763.08 62.272 763.656 62.912C764.296 63.488 764.616 64.224 764.616 65.12V68C759.56 68 755.784 68 753.288 68C750.856 68 749.128 68 748.104 68C747.08 68 746.504 68 746.376 68C746.248 67.936 745.96 67.904 745.512 67.904C741.096 67.648 736.968 66.592 733.128 64.736C729.288 62.88 725.928 60.448 723.048 57.44C720.232 54.432 717.992 50.944 716.328 46.976C714.728 43.008 713.928 38.816 713.928 34.4V0.799995H717.096ZM825.131 68H795.083V65.12C795.083 64.224 795.371 63.488 795.947 62.912C796.587 62.272 797.355 61.952 798.251 61.952H825.611C829.387 61.952 832.939 61.248 836.267 59.84C839.595 58.368 842.507 56.384 845.003 53.888C847.499 51.392 849.451 48.48 850.859 45.152C852.331 41.76 853.067 38.176 853.067 34.4C853.067 30.56 852.331 26.976 850.859 23.648C849.451 20.32 847.499 17.408 845.003 14.912C842.507 12.416 839.595 10.464 836.267 9.056C832.939 7.648 829.387 6.944 825.611 6.944H798.251C797.355 6.944 796.587 6.624 795.947 5.984C795.371 5.344 795.083 4.576 795.083 3.68V0.799995H825.131C829.867 0.735996 834.283 1.6 838.379 3.392C842.539 5.12 846.155 7.52 849.227 10.592C852.299 13.664 854.699 17.248 856.427 21.344C858.219 25.44 859.115 29.792 859.115 34.4C859.115 38.944 858.251 43.264 856.523 47.36C854.795 51.392 852.395 54.944 849.323 58.016C846.315 61.088 842.731 63.52 838.571 65.312C834.475 67.104 829.995 68 825.131 68Z" fill="#13FFD5" fill-opacity="0.9" shape-rendering="crispEdges"/>
</g>
<defs>
<filter id="filter0_d_30_2" x="0.984009" y="0.703995" width="862.131" height="75.296" filterUnits="userSpaceOnUse" color-interpolation-filters="sRGB">
<feFlood flood-opacity="0" result="BackgroundImageFix"/>
<feColorMatrix in="SourceAlpha" type="matrix" values="0 0 0 0 0 0 0 0 0 0 0 0 0 0 0 0 0 0 127 0" result="hardAlpha"/>
<feOffset dy="4"/>
<feGaussianBlur stdDeviation="2"/>
<feComposite in2="hardAlpha" operator="out"/>
<feColorMatrix type="matrix" values="0 0 0 0 1 0 0 0 0 0.075 0 0 0 0 0.075 0 0 0 1 0"/>
<feBlend mode="normal" in2="BackgroundImageFix" result="effect1_dropShadow_30_2"/>
<feBlend mode="normal" in="SourceGraphic" in2="effect1_dropShadow_30_2" result="shape"/>
</filter>
</defs>
</svg>
