<svg width="336" height="64" viewBox="0 0 336 64" fill="none" xmlns="http://www.w3.org/2000/svg">
<g filter="url(#filter0_d_34_3)">
<path d="M27.6 4.704H32.208V60H27.6V47.136L9.168 28.704V60H4.56V4.704H9.168V22.176L27.6 40.608V4.704ZM71.358 9.312H48.318V32.352H66.75V36.96H48.318V55.392H71.358V60H43.71V4.704H71.358V9.312ZM101.292 60C99.7133 60 98.1773 59.5947 96.684 58.784C95.1907 59.5947 93.6547 60 92.076 60C90.796 60 89.58 59.7653 88.428 59.296C87.3187 58.8267 86.3373 58.1867 85.484 57.376C84.6733 56.5227 84.0333 55.5413 83.564 54.432C83.0947 53.28 82.86 52.064 82.86 50.784V4.704H87.468V50.784C87.468 52.0213 87.916 53.1093 88.812 54.048C89.7507 54.944 90.8387 55.392 92.076 55.392C92.9293 55.392 93.6973 55.1787 94.38 54.752V27.744H98.988V54.752C99.6707 55.1787 100.439 55.392 101.292 55.392C102.529 55.392 103.596 54.944 104.492 54.048C105.431 53.1093 105.9 52.0213 105.9 50.784V4.704H110.508V50.784C110.508 52.064 110.252 53.28 109.74 54.432C109.271 55.5413 108.609 56.5227 107.756 57.376C106.945 58.1867 105.985 58.8267 104.876 59.296C103.767 59.7653 102.572 60 101.292 60ZM166.03 60C164.451 60 162.915 59.5947 161.422 58.784C159.928 59.5947 158.392 60 156.814 60C155.534 60 154.318 59.7653 153.166 59.296C152.056 58.8267 151.075 58.1867 150.222 57.376C149.411 56.5227 148.771 55.5413 148.302 54.432C147.832 53.28 147.598 52.064 147.598 50.784V4.704H152.206V50.784C152.206 52.0213 152.654 53.1093 153.55 54.048C154.488 54.944 155.576 55.392 156.814 55.392C157.667 55.392 158.435 55.1787 159.118 54.752V27.744H163.726V54.752C164.408 55.1787 165.176 55.392 166.03 55.392C167.267 55.392 168.334 54.944 169.23 54.048C170.168 53.1093 170.638 52.0213 170.638 50.784V4.704H175.246V50.784C175.246 52.064 174.99 53.28 174.478 54.432C174.008 55.5413 173.347 56.5227 172.494 57.376C171.683 58.1867 170.723 58.8267 169.614 59.296C168.504 59.7653 167.31 60 166.03 60ZM205.18 4.704C206.46 4.704 207.654 4.96 208.764 5.472C209.873 5.94133 210.833 6.60266 211.644 7.456C212.497 8.26666 213.158 9.22666 213.628 10.336C214.14 11.4453 214.396 12.64 214.396 13.92V50.784C214.396 52.064 214.14 53.28 213.628 54.432C213.158 55.5413 212.497 56.5227 211.644 57.376C210.833 58.1867 209.873 58.8267 208.764 59.296C207.654 59.7653 206.46 60 205.18 60H195.964C194.684 60 193.468 59.7653 192.316 59.296C191.206 58.8267 190.225 58.1867 189.372 57.376C188.561 56.5227 187.921 55.5413 187.452 54.432C186.982 53.28 186.748 52.064 186.748 50.784V13.92C186.748 12.64 186.982 11.4453 187.452 10.336C187.921 9.22666 188.561 8.26666 189.372 7.456C190.225 6.60266 191.206 5.94133 192.316 5.472C193.468 4.96 194.684 4.704 195.964 4.704H205.18ZM209.788 13.92C209.788 12.6827 209.318 11.616 208.38 10.72C207.484 9.78133 206.417 9.312 205.18 9.312H195.964C194.726 9.312 193.638 9.78133 192.7 10.72C191.804 11.616 191.356 12.6827 191.356 13.92V50.784C191.356 52.0213 191.804 53.1093 192.7 54.048C193.638 54.944 194.726 55.392 195.964 55.392H205.18C206.417 55.392 207.484 54.944 208.38 54.048C209.318 53.1093 209.788 52.0213 209.788 50.784V13.92ZM253.545 27.744C253.545 29.0667 253.268 30.3467 252.713 31.584C252.159 32.7787 251.391 33.8027 250.409 34.656C251.391 35.5093 252.159 36.5547 252.713 37.792C253.268 38.9867 253.545 40.2453 253.545 41.568V60H248.937V41.568C248.937 40.3307 248.468 39.264 247.529 38.368C246.633 37.4293 245.567 36.96 244.329 36.96H230.505V60H225.897V4.704H244.329C245.609 4.704 246.804 4.96 247.913 5.472C249.023 5.94133 249.983 6.60266 250.793 7.456C251.647 8.26666 252.308 9.22666 252.777 10.336C253.289 11.4453 253.545 12.64 253.545 13.92V27.744ZM244.329 32.352C245.567 32.352 246.633 31.904 247.529 31.008C248.468 30.0693 248.937 28.9813 248.937 27.744V13.92C248.937 12.6827 248.468 11.616 247.529 10.72C246.633 9.78133 245.567 9.312 244.329 9.312H230.505V32.352H244.329ZM269.655 55.392H292.695V60H265.047V4.704H269.655V55.392ZM322.63 4.704C323.91 4.704 325.104 4.96 326.214 5.472C327.323 5.94133 328.283 6.60266 329.094 7.456C329.947 8.26666 330.608 9.22666 331.078 10.336C331.59 11.4453 331.846 12.64 331.846 13.92V50.784C331.846 52.064 331.59 53.2587 331.078 54.368C330.608 55.4773 329.947 56.4587 329.094 57.312C328.283 58.1227 327.323 58.784 326.214 59.296C325.104 59.7653 323.91 60 322.63 60H304.198V4.704H322.63ZM327.238 13.92C327.238 12.6827 326.768 11.616 325.83 10.72C324.934 9.78133 323.867 9.312 322.63 9.312H308.806V55.392H322.63C323.867 55.392 324.934 54.944 325.83 54.048C326.768 53.1093 327.238 52.0213 327.238 50.784V13.92Z" fill="#FDFFFF"/>
<path d="M27.6 4.704V3.704H26.6V4.704H27.6ZM32.208 4.704H33.208V3.704H32.208V4.704ZM32.208 60V61H33.208V60H32.208ZM27.6 60H26.6V61H27.6V60ZM27.6 47.136H28.6V46.7218L28.3071 46.4289L27.6 47.136ZM9.168 28.704L9.87511 27.9969L8.168 26.2898V28.704H9.168ZM9.168 60V61H10.168V60H9.168ZM4.56 60H3.56V61H4.56V60ZM4.56 4.704V3.704H3.56V4.704H4.56ZM9.168 4.704H10.168V3.704H9.168V4.704ZM9.168 22.176H8.168V22.5902L8.46089 22.8831L9.168 22.176ZM27.6 40.608L26.8929 41.3151L28.6 43.0222V40.608H27.6ZM27.6 5.704H32.208V3.704H27.6V5.704ZM31.208 4.704V60H33.208V4.704H31.208ZM32.208 59H27.6V61H32.208V59ZM28.6 60V47.136H26.6V60H28.6ZM28.3071 46.4289L9.87511 27.9969L8.46089 29.4111L26.8929 47.8431L28.3071 46.4289ZM8.168 28.704V60H10.168V28.704H8.168ZM9.168 59H4.56V61H9.168V59ZM5.56 60V4.704H3.56V60H5.56ZM4.56 5.704H9.168V3.704H4.56V5.704ZM8.168 4.704V22.176H10.168V4.704H8.168ZM8.46089 22.8831L26.8929 41.3151L28.3071 39.9009L9.87511 21.4689L8.46089 22.8831ZM28.6 40.608V4.704H26.6V40.608H28.6ZM71.358 9.312V10.312H72.358V9.312H71.358ZM48.318 9.312V8.312H47.318V9.312H48.318ZM48.318 32.352H47.318V33.352H48.318V32.352ZM66.75 32.352H67.75V31.352H66.75V32.352ZM66.75 36.96V37.96H67.75V36.96H66.75ZM48.318 36.96V35.96H47.318V36.96H48.318ZM48.318 55.392H47.318V56.392H48.318V55.392ZM71.358 55.392H72.358V54.392H71.358V55.392ZM71.358 60V61H72.358V60H71.358ZM43.71 60H42.71V61H43.71V60ZM43.71 4.704V3.704H42.71V4.704H43.71ZM71.358 4.704H72.358V3.704H71.358V4.704ZM71.358 8.312H48.318V10.312H71.358V8.312ZM47.318 9.312V32.352H49.318V9.312H47.318ZM48.318 33.352H66.75V31.352H48.318V33.352ZM65.75 32.352V36.96H67.75V32.352H65.75ZM66.75 35.96H48.318V37.96H66.75V35.96ZM47.318 36.96V55.392H49.318V36.96H47.318ZM48.318 56.392H71.358V54.392H48.318V56.392ZM70.358 55.392V60H72.358V55.392H70.358ZM71.358 59H43.71V61H71.358V59ZM44.71 60V4.704H42.71V60H44.71ZM43.71 5.704H71.358V3.704H43.71V5.704ZM70.358 4.704V9.312H72.358V4.704H70.358ZM96.684 58.784L97.1611 57.9051L96.684 57.6462L96.2069 57.9051L96.684 58.784ZM88.428 59.296L88.0383 60.217L88.0507 60.2221L88.428 59.296ZM85.484 57.376L84.759 58.0647L84.7767 58.0833L84.7953 58.101L85.484 57.376ZM83.564 54.432L82.6378 54.8093L82.643 54.8216L83.564 54.432ZM82.86 4.704V3.704H81.86V4.704H82.86ZM87.468 4.704H88.468V3.704H87.468V4.704ZM88.812 54.048L88.0886 54.7385L88.1047 54.7553L88.1215 54.7714L88.812 54.048ZM94.38 54.752L94.91 55.6L95.38 55.3062V54.752H94.38ZM94.38 27.744V26.744H93.38V27.744H94.38ZM98.988 27.744H99.988V26.744H98.988V27.744ZM98.988 54.752H97.988V55.3062L98.458 55.6L98.988 54.752ZM104.492 54.048L105.199 54.7551L105.199 54.7551L104.492 54.048ZM105.9 4.704V3.704H104.9V4.704H105.9ZM110.508 4.704H111.508V3.704H110.508V4.704ZM109.74 54.432L108.826 54.0259L108.823 54.0341L108.819 54.0424L109.74 54.432ZM107.756 57.376L107.049 56.6689L107.049 56.6689L107.756 57.376ZM104.876 59.296L104.486 58.375L104.486 58.375L104.876 59.296ZM101.292 59C99.8926 59 98.5195 58.6426 97.1611 57.9051L96.2069 59.6629C97.8352 60.5468 99.5341 61 101.292 61V59ZM96.2069 57.9051C94.8485 58.6426 93.4754 59 92.076 59V61C93.8339 61 95.5328 60.5468 97.1611 59.6629L96.2069 57.9051ZM92.076 59C90.9215 59 89.834 58.789 88.8053 58.3699L88.0507 60.2221C89.326 60.7417 90.6705 61 92.076 61V59ZM88.8176 58.375C87.8163 57.9514 86.9369 57.377 86.1728 56.651L84.7953 58.101C85.7378 58.9964 86.821 59.7019 88.0384 60.217L88.8176 58.375ZM86.209 56.6873C85.483 55.9231 84.9086 55.0437 84.485 54.0424L82.643 54.8216C83.1581 56.039 83.8636 57.1222 84.759 58.0647L86.209 56.6873ZM84.4901 54.0547C84.071 53.026 83.86 51.9385 83.86 50.784H81.86C81.86 52.1895 82.1183 53.534 82.6379 54.8093L84.4901 54.0547ZM83.86 50.784V4.704H81.86V50.784H83.86ZM82.86 5.704H87.468V3.704H82.86V5.704ZM86.468 4.704V50.784H88.468V4.704H86.468ZM86.468 50.784C86.468 52.292 87.0246 53.6238 88.0886 54.7385L89.5354 53.3575C88.8074 52.5949 88.468 51.7506 88.468 50.784H86.468ZM88.1215 54.7714C89.2362 55.8354 90.568 56.392 92.076 56.392V54.392C91.1094 54.392 90.2651 54.0526 89.5025 53.3246L88.1215 54.7714ZM92.076 56.392C93.105 56.392 94.0587 56.132 94.91 55.6L93.85 53.904C93.336 54.2253 92.7537 54.392 92.076 54.392V56.392ZM95.38 54.752V27.744H93.38V54.752H95.38ZM94.38 28.744H98.988V26.744H94.38V28.744ZM97.988 27.744V54.752H99.988V27.744H97.988ZM98.458 55.6C99.3093 56.132 100.263 56.392 101.292 56.392V54.392C100.614 54.392 100.032 54.2253 99.518 53.904L98.458 55.6ZM101.292 56.392C102.802 56.392 104.121 55.8336 105.199 54.7551L103.785 53.3409C103.071 54.0544 102.257 54.392 101.292 54.392V56.392ZM105.199 54.7551C106.31 53.644 106.9 52.3072 106.9 50.784H104.9C104.9 51.7355 104.551 52.5746 103.785 53.3409L105.199 54.7551ZM106.9 50.784V4.704H104.9V50.784H106.9ZM105.9 5.704H110.508V3.704H105.9V5.704ZM109.508 4.704V50.784H111.508V4.704H109.508ZM109.508 50.784C109.508 51.9263 109.28 53.0037 108.826 54.0259L110.654 54.8381C111.224 53.5563 111.508 52.2017 111.508 50.784H109.508ZM108.819 54.0424C108.4 55.0329 107.811 55.9064 107.049 56.6689L108.463 58.0831C109.407 57.1389 110.141 56.0498 110.661 54.8216L108.819 54.0424ZM107.049 56.6689C106.334 57.3839 105.483 57.9533 104.486 58.375L105.266 60.217C106.487 59.7 107.557 58.9894 108.463 58.0831L107.049 56.6689ZM104.486 58.375C103.508 58.789 102.447 59 101.292 59V61C102.697 61 104.025 60.7417 105.266 60.217L104.486 58.375ZM161.422 58.784L161.899 57.9051L161.422 57.6462L160.944 57.9051L161.422 58.784ZM153.166 59.296L152.776 60.217L152.788 60.2221L153.166 59.296ZM150.222 57.376L149.497 58.0647L149.514 58.0833L149.533 58.101L150.222 57.376ZM148.302 54.432L147.375 54.8093L147.381 54.8216L148.302 54.432ZM147.598 4.704V3.704H146.598V4.704H147.598ZM152.206 4.704H153.206V3.704H152.206V4.704ZM153.55 54.048L152.826 54.7385L152.842 54.7553L152.859 54.7714L153.55 54.048ZM159.118 54.752L159.648 55.6L160.118 55.3062V54.752H159.118ZM159.118 27.744V26.744H158.118V27.744H159.118ZM163.726 27.744H164.726V26.744H163.726V27.744ZM163.726 54.752H162.726V55.3062L163.196 55.6L163.726 54.752ZM169.23 54.048L169.937 54.7551L169.937 54.7551L169.23 54.048ZM170.638 4.704V3.704H169.638V4.704H170.638ZM175.246 4.704H176.246V3.704H175.246V4.704ZM174.478 54.432L173.564 54.0259L173.56 54.0341L173.557 54.0424L174.478 54.432ZM172.494 57.376L171.786 56.6689L171.786 56.6689L172.494 57.376ZM169.614 59.296L169.224 58.375L169.224 58.375L169.614 59.296ZM166.03 59C164.63 59 163.257 58.6426 161.899 57.9051L160.944 59.6629C162.573 60.5468 164.272 61 166.03 61V59ZM160.944 57.9051C159.586 58.6426 158.213 59 156.814 59V61C158.571 61 160.27 60.5468 161.899 59.6629L160.944 57.9051ZM156.814 59C155.659 59 154.572 58.789 153.543 58.3699L152.788 60.2221C154.064 60.7417 155.408 61 156.814 61V59ZM153.555 58.375C152.554 57.9514 151.674 57.377 150.91 56.651L149.533 58.101C150.475 58.9964 151.559 59.7019 152.776 60.217L153.555 58.375ZM150.947 56.6873C150.221 55.9231 149.646 55.0437 149.222 54.0424L147.381 54.8216C147.896 56.039 148.601 57.1222 149.497 58.0647L150.947 56.6873ZM149.228 54.0547C148.808 53.026 148.598 51.9385 148.598 50.784H146.598C146.598 52.1895 146.856 53.534 147.375 54.8093L149.228 54.0547ZM148.598 50.784V4.704H146.598V50.784H148.598ZM147.598 5.704H152.206V3.704H147.598V5.704ZM151.206 4.704V50.784H153.206V4.704H151.206ZM151.206 50.784C151.206 52.292 151.762 53.6238 152.826 54.7385L154.273 53.3575C153.545 52.5949 153.206 51.7506 153.206 50.784H151.206ZM152.859 54.7714C153.974 55.8354 155.305 56.392 156.814 56.392V54.392C155.847 54.392 155.003 54.0526 154.24 53.3246L152.859 54.7714ZM156.814 56.392C157.843 56.392 158.796 56.132 159.648 55.6L158.588 53.904C158.073 54.2253 157.491 54.392 156.814 54.392V56.392ZM160.118 54.752V27.744H158.118V54.752H160.118ZM159.118 28.744H163.726V26.744H159.118V28.744ZM162.726 27.744V54.752H164.726V27.744H162.726ZM163.196 55.6C164.047 56.132 165.001 56.392 166.03 56.392V54.392C165.352 54.392 164.77 54.2253 164.256 53.904L163.196 55.6ZM166.03 56.392C167.539 56.392 168.858 55.8336 169.937 54.7551L168.522 53.3409C167.809 54.0544 166.995 54.392 166.03 54.392V56.392ZM169.937 54.7551C171.048 53.644 171.638 52.3072 171.638 50.784H169.638C169.638 51.7355 169.289 52.5746 168.522 53.3409L169.937 54.7551ZM171.638 50.784V4.704H169.638V50.784H171.638ZM170.638 5.704H175.246V3.704H170.638V5.704ZM174.246 4.704V50.784H176.246V4.704H174.246ZM174.246 50.784C174.246 51.9263 174.018 53.0037 173.564 54.0259L175.391 54.8381C175.961 53.5563 176.246 52.2017 176.246 50.784H174.246ZM173.557 54.0424C173.137 55.0329 172.549 55.9064 171.786 56.6689L173.201 58.0831C174.145 57.1389 174.879 56.0498 175.398 54.8216L173.557 54.0424ZM171.786 56.6689C171.071 57.3839 170.221 57.9533 169.224 58.375L170.003 60.217C171.225 59.7 172.294 58.9894 173.201 58.0831L171.786 56.6689ZM169.224 58.375C168.245 58.789 167.184 59 166.03 59V61C167.435 61 168.763 60.7417 170.003 60.217L169.224 58.375ZM208.764 5.472L208.344 6.37996L208.359 6.3867L208.374 6.39296L208.764 5.472ZM211.644 7.456L210.919 8.14475L210.936 8.16334L210.955 8.181L211.644 7.456ZM213.628 10.336L212.707 10.7256L212.713 10.7405L212.72 10.7551L213.628 10.336ZM213.628 54.432L212.714 54.0259L212.71 54.0341L212.707 54.0424L213.628 54.432ZM211.644 57.376L210.936 56.6689L210.936 56.6689L211.644 57.376ZM208.764 59.296L208.374 58.375L208.374 58.375L208.764 59.296ZM192.316 59.296L191.926 60.217L191.938 60.2221L192.316 59.296ZM189.372 57.376L188.647 58.0647L188.664 58.0833L188.683 58.101L189.372 57.376ZM187.452 54.432L186.525 54.8093L186.531 54.8216L187.452 54.432ZM187.452 10.336L188.372 10.7256L188.372 10.7256L187.452 10.336ZM189.372 7.456L188.664 6.74889L188.664 6.74889L189.372 7.456ZM192.316 5.472L192.705 6.39296L192.713 6.38946L192.722 6.38581L192.316 5.472ZM208.38 10.72L207.656 11.4105L207.672 11.4273L207.689 11.4434L208.38 10.72ZM192.7 10.72L191.992 10.0129L191.992 10.0129L192.7 10.72ZM192.7 54.048L191.976 54.7385L191.992 54.7553L192.009 54.7714L192.7 54.048ZM208.38 54.048L209.087 54.7551L209.087 54.7551L208.38 54.048ZM205.18 5.704C206.322 5.704 207.373 5.93148 208.344 6.37996L209.183 4.56404C207.936 3.98851 206.597 3.704 205.18 3.704V5.704ZM208.374 6.39296C209.36 6.81004 210.205 7.3934 210.919 8.14475L212.369 6.76725C211.461 5.81193 210.386 5.07262 209.153 4.55103L208.374 6.39296ZM210.955 8.181C211.706 8.89477 212.289 9.73982 212.707 10.7256L214.548 9.94636C214.027 8.71351 213.288 7.63855 212.332 6.731L210.955 8.181ZM212.72 10.7551C213.168 11.7267 213.396 12.7776 213.396 13.92H215.396C215.396 12.5024 215.111 11.1639 214.535 9.91694L212.72 10.7551ZM213.396 13.92V50.784H215.396V13.92H213.396ZM213.396 50.784C213.396 51.9263 213.168 53.0037 212.714 54.0259L214.541 54.8381C215.111 53.5563 215.396 52.2017 215.396 50.784H213.396ZM212.707 54.0424C212.287 55.0329 211.699 55.9064 210.936 56.6689L212.351 58.0831C213.295 57.1389 214.029 56.0498 214.548 54.8216L212.707 54.0424ZM210.936 56.6689C210.221 57.3839 209.371 57.9533 208.374 58.375L209.153 60.217C210.375 59.7 211.444 58.9894 212.351 58.0831L210.936 56.6689ZM208.374 58.375C207.395 58.789 206.334 59 205.18 59V61C206.585 61 207.913 60.7417 209.153 60.217L208.374 58.375ZM205.18 59H195.964V61H205.18V59ZM195.964 59C194.809 59 193.721 58.789 192.693 58.3699L191.938 60.2221C193.214 60.7417 194.558 61 195.964 61V59ZM192.705 58.375C191.704 57.9514 190.824 57.377 190.06 56.651L188.683 58.101C189.625 58.9964 190.708 59.7019 191.926 60.217L192.705 58.375ZM190.096 56.6873C189.371 55.9231 188.796 55.0437 188.372 54.0424L186.531 54.8216C187.046 56.039 187.751 57.1222 188.647 58.0647L190.096 56.6873ZM188.378 54.0547C187.958 53.026 187.748 51.9385 187.748 50.784H185.748C185.748 52.1895 186.006 53.534 186.525 54.8093L188.378 54.0547ZM187.748 50.784V13.92H185.748V50.784H187.748ZM187.748 13.92C187.748 12.7653 187.959 11.7041 188.372 10.7256L186.531 9.94636C186.006 11.1866 185.748 12.5146 185.748 13.92H187.748ZM188.372 10.7256C188.794 9.72881 189.364 8.87814 190.079 8.1631L188.664 6.74889C187.758 7.65519 187.047 8.72452 186.531 9.94636L188.372 10.7256ZM190.079 8.1631C190.841 7.40066 191.715 6.81202 192.705 6.39296L191.926 4.55103C190.698 5.07064 189.609 5.80467 188.664 6.74889L190.079 8.1631ZM192.722 6.38581C193.744 5.93153 194.821 5.704 195.964 5.704V3.704C194.546 3.704 193.191 3.98847 191.909 4.55818L192.722 6.38581ZM195.964 5.704H205.18V3.704H195.964V5.704ZM210.788 13.92C210.788 12.3948 210.196 11.071 209.07 9.99664L207.689 11.4434C208.441 12.161 208.788 12.9705 208.788 13.92H210.788ZM209.103 10.0295C208.028 8.90398 206.705 8.312 205.18 8.312V10.312C206.129 10.312 206.939 10.6587 207.656 11.4105L209.103 10.0295ZM205.18 8.312H195.964V10.312H205.18V8.312ZM195.964 8.312C194.44 8.312 193.103 8.9018 191.992 10.0129L193.407 11.4271C194.173 10.6609 195.012 10.312 195.964 10.312V8.312ZM191.992 10.0129C190.914 11.0914 190.356 12.4104 190.356 13.92H192.356C192.356 12.955 192.693 12.1406 193.407 11.4271L191.992 10.0129ZM190.356 13.92V50.784H192.356V13.92H190.356ZM190.356 50.784C190.356 52.292 190.912 53.6238 191.976 54.7385L193.423 53.3575C192.695 52.5949 192.356 51.7506 192.356 50.784H190.356ZM192.009 54.7714C193.124 55.8354 194.455 56.392 195.964 56.392V54.392C194.997 54.392 194.153 54.0526 193.39 53.3246L192.009 54.7714ZM195.964 56.392H205.18V54.392H195.964V56.392ZM205.18 56.392C206.689 56.392 208.008 55.8336 209.087 54.7551L207.672 53.3409C206.959 54.0544 206.145 54.392 205.18 54.392V56.392ZM209.087 54.7551C210.198 53.644 210.788 52.3072 210.788 50.784H208.788C208.788 51.7355 208.439 52.5746 207.672 53.3409L209.087 54.7551ZM210.788 50.784V13.92H208.788V50.784H210.788ZM252.713 31.584L253.621 32.0051L253.626 31.9931L252.713 31.584ZM250.409 34.656L249.753 33.9014L248.886 34.656L249.753 35.4106L250.409 34.656ZM252.713 37.792L251.801 38.2011L251.806 38.2131L252.713 37.792ZM253.545 60V61H254.545V60H253.545ZM248.937 60H247.937V61H248.937V60ZM247.529 38.368L246.806 39.0585L246.822 39.0753L246.839 39.0914L247.529 38.368ZM230.505 36.96V35.96H229.505V36.96H230.505ZM230.505 60V61H231.505V60H230.505ZM225.897 60H224.897V61H225.897V60ZM225.897 4.704V3.704H224.897V4.704H225.897ZM247.913 5.472L247.494 6.37996L247.509 6.3867L247.524 6.39296L247.913 5.472ZM250.793 7.456L250.068 8.14475L250.086 8.16334L250.105 8.181L250.793 7.456ZM252.777 10.336L251.857 10.7256L251.863 10.7405L251.87 10.7551L252.777 10.336ZM247.529 31.008L248.237 31.7151L248.237 31.7151L247.529 31.008ZM247.529 10.72L246.806 11.4105L246.822 11.4273L246.839 11.4434L247.529 10.72ZM230.505 9.312V8.312H229.505V9.312H230.505ZM230.505 32.352H229.505V33.352H230.505V32.352ZM252.545 27.744C252.545 28.9221 252.299 30.0629 251.801 31.1749L253.626 31.9931C254.237 30.6304 254.545 29.2113 254.545 27.744H252.545ZM251.806 31.1629C251.31 32.2317 250.627 33.1416 249.753 33.9014L251.066 35.4106C252.155 34.4638 253.007 33.3257 253.621 32.0051L251.806 31.1629ZM249.753 35.4106C250.62 36.1646 251.303 37.0903 251.801 38.2011L253.626 37.3829C253.015 36.019 252.161 34.854 251.066 33.9014L249.753 35.4106ZM251.806 38.2131C252.3 39.2753 252.545 40.3902 252.545 41.568H254.545C254.545 40.1005 254.237 38.6981 253.621 37.3709L251.806 38.2131ZM252.545 41.568V60H254.545V41.568H252.545ZM253.545 59H248.937V61H253.545V59ZM249.937 60V41.568H247.937V60H249.937ZM249.937 41.568C249.937 40.0428 249.346 38.719 248.22 37.6446L246.839 39.0914C247.591 39.809 247.937 40.6185 247.937 41.568H249.937ZM248.253 37.6775C247.178 36.552 245.855 35.96 244.329 35.96V37.96C245.279 37.96 246.089 38.3067 246.806 39.0585L248.253 37.6775ZM244.329 35.96H230.505V37.96H244.329V35.96ZM229.505 36.96V60H231.505V36.96H229.505ZM230.505 59H225.897V61H230.505V59ZM226.897 60V4.704H224.897V60H226.897ZM225.897 5.704H244.329V3.704H225.897V5.704ZM244.329 5.704C245.472 5.704 246.523 5.93148 247.494 6.37996L248.333 4.56404C247.086 3.98851 245.747 3.704 244.329 3.704V5.704ZM247.524 6.39296C248.51 6.81004 249.355 7.3934 250.068 8.14475L251.518 6.76725C250.611 5.81193 249.536 5.07262 248.303 4.55103L247.524 6.39296ZM250.105 8.181C250.856 8.89477 251.439 9.73982 251.857 10.7256L253.698 9.94636C253.177 8.71351 252.438 7.63855 251.482 6.731L250.105 8.181ZM251.87 10.7551C252.318 11.7267 252.545 12.7776 252.545 13.92H254.545C254.545 12.5024 254.261 11.1639 253.685 9.91694L251.87 10.7551ZM252.545 13.92V27.744H254.545V13.92H252.545ZM244.329 33.352C245.839 33.352 247.158 32.7936 248.237 31.7151L246.822 30.3009C246.109 31.0144 245.295 31.352 244.329 31.352V33.352ZM248.237 31.7151C249.348 30.604 249.937 29.2672 249.937 27.744H247.937C247.937 28.6955 247.589 29.5346 246.822 30.3009L248.237 31.7151ZM249.937 27.744V13.92H247.937V27.744H249.937ZM249.937 13.92C249.937 12.3948 249.346 11.071 248.22 9.99664L246.839 11.4434C247.591 12.161 247.937 12.9705 247.937 13.92H249.937ZM248.253 10.0295C247.178 8.90398 245.855 8.312 244.329 8.312V10.312C245.279 10.312 246.089 10.6587 246.806 11.4105L248.253 10.0295ZM244.329 8.312H230.505V10.312H244.329V8.312ZM229.505 9.312V32.352H231.505V9.312H229.505ZM230.505 33.352H244.329V31.352H230.505V33.352ZM269.655 55.392H268.655V56.392H269.655V55.392ZM292.695 55.392H293.695V54.392H292.695V55.392ZM292.695 60V61H293.695V60H292.695ZM265.047 60H264.047V61H265.047V60ZM265.047 4.704V3.704H264.047V4.704H265.047ZM269.655 4.704H270.655V3.704H269.655V4.704ZM269.655 56.392H292.695V54.392H269.655V56.392ZM291.695 55.392V60H293.695V55.392H291.695ZM292.695 59H265.047V61H292.695V59ZM266.047 60V4.704H264.047V60H266.047ZM265.047 5.704H269.655V3.704H265.047V5.704ZM268.655 4.704V55.392H270.655V4.704H268.655ZM326.214 5.472L325.794 6.37996L325.809 6.3867L325.824 6.39296L326.214 5.472ZM329.094 7.456L328.369 8.14475L328.386 8.16334L328.405 8.181L329.094 7.456ZM331.078 10.336L330.157 10.7256L330.163 10.7405L330.17 10.7551L331.078 10.336ZM331.078 54.368L330.17 53.9489L330.163 53.9635L330.157 53.9784L331.078 54.368ZM329.094 57.312L328.386 56.6049L328.386 56.6049L329.094 57.312ZM326.214 59.296L326.603 60.217L326.618 60.2107L326.633 60.204L326.214 59.296ZM304.198 60H303.198V61H304.198V60ZM304.198 4.704V3.704H303.198V4.704H304.198ZM325.83 10.72L325.106 11.4105L325.122 11.4273L325.139 11.4434L325.83 10.72ZM308.806 9.312V8.312H307.806V9.312H308.806ZM308.806 55.392H307.806V56.392H308.806V55.392ZM325.83 54.048L326.537 54.7551L326.537 54.7551L325.83 54.048ZM322.63 5.704C323.772 5.704 324.823 5.93148 325.794 6.37996L326.633 4.56404C325.386 3.98851 324.047 3.704 322.63 3.704V5.704ZM325.824 6.39296C326.81 6.81004 327.655 7.3934 328.369 8.14475L329.819 6.76725C328.911 5.81193 327.836 5.07262 326.603 4.55103L325.824 6.39296ZM328.405 8.181C329.156 8.89477 329.739 9.73982 330.157 10.7256L331.998 9.94636C331.477 8.71351 330.738 7.63855 329.782 6.731L328.405 8.181ZM330.17 10.7551C330.618 11.7267 330.846 12.7776 330.846 13.92H332.846C332.846 12.5024 332.561 11.1639 331.985 9.91694L330.17 10.7551ZM330.846 13.92V50.784H332.846V13.92H330.846ZM330.846 50.784C330.846 51.9264 330.618 52.9772 330.17 53.9489L331.985 54.7871C332.561 53.5401 332.846 52.2016 332.846 50.784H330.846ZM330.157 53.9784C329.737 54.9689 329.149 55.8424 328.386 56.6049L329.801 58.0191C330.745 57.0749 331.479 55.9858 331.998 54.7576L330.157 53.9784ZM328.386 56.6049C327.665 57.3268 326.804 57.9222 325.794 58.388L326.633 60.204C327.842 59.6458 328.901 58.9185 329.801 58.0191L328.386 56.6049ZM325.824 58.375C324.845 58.789 323.784 59 322.63 59V61C324.035 61 325.363 60.7417 326.603 60.217L325.824 58.375ZM322.63 59H304.198V61H322.63V59ZM305.198 60V4.704H303.198V60H305.198ZM304.198 5.704H322.63V3.704H304.198V5.704ZM328.238 13.92C328.238 12.3948 327.646 11.071 326.52 9.99664L325.139 11.4434C325.891 12.161 326.238 12.9705 326.238 13.92H328.238ZM326.553 10.0295C325.478 8.90398 324.155 8.312 322.63 8.312V10.312C323.579 10.312 324.389 10.6587 325.106 11.4105L326.553 10.0295ZM322.63 8.312H308.806V10.312H322.63V8.312ZM307.806 9.312V55.392H309.806V9.312H307.806ZM308.806 56.392H322.63V54.392H308.806V56.392ZM322.63 56.392C324.139 56.392 325.458 55.8336 326.537 54.7551L325.122 53.3409C324.409 54.0544 323.595 54.392 322.63 54.392V56.392ZM326.537 54.7551C327.648 53.644 328.238 52.3072 328.238 50.784H326.238C326.238 51.7355 325.889 52.5746 325.122 53.3409L326.537 54.7551ZM328.238 50.784V13.92H326.238V50.784H328.238Z" fill="#31A96B"/>
</g>
<defs>
<filter id="filter0_d_34_3" x="0.559998" y="0.703979" width="335.286" height="63.296" filterUnits="userSpaceOnUse" color-interpolation-filters="sRGB">
<feFlood flood-opacity="0" result="BackgroundImageFix"/>
<feColorMatrix in="SourceAlpha" type="matrix" values="0 0 0 0 0 0 0 0 0 0 0 0 0 0 0 0 0 0 127 0" result="hardAlpha"/>
<feOffset/>
<feGaussianBlur stdDeviation="2"/>
<feComposite in2="hardAlpha" operator="out"/>
<feColorMatrix type="matrix" values="0 0 0 0 0.192157 0 0 0 0 0.662745 0 0 0 0 0.419608 0 0 0 1 0"/>
<feBlend mode="normal" in2="BackgroundImageFix" result="effect1_dropShadow_34_3"/>
<feBlend mode="normal" in="SourceGraphic" in2="effect1_dropShadow_34_3" result="shape"/>
</filter>
</defs>
</svg>
