<svg width="193" height="40" viewBox="0 0 193 40" fill="none" xmlns="http://www.w3.org/2000/svg">
<g filter="url(#filter0_d_34_3)">
<path d="M17.4 4.896H19.992V36H17.4V28.764L7.032 18.396V36H4.44V4.896H7.032V14.724L17.4 25.092V4.896ZM42.0139 7.488H29.0539V20.448H39.4219V23.04H29.0539V33.408H42.0139V36H26.4619V4.896H42.0139V7.488ZM58.8518 36C57.9638 36 57.0998 35.772 56.2598 35.316C55.4198 35.772 54.5558 36 53.6678 36C52.9478 36 52.2638 35.868 51.6158 35.604C50.9918 35.34 50.4398 34.98 49.9598 34.524C49.5038 34.044 49.1438 33.492 48.8798 32.868C48.6158 32.22 48.4838 31.536 48.4838 30.816V4.896H51.0758V30.816C51.0758 31.512 51.3278 32.124 51.8318 32.652C52.3598 33.156 52.9718 33.408 53.6678 33.408C54.1478 33.408 54.5798 33.288 54.9638 33.048V17.856H57.5558V33.048C57.9398 33.288 58.3718 33.408 58.8518 33.408C59.5478 33.408 60.1478 33.156 60.6518 32.652C61.1798 32.124 61.4438 31.512 61.4438 30.816V4.896H64.0358V30.816C64.0358 31.536 63.8918 32.22 63.6038 32.868C63.3398 33.492 62.9678 34.044 62.4878 34.524C62.0318 34.98 61.4918 35.34 60.8678 35.604C60.2438 35.868 59.5718 36 58.8518 36ZM95.2666 36C94.3786 36 93.5146 35.772 92.6746 35.316C91.8346 35.772 90.9706 36 90.0826 36C89.3626 36 88.6786 35.868 88.0306 35.604C87.4066 35.34 86.8546 34.98 86.3746 34.524C85.9186 34.044 85.5586 33.492 85.2946 32.868C85.0306 32.22 84.8986 31.536 84.8986 30.816V4.896H87.4906V30.816C87.4906 31.512 87.7426 32.124 88.2466 32.652C88.7746 33.156 89.3866 33.408 90.0826 33.408C90.5626 33.408 90.9946 33.288 91.3786 33.048V17.856H93.9706V33.048C94.3546 33.288 94.7866 33.408 95.2666 33.408C95.9626 33.408 96.5626 33.156 97.0666 32.652C97.5946 32.124 97.8586 31.512 97.8586 30.816V4.896H100.451V30.816C100.451 31.536 100.307 32.22 100.019 32.868C99.7546 33.492 99.3826 34.044 98.9026 34.524C98.4466 34.98 97.9066 35.34 97.2826 35.604C96.6586 35.868 95.9866 36 95.2666 36ZM117.288 4.896C118.008 4.896 118.68 5.04 119.304 5.328C119.928 5.592 120.468 5.964 120.924 6.444C121.404 6.9 121.776 7.44 122.04 8.064C122.328 8.688 122.472 9.36 122.472 10.08V30.816C122.472 31.536 122.328 32.22 122.04 32.868C121.776 33.492 121.404 34.044 120.924 34.524C120.468 34.98 119.928 35.34 119.304 35.604C118.68 35.868 118.008 36 117.288 36H112.104C111.384 36 110.7 35.868 110.052 35.604C109.428 35.34 108.876 34.98 108.396 34.524C107.94 34.044 107.58 33.492 107.316 32.868C107.052 32.22 106.92 31.536 106.92 30.816V10.08C106.92 9.36 107.052 8.688 107.316 8.064C107.58 7.44 107.94 6.9 108.396 6.444C108.876 5.964 109.428 5.592 110.052 5.328C110.7 5.04 111.384 4.896 112.104 4.896H117.288ZM119.88 10.08C119.88 9.384 119.616 8.784 119.088 8.28C118.584 7.752 117.984 7.488 117.288 7.488H112.104C111.408 7.488 110.796 7.752 110.268 8.28C109.764 8.784 109.512 9.384 109.512 10.08V30.816C109.512 31.512 109.764 32.124 110.268 32.652C110.796 33.156 111.408 33.408 112.104 33.408H117.288C117.984 33.408 118.584 33.156 119.088 32.652C119.616 32.124 119.88 31.512 119.88 30.816V10.08ZM144.494 17.856C144.494 18.6 144.338 19.32 144.026 20.016C143.714 20.688 143.282 21.264 142.73 21.744C143.282 22.224 143.714 22.812 144.026 23.508C144.338 24.18 144.494 24.888 144.494 25.632V36H141.902V25.632C141.902 24.936 141.638 24.336 141.11 23.832C140.606 23.304 140.006 23.04 139.31 23.04H131.534V36H128.942V4.896H139.31C140.03 4.896 140.702 5.04 141.326 5.328C141.95 5.592 142.49 5.964 142.946 6.444C143.426 6.9 143.798 7.44 144.062 8.064C144.35 8.688 144.494 9.36 144.494 10.08V17.856ZM139.31 20.448C140.006 20.448 140.606 20.196 141.11 19.692C141.638 19.164 141.902 18.552 141.902 17.856V10.08C141.902 9.384 141.638 8.784 141.11 8.28C140.606 7.752 140.006 7.488 139.31 7.488H131.534V20.448H139.31ZM153.556 33.408H166.516V36H150.964V4.896H153.556V33.408ZM183.354 4.896C184.074 4.896 184.746 5.04 185.37 5.328C185.994 5.592 186.534 5.964 186.99 6.444C187.47 6.9 187.842 7.44 188.106 8.064C188.394 8.688 188.538 9.36 188.538 10.08V30.816C188.538 31.536 188.394 32.208 188.106 32.832C187.842 33.456 187.47 34.008 186.99 34.488C186.534 34.944 185.994 35.316 185.37 35.604C184.746 35.868 184.074 36 183.354 36H172.986V4.896H183.354ZM185.946 10.08C185.946 9.384 185.682 8.784 185.154 8.28C184.65 7.752 184.05 7.488 183.354 7.488H175.578V33.408H183.354C184.05 33.408 184.65 33.156 185.154 32.652C185.682 32.124 185.946 31.512 185.946 30.816V10.08Z" fill="#FDFFFF"/>
<path d="M17.4 4.896V4.496H17V4.896H17.4ZM19.992 4.896H20.392V4.496H19.992V4.896ZM19.992 36V36.4H20.392V36H19.992ZM17.4 36H17V36.4H17.4V36ZM17.4 28.764H17.8V28.5983L17.6828 28.4812L17.4 28.764ZM7.032 18.396L7.31484 18.1132L6.632 17.4303V18.396H7.032ZM7.032 36V36.4H7.432V36H7.032ZM4.44 36H4.04V36.4H4.44V36ZM4.44 4.896V4.496H4.04V4.896H4.44ZM7.032 4.896H7.432V4.496H7.032V4.896ZM7.032 14.724H6.632V14.8897L6.74916 15.0068L7.032 14.724ZM17.4 25.092L17.1172 25.3748L17.8 26.0577V25.092H17.4ZM17.4 5.296H19.992V4.496H17.4V5.296ZM19.592 4.896V36H20.392V4.896H19.592ZM19.992 35.6H17.4V36.4H19.992V35.6ZM17.8 36V28.764H17V36H17.8ZM17.6828 28.4812L7.31484 18.1132L6.74916 18.6788L17.1172 29.0468L17.6828 28.4812ZM6.632 18.396V36H7.432V18.396H6.632ZM7.032 35.6H4.44V36.4H7.032V35.6ZM4.84 36V4.896H4.04V36H4.84ZM4.44 5.296H7.032V4.496H4.44V5.296ZM6.632 4.896V14.724H7.432V4.896H6.632ZM6.74916 15.0068L17.1172 25.3748L17.6828 24.8092L7.31484 14.4412L6.74916 15.0068ZM17.8 25.092V4.896H17V25.092H17.8ZM42.0139 7.488V7.888H42.4139V7.488H42.0139ZM29.0539 7.488V7.088H28.6539V7.488H29.0539ZM29.0539 20.448H28.6539V20.848H29.0539V20.448ZM39.4219 20.448H39.8219V20.048H39.4219V20.448ZM39.4219 23.04V23.44H39.8219V23.04H39.4219ZM29.0539 23.04V22.64H28.6539V23.04H29.0539ZM29.0539 33.408H28.6539V33.808H29.0539V33.408ZM42.0139 33.408H42.4139V33.008H42.0139V33.408ZM42.0139 36V36.4H42.4139V36H42.0139ZM26.4619 36H26.0619V36.4H26.4619V36ZM26.4619 4.896V4.496H26.0619V4.896H26.4619ZM42.0139 4.896H42.4139V4.496H42.0139V4.896ZM42.0139 7.088H29.0539V7.888H42.0139V7.088ZM28.6539 7.488V20.448H29.4539V7.488H28.6539ZM29.0539 20.848H39.4219V20.048H29.0539V20.848ZM39.0219 20.448V23.04H39.8219V20.448H39.0219ZM39.4219 22.64H29.0539V23.44H39.4219V22.64ZM28.6539 23.04V33.408H29.4539V23.04H28.6539ZM29.0539 33.808H42.0139V33.008H29.0539V33.808ZM41.6139 33.408V36H42.4139V33.408H41.6139ZM42.0139 35.6H26.4619V36.4H42.0139V35.6ZM26.8619 36V4.896H26.0619V36H26.8619ZM26.4619 5.296H42.0139V4.496H26.4619V5.296ZM41.6139 4.896V7.488H42.4139V4.896H41.6139ZM56.2598 35.316L56.4506 34.9645L56.2598 34.8609L56.0689 34.9645L56.2598 35.316ZM51.6158 35.604L51.4599 35.9724L51.4648 35.9744L51.6158 35.604ZM49.9598 34.524L49.6698 34.7995L49.6768 34.8069L49.6843 34.814L49.9598 34.524ZM48.8798 32.868L48.5093 33.0189L48.5114 33.0239L48.8798 32.868ZM48.4838 4.896V4.496H48.0838V4.896H48.4838ZM51.0758 4.896H51.4758V4.496H51.0758V4.896ZM51.8318 32.652L51.5424 32.9282L51.5488 32.9349L51.5556 32.9413L51.8318 32.652ZM54.9638 33.048L55.1758 33.3872L55.3638 33.2697V33.048H54.9638ZM54.9638 17.856V17.456H54.5638V17.856H54.9638ZM57.5558 17.856H57.9558V17.456H57.5558V17.856ZM57.5558 33.048H57.1558V33.2697L57.3438 33.3872L57.5558 33.048ZM60.6518 32.652L60.9346 32.9348L60.9346 32.9348L60.6518 32.652ZM61.4438 4.896V4.496H61.0438V4.896H61.4438ZM64.0358 4.896H64.4358V4.496H64.0358V4.896ZM63.6038 32.868L63.2382 32.7055L63.2354 32.7121L63.6038 32.868ZM62.4878 34.524L62.2049 34.2412L62.2049 34.2412L62.4878 34.524ZM60.8678 35.604L60.7119 35.2356L60.7119 35.2356L60.8678 35.604ZM58.8518 35.6C58.0354 35.6 57.2366 35.3912 56.4506 34.9645L56.0689 35.6675C56.9629 36.1528 57.8921 36.4 58.8518 36.4V35.6ZM56.0689 34.9645C55.2829 35.3912 54.4841 35.6 53.6678 35.6V36.4C54.6275 36.4 55.5566 36.1528 56.4506 35.6675L56.0689 34.9645ZM53.6678 35.6C52.998 35.6 52.3654 35.4775 51.7667 35.2336L51.4648 35.9744C52.1622 36.2585 52.8975 36.4 53.6678 36.4V35.6ZM51.7716 35.2356C51.1908 34.9899 50.6796 34.6561 50.2353 34.234L49.6843 34.814C50.1999 35.3039 50.7927 35.6901 51.4599 35.9724L51.7716 35.2356ZM50.2498 34.2485C49.8276 33.8042 49.4939 33.2929 49.2481 32.7121L48.5114 33.0239C48.7936 33.6911 49.1799 34.2838 49.6698 34.7995L50.2498 34.2485ZM49.2502 32.7171C49.0063 32.1184 48.8838 31.4858 48.8838 30.816H48.0838C48.0838 31.5862 48.2252 32.3216 48.5093 33.0189L49.2502 32.7171ZM48.8838 30.816V4.896H48.0838V30.816H48.8838ZM48.4838 5.296H51.0758V4.496H48.4838V5.296ZM50.6758 4.896V30.816H51.4758V4.896H50.6758ZM50.6758 30.816C50.6758 31.6203 50.9712 32.3298 51.5424 32.9282L52.1211 32.3758C51.6843 31.9182 51.4758 31.4037 51.4758 30.816H50.6758ZM51.5556 32.9413C52.154 33.5125 52.8635 33.808 53.6678 33.808V33.008C53.08 33.008 52.5655 32.7995 52.1079 32.3627L51.5556 32.9413ZM53.6678 33.808C54.218 33.808 54.7243 33.6694 55.1758 33.3872L54.7518 32.7088C54.4352 32.9066 54.0775 33.008 53.6678 33.008V33.808ZM55.3638 33.048V17.856H54.5638V33.048H55.3638ZM54.9638 18.256H57.5558V17.456H54.9638V18.256ZM57.1558 17.856V33.048H57.9558V17.856H57.1558ZM57.3438 33.3872C57.7952 33.6694 58.3015 33.808 58.8518 33.808V33.008C58.442 33.008 58.0843 32.9066 57.7678 32.7088L57.3438 33.3872ZM58.8518 33.808C59.6567 33.808 60.3576 33.5118 60.9346 32.9348L60.3689 32.3692C59.9379 32.8002 59.4388 33.008 58.8518 33.008V33.808ZM60.9346 32.9348C61.5316 32.3379 61.8438 31.6263 61.8438 30.816H61.0438C61.0438 31.3977 60.8279 31.9101 60.3689 32.3692L60.9346 32.9348ZM61.8438 30.816V4.896H61.0438V30.816H61.8438ZM61.4438 5.296H64.0358V4.496H61.4438V5.296ZM63.6358 4.896V30.816H64.4358V4.896H63.6358ZM63.6358 30.816C63.6358 31.4809 63.5031 32.1095 63.2382 32.7055L63.9693 33.0305C64.2804 32.3305 64.4358 31.5911 64.4358 30.816H63.6358ZM63.2354 32.7121C62.9915 33.2886 62.6486 33.7975 62.2049 34.2412L62.7706 34.8068C63.2869 34.2905 63.688 33.6954 63.9721 33.0239L63.2354 32.7121ZM62.2049 34.2412C61.7872 34.6589 61.2909 34.9907 60.7119 35.2356L61.0236 35.9724C61.6926 35.6893 62.2763 35.3011 62.7706 34.8068L62.2049 34.2412ZM60.7119 35.2356C60.1402 35.4775 59.5216 35.6 58.8518 35.6V36.4C59.6219 36.4 60.3473 36.2585 61.0236 35.9724L60.7119 35.2356ZM92.6746 35.316L92.8654 34.9645L92.6746 34.8609L92.4838 34.9645L92.6746 35.316ZM88.0306 35.604L87.8747 35.9724L87.8797 35.9744L88.0306 35.604ZM86.3746 34.524L86.0846 34.7995L86.0917 34.8069L86.0991 34.814L86.3746 34.524ZM85.2946 32.868L84.9241 33.0189L84.9262 33.0239L85.2946 32.868ZM84.8986 4.896V4.496H84.4986V4.896H84.8986ZM87.4906 4.896H87.8906V4.496H87.4906V4.896ZM88.2466 32.652L87.9573 32.9282L87.9637 32.9349L87.9704 32.9413L88.2466 32.652ZM91.3786 33.048L91.5906 33.3872L91.7786 33.2697V33.048H91.3786ZM91.3786 17.856V17.456H90.9786V17.856H91.3786ZM93.9706 17.856H94.3706V17.456H93.9706V17.856ZM93.9706 33.048H93.5706V33.2697L93.7586 33.3872L93.9706 33.048ZM97.0666 32.652L97.3494 32.9348L97.3494 32.9348L97.0666 32.652ZM97.8586 4.896V4.496H97.4586V4.896H97.8586ZM100.451 4.896H100.851V4.496H100.451V4.896ZM100.019 32.868L99.653 32.7055L99.6502 32.7121L100.019 32.868ZM98.9026 34.524L98.6198 34.2412L98.6198 34.2412L98.9026 34.524ZM97.2826 35.604L97.1267 35.2356L97.1267 35.2356L97.2826 35.604ZM95.2666 35.6C94.4503 35.6 93.6514 35.3912 92.8654 34.9645L92.4838 35.6675C93.3777 36.1528 94.3069 36.4 95.2666 36.4V35.6ZM92.4838 34.9645C91.6977 35.3912 90.8989 35.6 90.0826 35.6V36.4C91.0423 36.4 91.9714 36.1528 92.8654 35.6675L92.4838 34.9645ZM90.0826 35.6C89.4128 35.6 88.7802 35.4775 88.1815 35.2336L87.8797 35.9744C88.577 36.2585 89.3124 36.4 90.0826 36.4V35.6ZM88.1865 35.2356C87.6057 34.9899 87.0944 34.6561 86.6501 34.234L86.0991 34.814C86.6148 35.3039 87.2075 35.6901 87.8747 35.9724L88.1865 35.2356ZM86.6646 34.2485C86.2425 33.8042 85.9087 33.2929 85.663 32.7121L84.9262 33.0239C85.2085 33.6911 85.5947 34.2838 86.0846 34.7995L86.6646 34.2485ZM85.665 32.7171C85.4211 32.1184 85.2986 31.4858 85.2986 30.816H84.4986C84.4986 31.5862 84.6401 32.3216 84.9242 33.0189L85.665 32.7171ZM85.2986 30.816V4.896H84.4986V30.816H85.2986ZM84.8986 5.296H87.4906V4.496H84.8986V5.296ZM87.0906 4.896V30.816H87.8906V4.896H87.0906ZM87.0906 30.816C87.0906 31.6203 87.3861 32.3298 87.9573 32.9282L88.5359 32.3758C88.0991 31.9182 87.8906 31.4037 87.8906 30.816H87.0906ZM87.9704 32.9413C88.5688 33.5125 89.2783 33.808 90.0826 33.808V33.008C89.4949 33.008 88.9804 32.7995 88.5228 32.3627L87.9704 32.9413ZM90.0826 33.808C90.6329 33.808 91.1391 33.6694 91.5906 33.3872L91.1666 32.7088C90.85 32.9066 90.4923 33.008 90.0826 33.008V33.808ZM91.7786 33.048V17.856H90.9786V33.048H91.7786ZM91.3786 18.256H93.9706V17.456H91.3786V18.256ZM93.5706 17.856V33.048H94.3706V17.856H93.5706ZM93.7586 33.3872C94.21 33.6694 94.7163 33.808 95.2666 33.808V33.008C94.8569 33.008 94.4992 32.9066 94.1826 32.7088L93.7586 33.3872ZM95.2666 33.808C96.0715 33.808 96.7724 33.5118 97.3494 32.9348L96.7838 32.3692C96.3527 32.8002 95.8537 33.008 95.2666 33.008V33.808ZM97.3494 32.9348C97.9464 32.3379 98.2586 31.6263 98.2586 30.816H97.4586C97.4586 31.3977 97.2428 31.9101 96.7838 32.3692L97.3494 32.9348ZM98.2586 30.816V4.896H97.4586V30.816H98.2586ZM97.8586 5.296H100.451V4.496H97.8586V5.296ZM100.051 4.896V30.816H100.851V4.896H100.051ZM100.051 30.816C100.051 31.4809 99.918 32.1095 99.6531 32.7055L100.384 33.0305C100.695 32.3305 100.851 31.5911 100.851 30.816H100.051ZM99.6502 32.7121C99.4063 33.2886 99.0634 33.7975 98.6198 34.2412L99.1854 34.8068C99.7018 34.2905 100.103 33.6954 100.387 33.0239L99.6502 32.7121ZM98.6198 34.2412C98.202 34.6589 97.7057 34.9907 97.1267 35.2356L97.4385 35.9724C98.1075 35.6893 98.6912 35.3011 99.1854 34.8068L98.6198 34.2412ZM97.1267 35.2356C96.5551 35.4775 95.9365 35.6 95.2666 35.6V36.4C96.0367 36.4 96.7621 36.2585 97.4385 35.9724L97.1267 35.2356ZM119.304 5.328L119.137 5.69137L119.149 5.69638L119.304 5.328ZM120.924 6.444L120.634 6.7195L120.642 6.72693L120.649 6.734L120.924 6.444ZM122.04 8.064L121.672 8.21994L121.677 8.23162L122.04 8.064ZM122.04 32.868L121.675 32.7055L121.672 32.7121L122.04 32.868ZM120.924 34.524L120.642 34.2412L120.642 34.2412L120.924 34.524ZM119.304 35.604L119.149 35.2356L119.149 35.2356L119.304 35.604ZM110.052 35.604L109.897 35.9724L109.902 35.9744L110.052 35.604ZM108.396 34.524L108.106 34.7995L108.114 34.8069L108.121 34.814L108.396 34.524ZM107.316 32.868L106.946 33.0189L106.948 33.0239L107.316 32.868ZM107.316 8.064L107.685 8.21986L107.685 8.21986L107.316 8.064ZM108.396 6.444L108.114 6.16116L108.114 6.16116L108.396 6.444ZM110.052 5.328L110.208 5.69644L110.215 5.69352L110.052 5.328ZM119.088 8.28L118.799 8.55619L118.806 8.56292L118.812 8.56934L119.088 8.28ZM110.268 8.28L109.986 7.99716L109.986 7.99716L110.268 8.28ZM110.268 32.652L109.979 32.9282L109.986 32.9349L109.992 32.9413L110.268 32.652ZM119.088 32.652L119.371 32.9348L119.371 32.9348L119.088 32.652ZM117.288 5.296C117.953 5.296 118.568 5.42859 119.137 5.69118L119.472 4.96481C118.793 4.6514 118.064 4.496 117.288 4.496V5.296ZM119.149 5.69638C119.723 5.93948 120.217 6.28029 120.634 6.7195L121.214 6.1685C120.72 5.6477 120.134 5.24451 119.46 4.95961L119.149 5.69638ZM120.649 6.734C121.088 7.15124 121.429 7.64526 121.672 8.21985L122.409 7.90814C122.124 7.23474 121.721 6.64875 121.2 6.154L120.649 6.734ZM121.677 8.23162C121.94 8.80056 122.072 9.41506 122.072 10.08H122.872C122.872 9.30494 122.717 8.57543 122.404 7.89638L121.677 8.23162ZM122.072 10.08V30.816H122.872V10.08H122.072ZM122.072 30.816C122.072 31.4809 121.94 32.1095 121.675 32.7055L122.406 33.0305C122.717 32.3305 122.872 31.5911 122.872 30.816H122.072ZM121.672 32.7121C121.428 33.2886 121.085 33.7975 120.642 34.2412L121.207 34.8068C121.724 34.2905 122.125 33.6954 122.409 33.0239L121.672 32.7121ZM120.642 34.2412C120.224 34.6589 119.728 34.9907 119.149 35.2356L119.46 35.9724C120.129 35.6893 120.713 35.3011 121.207 34.8068L120.642 34.2412ZM119.149 35.2356C118.577 35.4775 117.958 35.6 117.288 35.6V36.4C118.059 36.4 118.784 36.2585 119.46 35.9724L119.149 35.2356ZM117.288 35.6H112.104V36.4H117.288V35.6ZM112.104 35.6C111.435 35.6 110.802 35.4775 110.203 35.2336L109.902 35.9744C110.599 36.2585 111.334 36.4 112.104 36.4V35.6ZM110.208 35.2356C109.628 34.9899 109.116 34.6561 108.672 34.234L108.121 34.814C108.637 35.3039 109.229 35.6901 109.897 35.9724L110.208 35.2356ZM108.686 34.2485C108.264 33.8042 107.931 33.2929 107.685 32.7121L106.948 33.0239C107.23 33.6911 107.617 34.2838 108.106 34.7995L108.686 34.2485ZM107.687 32.7171C107.443 32.1184 107.32 31.4858 107.32 30.816H106.52C106.52 31.5862 106.662 32.3216 106.946 33.0189L107.687 32.7171ZM107.32 30.816V10.08H106.52V30.816H107.32ZM107.32 10.08C107.32 9.41014 107.443 8.7915 107.685 8.21986L106.948 7.90814C106.662 8.5845 106.52 9.30986 106.52 10.08H107.32ZM107.685 8.21986C107.93 7.64086 108.262 7.14459 108.679 6.72684L108.114 6.16116C107.619 6.65541 107.231 7.23914 106.948 7.90814L107.685 8.21986ZM108.679 6.72684C109.123 6.2832 109.632 5.94028 110.208 5.69638L109.897 4.95961C109.225 5.24372 108.63 5.6448 108.114 6.16116L108.679 6.72684ZM110.215 5.69352C110.811 5.42861 111.44 5.296 112.104 5.296V4.496C111.329 4.496 110.59 4.65139 109.89 4.96247L110.215 5.69352ZM112.104 5.296H117.288V4.496H112.104V5.296ZM120.28 10.08C120.28 9.26885 119.967 8.56601 119.365 7.99066L118.812 8.56934C119.266 9.00199 119.48 9.49915 119.48 10.08H120.28ZM119.378 8.00381C118.802 7.40106 118.1 7.088 117.288 7.088V7.888C117.869 7.888 118.366 8.10294 118.799 8.55619L119.378 8.00381ZM117.288 7.088H112.104V7.888H117.288V7.088ZM112.104 7.088C111.294 7.088 110.583 7.40019 109.986 7.99716L110.551 8.56284C111.01 8.10381 111.523 7.888 112.104 7.888V7.088ZM109.986 7.99716C109.409 8.57415 109.112 9.27508 109.112 10.08H109.912C109.912 9.49291 110.12 8.99385 110.551 8.56284L109.986 7.99716ZM109.112 10.08V30.816H109.912V10.08H109.112ZM109.112 30.816C109.112 31.6203 109.408 32.3298 109.979 32.9282L110.558 32.3758C110.121 31.9182 109.912 31.4037 109.912 30.816H109.112ZM109.992 32.9413C110.591 33.5125 111.3 33.808 112.104 33.808V33.008C111.517 33.008 111.002 32.7995 110.545 32.3627L109.992 32.9413ZM112.104 33.808H117.288V33.008H112.104V33.808ZM117.288 33.808C118.093 33.808 118.794 33.5118 119.371 32.9348L118.806 32.3692C118.375 32.8002 117.876 33.008 117.288 33.008V33.808ZM119.371 32.9348C119.968 32.3379 120.28 31.6263 120.28 30.816H119.48C119.48 31.3977 119.265 31.9101 118.806 32.3692L119.371 32.9348ZM120.28 30.816V10.08H119.48V30.816H120.28ZM144.026 20.016L144.389 20.1845L144.391 20.1796L144.026 20.016ZM142.73 21.744L142.468 21.4422L142.121 21.744L142.468 22.0458L142.73 21.744ZM144.026 23.508L143.661 23.6716L143.664 23.6764L144.026 23.508ZM144.494 36V36.4H144.894V36H144.494ZM141.902 36H141.502V36.4H141.902V36ZM141.11 23.832L140.821 24.1082L140.827 24.1149L140.834 24.1213L141.11 23.832ZM131.534 23.04V22.64H131.134V23.04H131.534ZM131.534 36V36.4H131.934V36H131.534ZM128.942 36H128.542V36.4H128.942V36ZM128.942 4.896V4.496H128.542V4.896H128.942ZM141.326 5.328L141.159 5.69137L141.17 5.69638L141.326 5.328ZM142.946 6.444L142.656 6.7195L142.663 6.72693L142.671 6.734L142.946 6.444ZM144.062 8.064L143.694 8.21994L143.699 8.23162L144.062 8.064ZM141.11 19.692L141.393 19.9748L141.393 19.9748L141.11 19.692ZM141.11 8.28L140.821 8.55619L140.827 8.56292L140.834 8.56934L141.11 8.28ZM131.534 7.488V7.088H131.134V7.488H131.534ZM131.534 20.448H131.134V20.848H131.534V20.448ZM144.094 17.856C144.094 18.5422 143.951 19.2065 143.661 19.8524L144.391 20.1796C144.726 19.4335 144.894 18.6578 144.894 17.856H144.094ZM143.664 19.8476C143.375 20.4692 142.977 20.9996 142.468 21.4422L142.993 22.0458C143.588 21.5284 144.054 20.9068 144.389 20.1844L143.664 19.8476ZM142.468 22.0458C142.974 22.4861 143.372 23.0263 143.661 23.6716L144.391 23.3444C144.057 22.5977 143.59 21.9619 142.993 21.4422L142.468 22.0458ZM143.664 23.6764C143.951 24.2954 144.094 24.9459 144.094 25.632H144.894C144.894 24.8301 144.726 24.0646 144.389 23.3396L143.664 23.6764ZM144.094 25.632V36H144.894V25.632H144.094ZM144.494 35.6H141.902V36.4H144.494V35.6ZM142.302 36V25.632H141.502V36H142.302ZM142.302 25.632C142.302 24.8209 141.989 24.118 141.387 23.5427L140.834 24.1213C141.287 24.554 141.502 25.0511 141.502 25.632H142.302ZM141.4 23.5558C140.824 22.9531 140.121 22.64 139.31 22.64V23.44C139.891 23.44 140.388 23.6549 140.821 24.1082L141.4 23.5558ZM139.31 22.64H131.534V23.44H139.31V22.64ZM131.134 23.04V36H131.934V23.04H131.134ZM131.534 35.6H128.942V36.4H131.534V35.6ZM129.342 36V4.896H128.542V36H129.342ZM128.942 5.296H139.31V4.496H128.942V5.296ZM139.31 5.296C139.975 5.296 140.59 5.42859 141.159 5.69118L141.494 4.96481C140.815 4.6514 140.085 4.496 139.31 4.496V5.296ZM141.17 5.69638C141.745 5.93948 142.239 6.28029 142.656 6.7195L143.236 6.1685C142.742 5.6477 142.156 5.24451 141.482 4.95961L141.17 5.69638ZM142.671 6.734C143.11 7.15124 143.451 7.64526 143.694 8.21985L144.431 7.90814C144.146 7.23474 143.743 6.64875 143.222 6.154L142.671 6.734ZM143.699 8.23162C143.962 8.80056 144.094 9.41506 144.094 10.08H144.894C144.894 9.30494 144.739 8.57543 144.426 7.89638L143.699 8.23162ZM144.094 10.08V17.856H144.894V10.08H144.094ZM139.31 20.848C140.115 20.848 140.816 20.5518 141.393 19.9748L140.828 19.4092C140.396 19.8402 139.897 20.048 139.31 20.048V20.848ZM141.393 19.9748C141.99 19.3779 142.302 18.6663 142.302 17.856H141.502C141.502 18.4377 141.287 18.9501 140.828 19.4092L141.393 19.9748ZM142.302 17.856V10.08H141.502V17.856H142.302ZM142.302 10.08C142.302 9.26885 141.989 8.56601 141.387 7.99066L140.834 8.56934C141.287 9.00199 141.502 9.49915 141.502 10.08H142.302ZM141.4 8.00381C140.824 7.40106 140.121 7.088 139.31 7.088V7.888C139.891 7.888 140.388 8.10294 140.821 8.55619L141.4 8.00381ZM139.31 7.088H131.534V7.888H139.31V7.088ZM131.134 7.488V20.448H131.934V7.488H131.134ZM131.534 20.848H139.31V20.048H131.534V20.848ZM153.556 33.408H153.156V33.808H153.556V33.408ZM166.516 33.408H166.916V33.008H166.516V33.408ZM166.516 36V36.4H166.916V36H166.516ZM150.964 36H150.564V36.4H150.964V36ZM150.964 4.896V4.496H150.564V4.896H150.964ZM153.556 4.896H153.956V4.496H153.556V4.896ZM153.556 33.808H166.516V33.008H153.556V33.808ZM166.116 33.408V36H166.916V33.408H166.116ZM166.516 35.6H150.964V36.4H166.516V35.6ZM151.364 36V4.896H150.564V36H151.364ZM150.964 5.296H153.556V4.496H150.964V5.296ZM153.156 4.896V33.408H153.956V4.896H153.156ZM185.37 5.328L185.202 5.69137L185.214 5.69638L185.37 5.328ZM186.99 6.444L186.7 6.7195L186.707 6.72693L186.715 6.734L186.99 6.444ZM188.106 8.064L187.738 8.21994L187.743 8.23162L188.106 8.064ZM188.106 32.832L187.743 32.6643L187.738 32.6761L188.106 32.832ZM186.99 34.488L186.707 34.2052L186.707 34.2052L186.99 34.488ZM185.37 35.604L185.526 35.9726L185.538 35.9672L185.37 35.604ZM172.986 36H172.586V36.4H172.986V36ZM172.986 4.896V4.496H172.586V4.896H172.986ZM185.154 8.28L184.865 8.55619L184.871 8.56292L184.878 8.56934L185.154 8.28ZM175.578 7.488V7.088H175.178V7.488H175.578ZM175.578 33.408H175.178V33.808H175.578V33.408ZM185.154 32.652L185.437 32.9348L185.437 32.9348L185.154 32.652ZM183.354 5.296C184.019 5.296 184.634 5.42859 185.202 5.69118L185.538 4.96481C184.859 4.6514 184.129 4.496 183.354 4.496V5.296ZM185.214 5.69638C185.789 5.93948 186.283 6.28029 186.7 6.7195L187.28 6.1685C186.785 5.6477 186.199 5.24451 185.526 4.95961L185.214 5.69638ZM186.715 6.734C187.154 7.15124 187.495 7.64526 187.738 8.21985L188.474 7.90814C188.19 7.23474 187.786 6.64875 187.266 6.154L186.715 6.734ZM187.743 8.23162C188.006 8.80056 188.138 9.41506 188.138 10.08H188.938C188.938 9.30494 188.783 8.57543 188.469 7.89638L187.743 8.23162ZM188.138 10.08V30.816H188.938V10.08H188.138ZM188.138 30.816C188.138 31.4809 188.006 32.0954 187.743 32.6644L188.469 32.9996C188.783 32.3206 188.938 31.5911 188.938 30.816H188.138ZM187.738 32.6761C187.494 33.2526 187.151 33.7615 186.707 34.2052L187.273 34.7708C187.789 34.2545 188.19 33.6594 188.474 32.9879L187.738 32.6761ZM186.707 34.2052C186.287 34.6257 185.786 34.9713 185.202 35.2408L185.538 35.9672C186.202 35.6607 186.781 35.2623 187.273 34.7708L186.707 34.2052ZM185.214 35.2356C184.643 35.4775 184.024 35.6 183.354 35.6V36.4C184.124 36.4 184.85 36.2585 185.526 35.9724L185.214 35.2356ZM183.354 35.6H172.986V36.4H183.354V35.6ZM173.386 36V4.896H172.586V36H173.386ZM172.986 5.296H183.354V4.496H172.986V5.296ZM186.346 10.08C186.346 9.26885 186.033 8.56601 185.43 7.99066L184.878 8.56934C185.331 9.00199 185.546 9.49915 185.546 10.08H186.346ZM185.443 8.00381C184.868 7.40106 184.165 7.088 183.354 7.088V7.888C183.935 7.888 184.432 8.10294 184.865 8.55619L185.443 8.00381ZM183.354 7.088H175.578V7.888H183.354V7.088ZM175.178 7.488V33.408H175.978V7.488H175.178ZM175.578 33.808H183.354V33.008H175.578V33.808ZM183.354 33.808C184.159 33.808 184.86 33.5118 185.437 32.9348L184.871 32.3692C184.44 32.8002 183.941 33.008 183.354 33.008V33.808ZM185.437 32.9348C186.034 32.3379 186.346 31.6263 186.346 30.816H185.546C185.546 31.3977 185.33 31.9101 184.871 32.3692L185.437 32.9348ZM186.346 30.816V10.08H185.546V30.816H186.346Z" fill="#31A96B"/>
</g>
<defs>
<filter id="filter0_d_34_3" x="0.440002" y="0.895996" width="192.098" height="39.104" filterUnits="userSpaceOnUse" color-interpolation-filters="sRGB">
<feFlood flood-opacity="0" result="BackgroundImageFix"/>
<feColorMatrix in="SourceAlpha" type="matrix" values="0 0 0 0 0 0 0 0 0 0 0 0 0 0 0 0 0 0 127 0" result="hardAlpha"/>
<feOffset/>
<feGaussianBlur stdDeviation="2"/>
<feComposite in2="hardAlpha" operator="out"/>
<feColorMatrix type="matrix" values="0 0 0 0 0.192157 0 0 0 0 0.662745 0 0 0 0 0.419608 0 0 0 1 0"/>
<feBlend mode="normal" in2="BackgroundImageFix" result="effect1_dropShadow_34_3"/>
<feBlend mode="normal" in="SourceGraphic" in2="effect1_dropShadow_34_3" result="shape"/>
</filter>
</defs>
</svg>
