<svg width="380" height="73" viewBox="0 0 380 73" fill="none" xmlns="http://www.w3.org/2000/svg">
<g filter="url(#filter0_d_34_3)">
<path d="M29.8 3.792H34.984V66H29.8V51.528L9.064 30.792V66H3.88V3.792H9.064V23.448L29.8 44.184V3.792ZM79.0278 8.976H53.1078V34.896H73.8438V40.08H53.1078V60.816H79.0278V66H47.9238V3.792H79.0278V8.976ZM112.704 66C110.928 66 109.2 65.544 107.52 64.632C105.84 65.544 104.112 66 102.336 66C100.896 66 99.5275 65.736 98.2315 65.208C96.9835 64.68 95.8795 63.96 94.9195 63.048C94.0075 62.088 93.2875 60.984 92.7595 59.736C92.2315 58.44 91.9675 57.072 91.9675 55.632V3.792H97.1515V55.632C97.1515 57.024 97.6555 58.248 98.6635 59.304C99.7195 60.312 100.944 60.816 102.336 60.816C103.296 60.816 104.16 60.576 104.928 60.096V29.712H110.112V60.096C110.88 60.576 111.744 60.816 112.704 60.816C114.096 60.816 115.296 60.312 116.304 59.304C117.36 58.248 117.888 57.024 117.888 55.632V3.792H123.072V55.632C123.072 57.072 122.784 58.44 122.208 59.736C121.68 60.984 120.936 62.088 119.976 63.048C119.064 63.96 117.984 64.68 116.736 65.208C115.488 65.736 114.144 66 112.704 66ZM185.533 66C183.757 66 182.029 65.544 180.349 64.632C178.669 65.544 176.941 66 175.165 66C173.725 66 172.357 65.736 171.061 65.208C169.813 64.68 168.709 63.96 167.749 63.048C166.837 62.088 166.117 60.984 165.589 59.736C165.061 58.44 164.797 57.072 164.797 55.632V3.792H169.981V55.632C169.981 57.024 170.485 58.248 171.493 59.304C172.549 60.312 173.773 60.816 175.165 60.816C176.125 60.816 176.989 60.576 177.757 60.096V29.712H182.941V60.096C183.709 60.576 184.573 60.816 185.533 60.816C186.925 60.816 188.125 60.312 189.133 59.304C190.189 58.248 190.717 57.024 190.717 55.632V3.792H195.901V55.632C195.901 57.072 195.613 58.44 195.037 59.736C194.509 60.984 193.765 62.088 192.805 63.048C191.893 63.96 190.813 64.68 189.565 65.208C188.317 65.736 186.973 66 185.533 66ZM229.577 3.792C231.017 3.792 232.361 4.08 233.609 4.656C234.857 5.184 235.937 5.928 236.849 6.888C237.809 7.8 238.553 8.88 239.081 10.128C239.657 11.376 239.945 12.72 239.945 14.16V55.632C239.945 57.072 239.657 58.44 239.081 59.736C238.553 60.984 237.809 62.088 236.849 63.048C235.937 63.96 234.857 64.68 233.609 65.208C232.361 65.736 231.017 66 229.577 66H219.209C217.769 66 216.401 65.736 215.105 65.208C213.857 64.68 212.753 63.96 211.793 63.048C210.881 62.088 210.161 60.984 209.633 59.736C209.105 58.44 208.841 57.072 208.841 55.632V14.16C208.841 12.72 209.105 11.376 209.633 10.128C210.161 8.88 210.881 7.8 211.793 6.888C212.753 5.928 213.857 5.184 215.105 4.656C216.401 4.08 217.769 3.792 219.209 3.792H229.577ZM234.761 14.16C234.761 12.768 234.233 11.568 233.177 10.56C232.169 9.504 230.969 8.976 229.577 8.976H219.209C217.817 8.976 216.593 9.504 215.537 10.56C214.529 11.568 214.025 12.768 214.025 14.16V55.632C214.025 57.024 214.529 58.248 215.537 59.304C216.593 60.312 217.817 60.816 219.209 60.816H229.577C230.969 60.816 232.169 60.312 233.177 59.304C234.233 58.248 234.761 57.024 234.761 55.632V14.16ZM283.989 29.712C283.989 31.2 283.677 32.64 283.053 34.032C282.429 35.376 281.565 36.528 280.461 37.488C281.565 38.448 282.429 39.624 283.053 41.016C283.677 42.36 283.989 43.776 283.989 45.264V66H278.805V45.264C278.805 43.872 278.277 42.672 277.221 41.664C276.213 40.608 275.013 40.08 273.621 40.08H258.069V66H252.885V3.792H273.621C275.061 3.792 276.405 4.08 277.653 4.656C278.901 5.184 279.981 5.928 280.893 6.888C281.853 7.8 282.597 8.88 283.125 10.128C283.701 11.376 283.989 12.72 283.989 14.16V29.712ZM273.621 34.896C275.013 34.896 276.213 34.392 277.221 33.384C278.277 32.328 278.805 31.104 278.805 29.712V14.16C278.805 12.768 278.277 11.568 277.221 10.56C276.213 9.504 275.013 8.976 273.621 8.976H258.069V34.896H273.621ZM302.112 60.816H328.032V66H296.928V3.792H302.112V60.816ZM361.708 3.792C363.148 3.792 364.492 4.08 365.74 4.656C366.988 5.184 368.068 5.928 368.98 6.888C369.94 7.8 370.684 8.88 371.212 10.128C371.788 11.376 372.076 12.72 372.076 14.16V55.632C372.076 57.072 371.788 58.416 371.212 59.664C370.684 60.912 369.94 62.016 368.98 62.976C368.068 63.888 366.988 64.632 365.74 65.208C364.492 65.736 363.148 66 361.708 66H340.972V3.792H361.708ZM366.892 14.16C366.892 12.768 366.364 11.568 365.308 10.56C364.3 9.504 363.1 8.976 361.708 8.976H346.156V60.816H361.708C363.1 60.816 364.3 60.312 365.308 59.304C366.364 58.248 366.892 57.024 366.892 55.632V14.16Z" fill="#444388"/>
</g>
<defs>
<filter id="filter0_d_34_3" x="0.880005" y="0.791992" width="378.196" height="72.208" filterUnits="userSpaceOnUse" color-interpolation-filters="sRGB">
<feFlood flood-opacity="0" result="BackgroundImageFix"/>
<feColorMatrix in="SourceAlpha" type="matrix" values="0 0 0 0 0 0 0 0 0 0 0 0 0 0 0 0 0 0 127 0" result="hardAlpha"/>
<feOffset dx="2" dy="2"/>
<feGaussianBlur stdDeviation="2.5"/>
<feComposite in2="hardAlpha" operator="out"/>
<feColorMatrix type="matrix" values="0 0 0 0 0.841844 0 0 0 0 0.259219 0 0 0 0 0.9875 0 0 0 1 0"/>
<feBlend mode="normal" in2="BackgroundImageFix" result="effect1_dropShadow_34_3"/>
<feBlend mode="normal" in="SourceGraphic" in2="effect1_dropShadow_34_3" result="shape"/>
</filter>
</defs>
</svg>

