<svg width="132" height="29" viewBox="0 0 132 29" fill="none" xmlns="http://www.w3.org/2000/svg">
<g filter="url(#filter0_d_34_3)">
<path d="M13.6 4.264H15.328V25H13.6V20.176L6.688 13.264V25H4.96V4.264H6.688V10.816L13.6 17.728V4.264ZM30.0093 5.992H21.3692V14.632H28.2812V16.36H21.3692V23.272H30.0093V25H19.6412V4.264H30.0093V5.992ZM41.2345 25C40.6425 25 40.0665 24.848 39.5065 24.544C38.9465 24.848 38.3705 25 37.7785 25C37.2985 25 36.8425 24.912 36.4105 24.736C35.9945 24.56 35.6265 24.32 35.3065 24.016C35.0025 23.696 34.7625 23.328 34.5865 22.912C34.4105 22.48 34.3225 22.024 34.3225 21.544V4.264H36.0505V21.544C36.0505 22.008 36.2185 22.416 36.5545 22.768C36.9065 23.104 37.3145 23.272 37.7785 23.272C38.0985 23.272 38.3865 23.192 38.6425 23.032V12.904H40.3705V23.032C40.6265 23.192 40.9145 23.272 41.2345 23.272C41.6985 23.272 42.0985 23.104 42.4345 22.768C42.7865 22.416 42.9625 22.008 42.9625 21.544V4.264H44.6905V21.544C44.6905 22.024 44.5945 22.48 44.4025 22.912C44.2265 23.328 43.9785 23.696 43.6585 24.016C43.3545 24.32 42.9945 24.56 42.5785 24.736C42.1625 24.912 41.7145 25 41.2345 25ZM65.5111 25C64.9191 25 64.3431 24.848 63.7831 24.544C63.2231 24.848 62.6471 25 62.0551 25C61.5751 25 61.1191 24.912 60.6871 24.736C60.2711 24.56 59.9031 24.32 59.5831 24.016C59.2791 23.696 59.0391 23.328 58.8631 22.912C58.6871 22.48 58.5991 22.024 58.5991 21.544V4.264H60.3271V21.544C60.3271 22.008 60.4951 22.416 60.8311 22.768C61.1831 23.104 61.5911 23.272 62.0551 23.272C62.3751 23.272 62.6631 23.192 62.9191 23.032V12.904H64.6471V23.032C64.9031 23.192 65.1911 23.272 65.5111 23.272C65.9751 23.272 66.3751 23.104 66.7111 22.768C67.0631 22.416 67.2391 22.008 67.2391 21.544V4.264H68.9671V21.544C68.9671 22.024 68.8711 22.48 68.6791 22.912C68.5031 23.328 68.2551 23.696 67.9351 24.016C67.6311 24.32 67.2711 24.56 66.8551 24.736C66.4391 24.912 65.9911 25 65.5111 25ZM80.1923 4.264C80.6723 4.264 81.1203 4.36 81.5363 4.552C81.9523 4.728 82.3123 4.976 82.6163 5.296C82.9363 5.6 83.1843 5.96 83.3603 6.376C83.5523 6.792 83.6483 7.24 83.6483 7.72V21.544C83.6483 22.024 83.5523 22.48 83.3603 22.912C83.1843 23.328 82.9363 23.696 82.6163 24.016C82.3123 24.32 81.9523 24.56 81.5363 24.736C81.1203 24.912 80.6723 25 80.1923 25H76.7363C76.2563 25 75.8003 24.912 75.3683 24.736C74.9523 24.56 74.5843 24.32 74.2643 24.016C73.9603 23.696 73.7203 23.328 73.5443 22.912C73.3683 22.48 73.2803 22.024 73.2803 21.544V7.72C73.2803 7.24 73.3683 6.792 73.5443 6.376C73.7203 5.96 73.9603 5.6 74.2643 5.296C74.5843 4.976 74.9523 4.728 75.3683 4.552C75.8003 4.36 76.2563 4.264 76.7363 4.264H80.1923ZM81.9203 7.72C81.9203 7.256 81.7443 6.856 81.3923 6.52C81.0563 6.168 80.6563 5.992 80.1923 5.992H76.7363C76.2723 5.992 75.8643 6.168 75.5123 6.52C75.1763 6.856 75.0083 7.256 75.0083 7.72V21.544C75.0083 22.008 75.1763 22.416 75.5123 22.768C75.8643 23.104 76.2723 23.272 76.7363 23.272H80.1923C80.6563 23.272 81.0563 23.104 81.3923 22.768C81.7443 22.416 81.9203 22.008 81.9203 21.544V7.72ZM98.3296 12.904C98.3296 13.4 98.2256 13.88 98.0176 14.344C97.8096 14.792 97.5216 15.176 97.1536 15.496C97.5216 15.816 97.8096 16.208 98.0176 16.672C98.2256 17.12 98.3296 17.592 98.3296 18.088V25H96.6016V18.088C96.6016 17.624 96.4256 17.224 96.0736 16.888C95.7376 16.536 95.3376 16.36 94.8736 16.36H89.6896V25H87.9616V4.264H94.8736C95.3536 4.264 95.8016 4.36 96.2176 4.552C96.6336 4.728 96.9936 4.976 97.2976 5.296C97.6176 5.6 97.8656 5.96 98.0416 6.376C98.2336 6.792 98.3296 7.24 98.3296 7.72V12.904ZM94.8736 14.632C95.3376 14.632 95.7376 14.464 96.0736 14.128C96.4256 13.776 96.6016 13.368 96.6016 12.904V7.72C96.6016 7.256 96.4256 6.856 96.0736 6.52C95.7376 6.168 95.3376 5.992 94.8736 5.992H89.6896V14.632H94.8736ZM104.371 23.272H113.011V25H102.643V4.264H104.371V23.272ZM124.236 4.264C124.716 4.264 125.164 4.36 125.58 4.552C125.996 4.728 126.356 4.976 126.66 5.296C126.98 5.6 127.228 5.96 127.404 6.376C127.596 6.792 127.692 7.24 127.692 7.72V21.544C127.692 22.024 127.596 22.472 127.404 22.888C127.228 23.304 126.98 23.672 126.66 23.992C126.356 24.296 125.996 24.544 125.58 24.736C125.164 24.912 124.716 25 124.236 25H117.324V4.264H124.236ZM125.964 7.72C125.964 7.256 125.788 6.856 125.436 6.52C125.1 6.168 124.7 5.992 124.236 5.992H119.052V23.272H124.236C124.7 23.272 125.1 23.104 125.436 22.768C125.788 22.416 125.964 22.008 125.964 21.544V7.72Z" fill="#FDFFFF"/>
<path d="M13.6 4.264V3.864H13.2V4.264H13.6ZM15.328 4.264H15.728V3.864H15.328V4.264ZM15.328 25V25.4H15.728V25H15.328ZM13.6 25H13.2V25.4H13.6V25ZM13.6 20.176H14V20.0103L13.8828 19.8932L13.6 20.176ZM6.688 13.264L6.97084 12.9812L6.288 12.2983V13.264H6.688ZM6.688 25V25.4H7.088V25H6.688ZM4.96 25H4.56V25.4H4.96V25ZM4.96 4.264V3.864H4.56V4.264H4.96ZM6.688 4.264H7.088V3.864H6.688V4.264ZM6.688 10.816H6.288V10.9817L6.40516 11.0988L6.688 10.816ZM13.6 17.728L13.3172 18.0108L14 18.6937V17.728H13.6ZM13.6 4.664H15.328V3.864H13.6V4.664ZM14.928 4.264V25H15.728V4.264H14.928ZM15.328 24.6H13.6V25.4H15.328V24.6ZM14 25V20.176H13.2V25H14ZM13.8828 19.8932L6.97084 12.9812L6.40516 13.5468L13.3172 20.4588L13.8828 19.8932ZM6.288 13.264V25H7.088V13.264H6.288ZM6.688 24.6H4.96V25.4H6.688V24.6ZM5.36 25V4.264H4.56V25H5.36ZM4.96 4.664H6.688V3.864H4.96V4.664ZM6.288 4.264V10.816H7.088V4.264H6.288ZM6.40516 11.0988L13.3172 18.0108L13.8828 17.4452L6.97084 10.5332L6.40516 11.0988ZM14 17.728V4.264H13.2V17.728H14ZM30.0093 5.992V6.392H30.4093V5.992H30.0093ZM21.3692 5.992V5.592H20.9692V5.992H21.3692ZM21.3692 14.632H20.9692V15.032H21.3692V14.632ZM28.2812 14.632H28.6812V14.232H28.2812V14.632ZM28.2812 16.36V16.76H28.6812V16.36H28.2812ZM21.3692 16.36V15.96H20.9692V16.36H21.3692ZM21.3692 23.272H20.9692V23.672H21.3692V23.272ZM30.0093 23.272H30.4093V22.872H30.0093V23.272ZM30.0093 25V25.4H30.4093V25H30.0093ZM19.6412 25H19.2412V25.4H19.6412V25ZM19.6412 4.264V3.864H19.2412V4.264H19.6412ZM30.0093 4.264H30.4093V3.864H30.0093V4.264ZM30.0093 5.592H21.3692V6.392H30.0093V5.592ZM20.9692 5.992V14.632H21.7692V5.992H20.9692ZM21.3692 15.032H28.2812V14.232H21.3692V15.032ZM27.8812 14.632V16.36H28.6812V14.632H27.8812ZM28.2812 15.96H21.3692V16.76H28.2812V15.96ZM20.9692 16.36V23.272H21.7692V16.36H20.9692ZM21.3692 23.672H30.0093V22.872H21.3692V23.672ZM29.6093 23.272V25H30.4093V23.272H29.6093ZM30.0093 24.6H19.6412V25.4H30.0093V24.6ZM20.0412 25V4.264H19.2412V25H20.0412ZM19.6412 4.664H30.0093V3.864H19.6412V4.664ZM29.6093 4.264V5.992H30.4093V4.264H29.6093ZM39.5065 24.544L39.6973 24.1925L39.5065 24.0889L39.3157 24.1925L39.5065 24.544ZM36.4105 24.736L36.2546 25.1044L36.2596 25.1064L36.4105 24.736ZM35.3065 24.016L35.0165 24.2915L35.0236 24.2989L35.031 24.306L35.3065 24.016ZM34.5865 22.912L34.216 23.0629L34.2181 23.0679L34.5865 22.912ZM34.3225 4.264V3.864H33.9225V4.264H34.3225ZM36.0505 4.264H36.4505V3.864H36.0505V4.264ZM36.5545 22.768L36.2652 23.0442L36.2716 23.0509L36.2783 23.0573L36.5545 22.768ZM38.6425 23.032L38.8545 23.3712L39.0425 23.2537V23.032H38.6425ZM38.6425 12.904V12.504H38.2425V12.904H38.6425ZM40.3705 12.904H40.7705V12.504H40.3705V12.904ZM40.3705 23.032H39.9705V23.2537L40.1585 23.3712L40.3705 23.032ZM42.4345 22.768L42.7173 23.0508L42.7173 23.0508L42.4345 22.768ZM42.9625 4.264V3.864H42.5625V4.264H42.9625ZM44.6905 4.264H45.0905V3.864H44.6905V4.264ZM44.4025 22.912L44.0369 22.7495L44.0341 22.7561L44.4025 22.912ZM43.6585 24.016L43.3757 23.7332L43.3757 23.7332L43.6585 24.016ZM42.5785 24.736L42.4226 24.3676L42.4226 24.3676L42.5785 24.736ZM41.2345 24.6C40.7142 24.6 40.2034 24.4672 39.6973 24.1925L39.3157 24.8955C39.9296 25.2288 40.5708 25.4 41.2345 25.4V24.6ZM39.3157 24.1925C38.8096 24.4672 38.2988 24.6 37.7785 24.6V25.4C38.4422 25.4 39.0834 25.2288 39.6973 24.8955L39.3157 24.1925ZM37.7785 24.6C37.3487 24.6 36.9441 24.5215 36.5614 24.3656L36.2596 25.1064C36.7409 25.3025 37.2483 25.4 37.7785 25.4V24.6ZM36.5664 24.3676C36.1936 24.2099 35.8663 23.9961 35.582 23.726L35.031 24.306C35.3867 24.6439 35.7954 24.9101 36.2546 25.1044L36.5664 24.3676ZM35.5965 23.7405C35.3264 23.4562 35.1126 23.1289 34.9549 22.7561L34.2181 23.0679C34.4124 23.5271 34.6786 23.9358 35.0165 24.2915L35.5965 23.7405ZM34.9569 22.7611C34.801 22.3784 34.7225 21.9738 34.7225 21.544H33.9225C33.9225 22.0742 34.02 22.5816 34.2161 23.0629L34.9569 22.7611ZM34.7225 21.544V4.264H33.9225V21.544H34.7225ZM34.3225 4.664H36.0505V3.864H34.3225V4.664ZM35.6505 4.264V21.544H36.4505V4.264H35.6505ZM35.6505 21.544C35.6505 22.1163 35.862 22.6218 36.2652 23.0442L36.8438 22.4918C36.575 22.2102 36.4505 21.8997 36.4505 21.544H35.6505ZM36.2783 23.0573C36.7007 23.4605 37.2062 23.672 37.7785 23.672V22.872C37.4228 22.872 37.1123 22.7475 36.8307 22.4787L36.2783 23.0573ZM37.7785 23.672C38.1688 23.672 38.5311 23.5734 38.8545 23.3712L38.4305 22.6928C38.2419 22.8106 38.0282 22.872 37.7785 22.872V23.672ZM39.0425 23.032V12.904H38.2425V23.032H39.0425ZM38.6425 13.304H40.3705V12.504H38.6425V13.304ZM39.9705 12.904V23.032H40.7705V12.904H39.9705ZM40.1585 23.3712C40.4819 23.5734 40.8442 23.672 41.2345 23.672V22.872C40.9848 22.872 40.7711 22.8106 40.5825 22.6928L40.1585 23.3712ZM41.2345 23.672C41.8074 23.672 42.3084 23.4598 42.7173 23.0508L42.1517 22.4852C41.8886 22.7482 41.5896 22.872 41.2345 22.872V23.672ZM42.7173 23.0508C43.1383 22.6299 43.3625 22.1223 43.3625 21.544H42.5625C42.5625 21.8937 42.4347 22.2021 42.1517 22.4852L42.7173 23.0508ZM43.3625 21.544V4.264H42.5625V21.544H43.3625ZM42.9625 4.664H44.6905V3.864H42.9625V4.664ZM44.2905 4.264V21.544H45.0905V4.264H44.2905ZM44.2905 21.544C44.2905 21.9689 44.2059 22.3695 44.037 22.7495L44.768 23.0745C44.9831 22.5905 45.0905 22.0791 45.0905 21.544H44.2905ZM44.0341 22.7561C43.8782 23.1246 43.6593 23.4495 43.3757 23.7332L43.9413 24.2988C44.2977 23.9425 44.5748 23.5314 44.7709 23.0679L44.0341 22.7561ZM43.3757 23.7332C43.1099 23.9989 42.7936 24.2107 42.4226 24.3676L42.7344 25.1044C43.1954 24.9093 43.5991 24.6411 43.9413 24.2988L43.3757 23.7332ZM42.4226 24.3676C42.059 24.5215 41.6644 24.6 41.2345 24.6V25.4C41.7646 25.4 42.266 25.3025 42.7344 25.1044L42.4226 24.3676ZM63.7831 24.544L63.9739 24.1925L63.7831 24.0889L63.5922 24.1925L63.7831 24.544ZM60.6871 24.736L60.5312 25.1044L60.5361 25.1064L60.6871 24.736ZM59.5831 24.016L59.2931 24.2915L59.3001 24.2989L59.3076 24.306L59.5831 24.016ZM58.8631 22.912L58.4926 23.0629L58.4947 23.0679L58.8631 22.912ZM58.5991 4.264V3.864H58.1991V4.264H58.5991ZM60.3271 4.264H60.7271V3.864H60.3271V4.264ZM60.8311 22.768L60.5417 23.0442L60.5481 23.0509L60.5549 23.0573L60.8311 22.768ZM62.9191 23.032L63.1311 23.3712L63.3191 23.2537V23.032H62.9191ZM62.9191 12.904V12.504H62.5191V12.904H62.9191ZM64.6471 12.904H65.0471V12.504H64.6471V12.904ZM64.6471 23.032H64.2471V23.2537L64.4351 23.3712L64.6471 23.032ZM66.7111 22.768L66.9939 23.0508L66.9939 23.0508L66.7111 22.768ZM67.2391 4.264V3.864H66.8391V4.264H67.2391ZM68.9671 4.264H69.3671V3.864H68.9671V4.264ZM68.6791 22.912L68.3135 22.7495L68.3107 22.7561L68.6791 22.912ZM67.9351 24.016L67.6522 23.7332L67.6522 23.7332L67.9351 24.016ZM66.8551 24.736L66.6992 24.3676L66.6992 24.3676L66.8551 24.736ZM65.5111 24.6C64.9908 24.6 64.4799 24.4672 63.9739 24.1925L63.5922 24.8955C64.2062 25.2288 64.8474 25.4 65.5111 25.4V24.6ZM63.5922 24.1925C63.0862 24.4672 62.5754 24.6 62.0551 24.6V25.4C62.7188 25.4 63.3599 25.2288 63.9739 24.8955L63.5922 24.1925ZM62.0551 24.6C61.6253 24.6 61.2207 24.5215 60.838 24.3656L60.5361 25.1064C61.0175 25.3025 61.5248 25.4 62.0551 25.4V24.6ZM60.8429 24.3676C60.4701 24.2099 60.1429 23.9961 59.8586 23.726L59.3076 24.306C59.6632 24.6439 60.072 24.9101 60.5312 25.1044L60.8429 24.3676ZM59.8731 23.7405C59.6029 23.4562 59.3892 23.1289 59.2314 22.7561L58.4947 23.0679C58.689 23.5271 58.9552 23.9358 59.2931 24.2915L59.8731 23.7405ZM59.2335 22.7611C59.0776 22.3784 58.9991 21.9738 58.9991 21.544H58.1991C58.1991 22.0742 58.2965 22.5816 58.4926 23.0629L59.2335 22.7611ZM58.9991 21.544V4.264H58.1991V21.544H58.9991ZM58.5991 4.664H60.3271V3.864H58.5991V4.664ZM59.9271 4.264V21.544H60.7271V4.264H59.9271ZM59.9271 21.544C59.9271 22.1163 60.1385 22.6218 60.5417 23.0442L61.1204 22.4918C60.8516 22.2102 60.7271 21.8997 60.7271 21.544H59.9271ZM60.5549 23.0573C60.9773 23.4605 61.4828 23.672 62.0551 23.672V22.872C61.6993 22.872 61.3889 22.7475 61.1073 22.4787L60.5549 23.0573ZM62.0551 23.672C62.4453 23.672 62.8076 23.5734 63.1311 23.3712L62.7071 22.6928C62.5185 22.8106 62.3048 22.872 62.0551 22.872V23.672ZM63.3191 23.032V12.904H62.5191V23.032H63.3191ZM62.9191 13.304H64.6471V12.504H62.9191V13.304ZM64.2471 12.904V23.032H65.0471V12.904H64.2471ZM64.4351 23.3712C64.7585 23.5734 65.1208 23.672 65.5111 23.672V22.872C65.2613 22.872 65.0476 22.8106 64.8591 22.6928L64.4351 23.3712ZM65.5111 23.672C66.084 23.672 66.5849 23.4598 66.9939 23.0508L66.4282 22.4852C66.1652 22.7482 65.8661 22.872 65.5111 22.872V23.672ZM66.9939 23.0508C67.4149 22.6299 67.6391 22.1223 67.6391 21.544H66.8391C66.8391 21.8937 66.7113 22.2021 66.4282 22.4852L66.9939 23.0508ZM67.6391 21.544V4.264H66.8391V21.544H67.6391ZM67.2391 4.664H68.9671V3.864H67.2391V4.664ZM68.5671 4.264V21.544H69.3671V4.264H68.5671ZM68.5671 21.544C68.5671 21.9689 68.4825 22.3695 68.3135 22.7495L69.0446 23.0745C69.2597 22.5905 69.3671 22.0791 69.3671 21.544H68.5671ZM68.3107 22.7561C68.1548 23.1246 67.9359 23.4495 67.6522 23.7332L68.2179 24.2988C68.5743 23.9425 68.8513 23.5314 69.0474 23.0679L68.3107 22.7561ZM67.6522 23.7332C67.3865 23.9989 67.0702 24.2107 66.6992 24.3676L67.0109 25.1044C67.4719 24.9093 67.8757 24.6411 68.2179 24.2988L67.6522 23.7332ZM66.6992 24.3676C66.3356 24.5215 65.9409 24.6 65.5111 24.6V25.4C66.0412 25.4 66.5426 25.3025 67.0109 25.1044L66.6992 24.3676ZM81.5363 4.552L81.3686 4.91537L81.3805 4.92039L81.5363 4.552ZM82.6163 5.296L82.3263 5.5715L82.3334 5.57893L82.3408 5.586L82.6163 5.296ZM83.3603 6.376L82.9917 6.53194L82.9971 6.54362L83.3603 6.376ZM83.3603 22.912L82.9947 22.7495L82.9919 22.7561L83.3603 22.912ZM82.6163 24.016L82.3335 23.7332L82.3335 23.7332L82.6163 24.016ZM81.5363 24.736L81.3805 24.3676L81.3805 24.3676L81.5363 24.736ZM75.3683 24.736L75.2124 25.1044L75.2174 25.1064L75.3683 24.736ZM74.2643 24.016L73.9743 24.2915L73.9814 24.2989L73.9888 24.306L74.2643 24.016ZM73.5443 22.912L73.1738 23.0629L73.1759 23.0679L73.5443 22.912ZM73.5443 6.376L73.9127 6.53186L73.9127 6.53186L73.5443 6.376ZM74.2643 5.296L73.9815 5.01316L73.9815 5.01316L74.2643 5.296ZM75.3683 4.552L75.5242 4.92044L75.5308 4.91752L75.3683 4.552ZM81.3923 6.52L81.103 6.79619L81.1094 6.80292L81.1161 6.80934L81.3923 6.52ZM75.5123 6.52L75.2295 6.23716L75.2295 6.23716L75.5123 6.52ZM75.5123 22.768L75.223 23.0442L75.2294 23.0509L75.2361 23.0573L75.5123 22.768ZM81.3923 22.768L81.6752 23.0508L81.6752 23.0508L81.3923 22.768ZM80.1923 4.664C80.6173 4.664 81.0077 4.74859 81.3687 4.91518L81.7039 4.18881C81.2329 3.9714 80.7274 3.864 80.1923 3.864V4.664ZM81.3805 4.92039C81.747 5.07548 82.0611 5.29229 82.3263 5.5715L82.9063 5.0205C82.5636 4.6597 82.1576 4.38052 81.6922 4.18361L81.3805 4.92039ZM82.3408 5.586C82.62 5.85124 82.8368 6.16526 82.9919 6.53186L83.7287 6.22014C83.5318 5.75474 83.2526 5.34875 82.8918 5.006L82.3408 5.586ZM82.9971 6.54362C83.1637 6.90457 83.2483 7.29506 83.2483 7.72H84.0483C84.0483 7.18494 83.9409 6.67943 83.7235 6.20838L82.9971 6.54362ZM83.2483 7.72V21.544H84.0483V7.72H83.2483ZM83.2483 21.544C83.2483 21.9689 83.1637 22.3695 82.9948 22.7495L83.7258 23.0745C83.9409 22.5905 84.0483 22.0791 84.0483 21.544H83.2483ZM82.9919 22.7561C82.836 23.1246 82.6171 23.4495 82.3335 23.7332L82.8992 24.2988C83.2555 23.9425 83.5326 23.5314 83.7287 23.0679L82.9919 22.7561ZM82.3335 23.7332C82.0677 23.9989 81.7515 24.2107 81.3805 24.3676L81.6922 25.1044C82.1532 24.9093 82.5569 24.6411 82.8992 24.2988L82.3335 23.7332ZM81.3805 24.3676C81.0168 24.5215 80.6222 24.6 80.1923 24.6V25.4C80.7225 25.4 81.2238 25.3025 81.6922 25.1044L81.3805 24.3676ZM80.1923 24.6H76.7363V25.4H80.1923V24.6ZM76.7363 24.6C76.3065 24.6 75.9019 24.5215 75.5192 24.3656L75.2174 25.1064C75.6987 25.3025 76.2061 25.4 76.7363 25.4V24.6ZM75.5242 24.3676C75.1514 24.2099 74.8241 23.9961 74.5398 23.726L73.9888 24.306C74.3445 24.6439 74.7532 24.9101 75.2125 25.1044L75.5242 24.3676ZM74.5543 23.7405C74.2842 23.4562 74.0704 23.1289 73.9127 22.7561L73.1759 23.0679C73.3702 23.5271 73.6364 23.9358 73.9743 24.2915L74.5543 23.7405ZM73.9147 22.7611C73.7588 22.3784 73.6803 21.9738 73.6803 21.544H72.8803C72.8803 22.0742 72.9778 22.5816 73.1739 23.0629L73.9147 22.7611ZM73.6803 21.544V7.72H72.8803V21.544H73.6803ZM73.6803 7.72C73.6803 7.29014 73.7588 6.8955 73.9127 6.53186L73.1759 6.22014C72.9778 6.6885 72.8803 7.18986 72.8803 7.72H73.6803ZM73.9127 6.53186C74.0697 6.16086 74.2814 5.84459 74.5472 5.57884L73.9815 5.01316C73.6392 5.35541 73.371 5.75914 73.1759 6.22014L73.9127 6.53186ZM74.5472 5.57884C74.8308 5.2952 75.1557 5.07628 75.5242 4.92039L75.2125 4.18361C74.7489 4.37972 74.3378 4.6568 73.9815 5.01316L74.5472 5.57884ZM75.5308 4.91752C75.9108 4.74861 76.3114 4.664 76.7363 4.664V3.864C76.2012 3.864 75.6898 3.97139 75.2059 4.18647L75.5308 4.91752ZM76.7363 4.664H80.1923V3.864H76.7363V4.664ZM82.3203 7.72C82.3203 7.14085 82.0953 6.63801 81.6685 6.23066L81.1161 6.80934C81.3934 7.07399 81.5203 7.37115 81.5203 7.72H82.3203ZM81.6817 6.24381C81.2743 5.81706 80.7715 5.592 80.1923 5.592V6.392C80.5412 6.392 80.8383 6.51894 81.103 6.79619L81.6817 6.24381ZM80.1923 5.592H76.7363V6.392H80.1923V5.592ZM76.7363 5.592C76.158 5.592 75.6504 5.81619 75.2295 6.23716L75.7952 6.80284C76.0782 6.51981 76.3867 6.392 76.7363 6.392V5.592ZM75.2295 6.23716C74.8205 6.64615 74.6083 7.14708 74.6083 7.72H75.4083C75.4083 7.36491 75.5321 7.06585 75.7952 6.80284L75.2295 6.23716ZM74.6083 7.72V21.544H75.4083V7.72H74.6083ZM74.6083 21.544C74.6083 22.1163 74.8198 22.6218 75.223 23.0442L75.8017 22.4918C75.5329 22.2102 75.4083 21.8997 75.4083 21.544H74.6083ZM75.2361 23.0573C75.6585 23.4605 76.164 23.672 76.7363 23.672V22.872C76.3806 22.872 76.0701 22.7475 75.7885 22.4787L75.2361 23.0573ZM76.7363 23.672H80.1923V22.872H76.7363V23.672ZM80.1923 23.672C80.7652 23.672 81.2662 23.4598 81.6752 23.0508L81.1095 22.4852C80.8465 22.7482 80.5474 22.872 80.1923 22.872V23.672ZM81.6752 23.0508C82.0961 22.6299 82.3203 22.1223 82.3203 21.544H81.5203C81.5203 21.8937 81.3925 22.2021 81.1095 22.4852L81.6752 23.0508ZM82.3203 21.544V7.72H81.5203V21.544H82.3203ZM98.0176 14.344L98.3804 14.5125L98.3826 14.5076L98.0176 14.344ZM97.1536 15.496L96.8911 15.1942L96.544 15.496L96.8911 15.7978L97.1536 15.496ZM98.0176 16.672L97.6525 16.8356L97.6548 16.8404L98.0176 16.672ZM98.3296 25V25.4H98.7296V25H98.3296ZM96.6016 25H96.2016V25.4H96.6016V25ZM96.0736 16.888L95.7842 17.1642L95.7906 17.1709L95.7974 17.1773L96.0736 16.888ZM89.6896 16.36V15.96H89.2896V16.36H89.6896ZM89.6896 25V25.4H90.0896V25H89.6896ZM87.9616 25H87.5616V25.4H87.9616V25ZM87.9616 4.264V3.864H87.5616V4.264H87.9616ZM96.2176 4.552L96.0499 4.91537L96.0617 4.92039L96.2176 4.552ZM97.2976 5.296L97.0076 5.5715L97.0146 5.57893L97.0221 5.586L97.2976 5.296ZM98.0416 6.376L97.673 6.53194L97.6784 6.54362L98.0416 6.376ZM96.0736 14.128L96.3564 14.4108L96.3564 14.4108L96.0736 14.128ZM96.0736 6.52L95.7842 6.79619L95.7906 6.80292L95.7974 6.80934L96.0736 6.52ZM89.6896 5.992V5.592H89.2896V5.992H89.6896ZM89.6896 14.632H89.2896V15.032H89.6896V14.632ZM97.9296 12.904C97.9296 13.3422 97.8381 13.7665 97.6526 14.1804L98.3826 14.5076C98.613 13.9935 98.7296 13.4578 98.7296 12.904H97.9296ZM97.6548 14.1756C97.4701 14.5732 97.2161 14.9116 96.8911 15.1942L97.416 15.7978C97.827 15.4404 98.149 15.0108 98.3804 14.5124L97.6548 14.1756ZM96.8911 15.7978C97.2134 16.0781 97.4673 16.4223 97.6526 16.8356L98.3826 16.5084C98.1519 15.9937 97.8297 15.5539 97.416 15.1942L96.8911 15.7978ZM97.6548 16.8404C97.8382 17.2354 97.9296 17.6499 97.9296 18.088H98.7296C98.7296 17.5341 98.613 17.0046 98.3804 16.5036L97.6548 16.8404ZM97.9296 18.088V25H98.7296V18.088H97.9296ZM98.3296 24.6H96.6016V25.4H98.3296V24.6ZM97.0016 25V18.088H96.2016V25H97.0016ZM97.0016 18.088C97.0016 17.5089 96.7765 17.006 96.3498 16.5987L95.7974 17.1773C96.0746 17.442 96.2016 17.7391 96.2016 18.088H97.0016ZM96.3629 16.6118C95.9556 16.1851 95.4527 15.96 94.8736 15.96V16.76C95.2224 16.76 95.5196 16.8869 95.7842 17.1642L96.3629 16.6118ZM94.8736 15.96H89.6896V16.76H94.8736V15.96ZM89.2896 16.36V25H90.0896V16.36H89.2896ZM89.6896 24.6H87.9616V25.4H89.6896V24.6ZM88.3616 25V4.264H87.5616V25H88.3616ZM87.9616 4.664H94.8736V3.864H87.9616V4.664ZM94.8736 4.664C95.2985 4.664 95.689 4.74859 96.0499 4.91518L96.3852 4.18881C95.9141 3.9714 95.4086 3.864 94.8736 3.864V4.664ZM96.0617 4.92039C96.4283 5.07548 96.7423 5.29229 97.0076 5.5715L97.5876 5.0205C97.2448 4.6597 96.8388 4.38052 96.3734 4.18361L96.0617 4.92039ZM97.0221 5.586C97.3013 5.85124 97.5181 6.16526 97.6732 6.53186L98.41 6.22014C98.213 5.75474 97.9339 5.34875 97.5731 5.006L97.0221 5.586ZM97.6784 6.54362C97.845 6.90457 97.9296 7.29506 97.9296 7.72H98.7296C98.7296 7.18494 98.6222 6.67943 98.4047 6.20838L97.6784 6.54362ZM97.9296 7.72V12.904H98.7296V7.72H97.9296ZM94.8736 15.032C95.4465 15.032 95.9474 14.8198 96.3564 14.4108L95.7907 13.8452C95.5277 14.1082 95.2286 14.232 94.8736 14.232V15.032ZM96.3564 14.4108C96.7774 13.9899 97.0016 13.4823 97.0016 12.904H96.2016C96.2016 13.2537 96.0738 13.5621 95.7907 13.8452L96.3564 14.4108ZM97.0016 12.904V7.72H96.2016V12.904H97.0016ZM97.0016 7.72C97.0016 7.14085 96.7765 6.63801 96.3498 6.23066L95.7974 6.80934C96.0746 7.07399 96.2016 7.37115 96.2016 7.72H97.0016ZM96.3629 6.24381C95.9556 5.81706 95.4527 5.592 94.8736 5.592V6.392C95.2224 6.392 95.5196 6.51894 95.7842 6.79619L96.3629 6.24381ZM94.8736 5.592H89.6896V6.392H94.8736V5.592ZM89.2896 5.992V14.632H90.0896V5.992H89.2896ZM89.6896 15.032H94.8736V14.232H89.6896V15.032ZM104.371 23.272H103.971V23.672H104.371V23.272ZM113.011 23.272H113.411V22.872H113.011V23.272ZM113.011 25V25.4H113.411V25H113.011ZM102.643 25H102.243V25.4H102.643V25ZM102.643 4.264V3.864H102.243V4.264H102.643ZM104.371 4.264H104.771V3.864H104.371V4.264ZM104.371 23.672H113.011V22.872H104.371V23.672ZM112.611 23.272V25H113.411V23.272H112.611ZM113.011 24.6H102.643V25.4H113.011V24.6ZM103.043 25V4.264H102.243V25H103.043ZM102.643 4.664H104.371V3.864H102.643V4.664ZM103.971 4.264V23.272H104.771V4.264H103.971ZM125.58 4.552L125.412 4.91537L125.424 4.92039L125.58 4.552ZM126.66 5.296L126.37 5.5715L126.377 5.57893L126.385 5.586L126.66 5.296ZM127.404 6.376L127.035 6.53194L127.041 6.54362L127.404 6.376ZM127.404 22.888L127.041 22.7203L127.036 22.7321L127.404 22.888ZM126.66 23.992L126.377 23.7092L126.377 23.7092L126.66 23.992ZM125.58 24.736L125.736 25.1046L125.748 25.0992L125.58 24.736ZM117.324 25H116.924V25.4H117.324V25ZM117.324 4.264V3.864H116.924V4.264H117.324ZM125.436 6.52L125.147 6.79619L125.153 6.80292L125.16 6.80934L125.436 6.52ZM119.052 5.992V5.592H118.652V5.992H119.052ZM119.052 23.272H118.652V23.672H119.052V23.272ZM125.436 22.768L125.719 23.0508L125.719 23.0508L125.436 22.768ZM124.236 4.664C124.661 4.664 125.051 4.74859 125.412 4.91518L125.748 4.18881C125.277 3.9714 124.771 3.864 124.236 3.864V4.664ZM125.424 4.92039C125.791 5.07548 126.105 5.29229 126.37 5.5715L126.95 5.0205C126.607 4.6597 126.201 4.38052 125.736 4.18361L125.424 4.92039ZM126.385 5.586C126.664 5.85124 126.881 6.16526 127.036 6.53186L127.772 6.22014C127.576 5.75474 127.296 5.34875 126.936 5.006L126.385 5.586ZM127.041 6.54362C127.207 6.90457 127.292 7.29506 127.292 7.72H128.092C128.092 7.18494 127.985 6.67943 127.767 6.20838L127.041 6.54362ZM127.292 7.72V21.544H128.092V7.72H127.292ZM127.292 21.544C127.292 21.9689 127.207 22.3594 127.041 22.7204L127.767 23.0556C127.985 22.5846 128.092 22.0791 128.092 21.544H127.292ZM127.036 22.7321C126.88 23.1006 126.661 23.4255 126.377 23.7092L126.943 24.2748C127.299 23.9185 127.576 23.5074 127.772 23.0439L127.036 22.7321ZM126.377 23.7092C126.109 23.9777 125.788 24.1993 125.412 24.3728L125.748 25.0992C126.204 24.8887 126.603 24.6143 126.943 24.2748L126.377 23.7092ZM125.424 24.3676C125.061 24.5215 124.666 24.6 124.236 24.6V25.4C124.766 25.4 125.268 25.3025 125.736 25.1044L125.424 24.3676ZM124.236 24.6H117.324V25.4H124.236V24.6ZM117.724 25V4.264H116.924V25H117.724ZM117.324 4.664H124.236V3.864H117.324V4.664ZM126.364 7.72C126.364 7.14085 126.139 6.63801 125.712 6.23066L125.16 6.80934C125.437 7.07399 125.564 7.37115 125.564 7.72H126.364ZM125.725 6.24381C125.318 5.81706 124.815 5.592 124.236 5.592V6.392C124.585 6.392 124.882 6.51894 125.147 6.79619L125.725 6.24381ZM124.236 5.592H119.052V6.392H124.236V5.592ZM118.652 5.992V23.272H119.452V5.992H118.652ZM119.052 23.672H124.236V22.872H119.052V23.672ZM124.236 23.672C124.809 23.672 125.31 23.4598 125.719 23.0508L125.153 22.4852C124.89 22.7482 124.591 22.872 124.236 22.872V23.672ZM125.719 23.0508C126.14 22.6299 126.364 22.1223 126.364 21.544H125.564C125.564 21.8937 125.436 22.2021 125.153 22.4852L125.719 23.0508ZM126.364 21.544V7.72H125.564V21.544H126.364Z" fill="#31A96B"/>
</g>
<defs>
<filter id="filter0_d_34_3" x="0.959991" y="0.263977" width="130.732" height="28.736" filterUnits="userSpaceOnUse" color-interpolation-filters="sRGB">
<feFlood flood-opacity="0" result="BackgroundImageFix"/>
<feColorMatrix in="SourceAlpha" type="matrix" values="0 0 0 0 0 0 0 0 0 0 0 0 0 0 0 0 0 0 127 0" result="hardAlpha"/>
<feOffset/>
<feGaussianBlur stdDeviation="2"/>
<feComposite in2="hardAlpha" operator="out"/>
<feColorMatrix type="matrix" values="0 0 0 0 0.192157 0 0 0 0 0.662745 0 0 0 0 0.419608 0 0 0 1 0"/>
<feBlend mode="normal" in2="BackgroundImageFix" result="effect1_dropShadow_34_3"/>
<feBlend mode="normal" in="SourceGraphic" in2="effect1_dropShadow_34_3" result="shape"/>
</filter>
</defs>
</svg>
