<svg width="803" height="106" viewBox="0 0 803 106" fill="none" xmlns="http://www.w3.org/2000/svg">
<g filter="url(#filter0_d_21_2)">
<path d="M14.936 72.832C14.264 74.08 12.44 77.344 11.672 78.592H15.128C17.528 78.592 18.68 78.784 18.68 79.168C18.68 79.936 16.76 80.32 12.92 80.32C11.864 80.32 11.096 80.608 10.616 81.088C10.136 81.568 9.08 83.296 7.448 86.272C5.432 89.824 4.472 92.128 4.472 93.28C4.472 94.24 4.856 94.72 5.72 94.72C6.392 94.72 9.656 94.144 15.608 92.992L21.944 91.744C26.072 84.928 30.008 78.592 33.752 72.832H31.256C29.624 72.832 28.568 72.736 27.896 72.64C27.8 72.64 27.416 72.544 26.744 72.544C26.264 72.544 23.576 72.64 21.08 72.64L14.936 72.832ZM62.84 66.208C62.936 66.688 62.456 66.976 61.784 66.976C60.44 66.976 59.864 66.4 60.44 65.632C61.112 65.152 62.552 65.44 62.84 66.208ZM61.304 53.632C55.448 64.288 52.472 69.664 52.472 69.856C52.472 70.24 52.568 70.432 52.76 70.432C53.144 70.432 53.912 69.856 55.16 68.608C56.216 67.648 56.792 67.168 56.888 67.264C56.984 67.264 57.08 67.456 57.08 67.936C57.08 68.8 56.6 69.76 55.544 70.624C54.776 71.296 53.912 71.776 53.048 71.872C52.184 72.064 49.688 72.256 45.56 72.448C39.896 72.736 37.016 72.928 37.016 73.024C37.016 73.024 37.688 77.536 38.168 80.992C38.744 84.448 39.224 86.848 39.608 88.096C39.992 89.344 40.568 90.688 41.336 91.936L43.256 94.912L47.48 94.816H47.96H50.168C51.992 94.72 53.624 93.952 55.16 92.512C56.6 90.784 60.44 84.352 66.68 73.12C68.216 70.336 69.368 68.224 70.232 66.688C80.12 48.832 85.112 39.616 85.112 39.04C85.112 38.752 82.52 38.56 77.432 38.272L70.232 37.888L61.304 53.632ZM35.096 36.256C23.864 56.32 17.72 67.36 16.856 69.472C16.76 69.76 16.664 69.952 16.664 70.048C16.664 70.336 17.432 70.432 18.968 70.432C20.696 70.432 21.656 70.624 21.944 71.008C22.232 71.488 22.616 71.488 23 71.104C23.48 70.72 28.184 70.528 37.016 70.528C46.04 70.528 50.552 70.432 50.552 70.144C50.552 69.088 49.208 64 46.52 54.688L42.104 39.328L39.608 39.04C37.592 38.752 37.208 38.752 37.208 37.696C37.208 37.024 37.304 36.16 37.592 35.104C37.688 34.336 37.784 33.952 37.784 33.856C37.784 33.472 37.688 33.28 37.496 33.28C37.112 33.28 36.344 34.24 35.096 36.256ZM104.224 75.52C103.744 75.328 103.84 75.232 104.512 75.232C104.799 75.136 105.088 75.136 105.184 75.232C105.472 75.328 105.376 75.52 105.088 75.616C104.799 75.712 104.512 75.616 104.224 75.52ZM127.264 74.176C126.976 74.752 126.304 75.136 125.056 75.328C123.808 75.616 121.12 75.808 116.8 76.096L109.312 76.48L110.368 75.232C110.944 74.56 111.904 74.176 113.152 73.984C114.4 73.792 117.568 73.6 122.464 73.504H124.672C126.496 73.504 127.36 73.696 127.36 73.984C127.36 74.08 127.264 74.08 127.264 74.176ZM154.24 73.984C153.376 73.888 153.28 73.6 154.048 73.12C154.72 72.544 155.2 72.256 155.296 72.256C155.584 72.256 155.872 73.984 154.24 73.984ZM146.752 73.12C146.752 73.792 146.272 74.08 145.312 73.888C144.256 73.6 143.68 73.696 143.583 73.984C143.488 74.272 142.048 74.464 139.36 74.656C136.576 74.944 134.272 75.04 132.256 75.04C131.2 75.04 130.528 74.944 130.144 74.848C129.568 74.56 129.472 74.176 129.856 73.696C130.336 73.216 132.352 73.024 136.096 72.928C141.184 72.928 141.375 72.544 144.448 72.352C145.984 72.256 146.752 72.544 146.752 73.12ZM119.776 50.848C121.216 49.12 123.904 51.904 120.64 52.192C120.352 52.192 120.064 52.096 119.68 52C118.72 51.616 118.911 51.52 119.776 50.848ZM143.488 51.904C142.912 52.768 142.144 53.248 141.088 53.248C140.896 53.248 140.704 53.152 140.416 53.056C140.031 52.768 140.224 52.096 141.088 51.136C142.336 49.696 142.432 49.696 143.104 50.56C143.583 51.232 143.776 51.616 143.488 51.904ZM141.568 48.736C140.896 49.216 139.167 49.696 136.384 50.176C133.504 50.656 131.2 50.944 129.472 50.944C128.8 50.944 128.416 50.944 128.224 50.848C127.168 50.656 126.976 50.368 127.648 50.08C128.224 49.792 129.76 49.504 132.16 49.12C134.56 48.736 136.384 48.544 137.536 48.544H138.112C140.031 49.216 138.208 47.776 141.088 47.776H142.912L141.568 48.736ZM125.824 39.136C119.872 47.584 116.704 52.096 116.416 52.576C115.936 53.248 115.648 53.824 115.648 54.112C115.648 54.4 115.84 54.688 116.32 55.168C116.992 55.84 117.376 55.936 117.568 55.456C117.664 55.168 118.911 54.976 121.216 54.976C123.04 54.976 124.672 54.976 126.016 55.072C133.696 55.456 135.712 55.936 135.712 57.184C135.712 57.472 133.792 57.664 129.856 57.664C124.576 57.664 121.792 57.472 121.504 57.088C121.312 56.704 121.024 56.512 120.544 56.512C120.16 56.512 120.16 56.512 120.256 56.8V56.992C120.256 57.28 117.184 57.856 114.496 58.24L112.48 58.528C112 58.816 109.216 62.56 104.032 69.952C98.8475 77.44 96.2555 81.376 96.2555 81.952C96.2555 83.104 97.5035 84.256 103.168 88.96C105.376 90.784 107.008 91.744 108.064 91.744H108.64C113.056 90.88 123.712 88.576 140.704 84.832L170.944 78.304L174.016 72.256C175.84 68.896 176.704 66.784 176.704 66.112C176.704 65.92 176.608 65.728 176.512 65.632C176.224 65.344 175.744 65.248 175.072 65.248C173.92 65.248 171.424 65.536 167.584 66.208C141.472 70.432 128.032 72.544 127.168 72.544C126.976 72.544 128.128 69.856 129.472 67.168L132.16 61.984L151.84 59.488C165.184 57.856 172.288 56.896 173.344 56.704C174.784 56.416 175.456 55.648 177.76 51.808C179.584 48.832 180.544 47.104 180.544 46.816C180.544 46.72 178.624 46.624 174.688 46.624C172.672 46.624 167.968 46.72 160.672 46.816L140.896 47.296C141.568 46.048 142.624 44.032 143.872 41.344H163.072C164.128 39.808 164.896 38.656 165.472 37.888H193.12L195.808 33.568C197.248 31.264 197.92 29.824 197.92 29.152C197.92 28.96 197.92 28.864 197.824 28.864C197.536 28.768 191.008 28.672 178.24 28.384C170.56 28.288 160.096 28 146.752 27.616L134.176 27.232L125.824 39.136ZM234.767 68.992C234.479 68.896 234.767 68.512 235.151 68.512C235.535 68.608 235.631 68.8 235.439 69.088C235.151 69.184 234.959 69.184 234.767 68.992ZM235.343 67.744C235.055 67.456 235.247 67.36 235.727 67.36C236.591 67.36 235.823 68.224 235.343 67.744ZM268.463 62.656C268.463 63.712 266.735 64.192 266.255 63.328C265.871 62.752 263.855 63.328 263.855 62.752C263.855 62.272 264.623 62.08 266.159 62.08C267.695 62.08 268.463 62.272 268.463 62.656ZM245.231 52.48C244.175 53.248 244.271 53.344 245.231 53.632C246.863 54.208 246.383 54.976 244.847 54.592C243.791 54.4 243.311 53.824 243.311 52.768C243.311 52.096 243.695 51.616 244.367 51.424C244.943 51.328 245.327 51.232 245.615 51.328C246.095 51.52 245.999 51.904 245.231 52.48ZM288.335 22.432C285.743 29.44 284.303 33.184 284.015 33.856L282.671 36.832C281.039 37.216 275.759 38.656 274.127 38.944L268.655 50.368C259.727 69.184 254.831 78.592 254.159 78.592C253.679 78.592 253.199 76.288 252.623 71.584C252.047 66.88 251.567 64.288 251.279 64C250.895 63.616 246.767 63.424 238.799 63.328C233.519 63.232 232.847 63.136 232.847 62.272C232.847 61.792 233.807 61.504 235.631 61.504C235.919 61.504 238.031 61.6 242.159 61.696L251.471 62.08L251.183 59.968C250.703 55.744 250.319 55.072 249.167 55.072C248.111 55.072 246.863 53.44 246.863 52.192C246.959 51.904 247.151 51.712 247.439 51.616C248.111 51.52 248.591 51.808 248.879 52.48C249.071 52.96 249.263 53.248 249.455 53.248C249.743 53.248 249.935 52.672 249.935 51.52C249.935 51.04 249.935 50.56 249.839 50.272C249.743 49.12 249.359 48.256 248.879 47.584C248.399 47.008 247.151 45.952 245.135 44.416C242.735 42.496 241.103 41.536 240.431 41.536H240.335C240.143 41.728 238.511 45.088 235.535 51.712C232.463 58.336 230.831 61.888 230.735 62.368C230.447 63.328 228.335 67.84 224.591 76C223.151 79.168 222.287 80.8 222.095 80.8C221.999 80.8 221.999 79.936 221.999 78.304C221.999 70.144 222.191 65.728 222.575 65.056C222.671 64.768 222.863 62.752 223.151 59.2C223.247 57.472 223.535 55.264 223.823 52.672C224.111 50.08 224.303 48.16 224.303 46.72C224.303 44.512 224.015 42.112 223.535 39.328C222.863 35.584 222.479 33.568 222.383 33.088C222.191 32.704 221.807 32.416 221.135 32.32C220.847 32.224 220.559 32.224 220.079 32.224C218.543 32.224 217.871 33.184 215.855 38.56C214.511 42.112 213.839 44.224 213.839 44.896C213.839 45.184 214.031 45.76 214.319 46.528C214.607 47.296 214.703 47.968 214.703 48.544C214.703 50.368 213.839 56.512 212.015 67.072C209.903 79.648 208.847 85.984 208.847 86.176C208.847 86.464 209.807 87.136 211.631 88.288C213.647 89.536 214.703 90.688 214.895 91.744C215.279 93.568 215.471 93.568 219.695 94.24C222.671 94.72 224.303 95.392 224.495 96.16C224.687 97.12 224.879 97.312 225.839 96.352C226.319 95.968 227.759 93.184 230.351 88C232.847 82.72 235.343 77.632 237.743 72.544C240.143 67.552 241.487 65.056 241.583 65.056C241.679 65.056 243.119 73.984 245.711 91.744C245.999 92.512 247.439 93.088 249.839 93.376C252.431 93.664 253.679 93.856 253.775 93.952C253.967 94.144 253.871 94.72 253.391 95.776C252.911 96.736 253.103 97.408 253.871 97.792C253.967 97.888 254.063 97.888 254.255 97.888C254.831 97.888 255.887 96.544 257.327 93.952C258.767 91.36 261.839 85.408 266.447 76.192C270.767 67.456 273.071 62.944 273.263 62.656C276.335 57.472 280.367 49.12 285.455 37.504C287.471 32.896 288.719 30.208 289.199 29.44C289.679 28.768 290.351 28.384 291.311 28.288C292.943 28.192 293.519 27.808 294.671 25.6C296.111 23.2 295.919 22.432 295.055 19.36C294.191 15.904 293.135 14.176 291.887 14.176C291.599 14.176 290.351 16.96 288.335 22.432ZM357.486 68.992C357.198 68.896 357.486 68.512 357.87 68.512C358.254 68.608 358.35 68.8 358.158 69.088C357.87 69.184 357.678 69.184 357.486 68.992ZM358.062 67.744C357.774 67.456 357.966 67.36 358.446 67.36C359.31 67.36 358.542 68.224 358.062 67.744ZM391.182 62.656C391.182 63.712 389.454 64.192 388.974 63.328C388.59 62.752 386.574 63.328 386.574 62.752C386.574 62.272 387.342 62.08 388.878 62.08C390.414 62.08 391.182 62.272 391.182 62.656ZM367.95 52.48C366.894 53.248 366.99 53.344 367.95 53.632C369.582 54.208 369.102 54.976 367.566 54.592C366.51 54.4 366.03 53.824 366.03 52.768C366.03 52.096 366.414 51.616 367.086 51.424C367.662 51.328 368.046 51.232 368.334 51.328C368.814 51.52 368.718 51.904 367.95 52.48ZM411.054 22.432C408.462 29.44 407.022 33.184 406.734 33.856L405.39 36.832C403.758 37.216 398.478 38.656 396.846 38.944L391.374 50.368C382.446 69.184 377.55 78.592 376.878 78.592C376.398 78.592 375.918 76.288 375.342 71.584C374.766 66.88 374.286 64.288 373.998 64C373.614 63.616 369.486 63.424 361.518 63.328C356.238 63.232 355.566 63.136 355.566 62.272C355.566 61.792 356.526 61.504 358.35 61.504C358.638 61.504 360.75 61.6 364.878 61.696L374.19 62.08L373.902 59.968C373.422 55.744 373.038 55.072 371.886 55.072C370.83 55.072 369.582 53.44 369.582 52.192C369.678 51.904 369.87 51.712 370.158 51.616C370.83 51.52 371.31 51.808 371.598 52.48C371.79 52.96 371.982 53.248 372.174 53.248C372.462 53.248 372.654 52.672 372.654 51.52C372.654 51.04 372.654 50.56 372.558 50.272C372.462 49.12 372.078 48.256 371.598 47.584C371.118 47.008 369.87 45.952 367.854 44.416C365.454 42.496 363.822 41.536 363.15 41.536H363.054C362.862 41.728 361.23 45.088 358.254 51.712C355.182 58.336 353.55 61.888 353.454 62.368C353.166 63.328 351.054 67.84 347.31 76C345.87 79.168 345.006 80.8 344.814 80.8C344.718 80.8 344.718 79.936 344.718 78.304C344.718 70.144 344.91 65.728 345.294 65.056C345.39 64.768 345.582 62.752 345.87 59.2C345.966 57.472 346.254 55.264 346.542 52.672C346.83 50.08 347.022 48.16 347.022 46.72C347.022 44.512 346.734 42.112 346.254 39.328C345.582 35.584 345.198 33.568 345.102 33.088C344.91 32.704 344.526 32.416 343.854 32.32C343.566 32.224 343.278 32.224 342.798 32.224C341.262 32.224 340.59 33.184 338.574 38.56C337.23 42.112 336.558 44.224 336.558 44.896C336.558 45.184 336.75 45.76 337.038 46.528C337.326 47.296 337.422 47.968 337.422 48.544C337.422 50.368 336.558 56.512 334.734 67.072C332.622 79.648 331.566 85.984 331.566 86.176C331.566 86.464 332.526 87.136 334.35 88.288C336.366 89.536 337.422 90.688 337.614 91.744C337.998 93.568 338.19 93.568 342.414 94.24C345.39 94.72 347.022 95.392 347.214 96.16C347.406 97.12 347.598 97.312 348.558 96.352C349.038 95.968 350.478 93.184 353.07 88C355.566 82.72 358.062 77.632 360.462 72.544C362.862 67.552 364.206 65.056 364.302 65.056C364.398 65.056 365.838 73.984 368.43 91.744C368.718 92.512 370.158 93.088 372.558 93.376C375.15 93.664 376.398 93.856 376.494 93.952C376.686 94.144 376.59 94.72 376.11 95.776C375.63 96.736 375.822 97.408 376.59 97.792C376.686 97.888 376.782 97.888 376.974 97.888C377.55 97.888 378.606 96.544 380.046 93.952C381.486 91.36 384.558 85.408 389.166 76.192C393.486 67.456 395.79 62.944 395.982 62.656C399.054 57.472 403.086 49.12 408.174 37.504C410.19 32.896 411.438 30.208 411.918 29.44C412.398 28.768 413.07 28.384 414.03 28.288C415.662 28.192 416.238 27.808 417.39 25.6C418.83 23.2 418.638 22.432 417.774 19.36C416.91 15.904 415.854 14.176 414.606 14.176C414.318 14.176 413.07 16.96 411.054 22.432ZM479.651 77.44C478.595 76.768 480.707 76.768 479.651 77.44V77.44ZM437.123 69.472C437.219 69.376 437.411 69.376 437.699 69.376H438.179C438.467 69.376 438.563 69.472 438.467 69.664C438.179 69.952 437.891 70.048 437.411 69.76L437.123 69.472ZM436.355 65.248C436.643 65.344 436.739 65.536 436.739 65.632C436.643 65.728 436.163 65.824 435.299 65.824C431.171 65.632 434.723 63.712 436.355 65.248ZM443.555 62.368C442.979 62.368 442.691 62.08 442.691 61.408C442.691 60.832 442.883 60.544 443.267 60.544C443.555 60.544 443.843 60.736 444.035 61.216C444.419 61.984 444.227 62.368 443.555 62.368ZM479.939 59.872C480.707 62.272 481.091 64.48 481.091 66.496C481.091 72.544 477.443 76.864 470.243 79.648C465.155 81.568 459.395 82.912 453.155 83.68L449.795 84.064C445.667 80.704 442.595 78.304 440.483 76.672L441.251 74.272C441.539 73.216 442.307 71.008 442.403 70.624C442.691 69.76 442.403 69.28 441.731 69.088C441.443 68.992 441.251 68.992 441.155 68.992L441.731 68.8H441.827C442.403 68.704 443.363 67.648 444.707 65.632C445.955 63.616 446.627 62.176 446.627 61.408L446.531 61.216V61.12C446.243 60.736 446.435 60.544 446.915 60.544C447.395 60.544 448.739 59.776 450.851 58.24C452.963 56.608 456.611 54.592 461.699 52C466.787 49.408 469.859 48.16 470.915 48.16H471.107C475.043 49.696 477.923 53.632 479.939 59.872ZM475.907 37.312C471.299 37.504 468.131 37.696 466.499 37.888C464.771 38.176 462.851 38.656 460.739 39.328C447.203 43.84 438.083 50.944 433.379 60.832C430.691 66.4 429.347 71.872 429.347 77.248C429.347 78.88 429.827 80.224 430.787 81.376C431.651 82.432 434.819 85.312 440.099 89.92L445.955 95.008L454.115 94.72C461.891 94.432 468.131 93.28 473.027 91.264C477.923 89.248 482.435 85.984 486.755 81.472C488.675 79.456 490.595 77.152 492.419 74.656C494.243 72.16 495.107 70.624 495.107 69.952C495.107 69.184 494.435 66.208 493.091 61.024C490.883 52.192 488.579 46.528 486.275 43.936C485.123 42.784 485.123 42.88 486.371 41.248C487.235 40.192 488.483 39.52 490.019 39.328C492.611 38.944 493.955 38.272 493.955 37.216C493.955 36.928 493.187 36.832 491.555 36.832C490.883 36.832 485.603 37.024 475.907 37.312ZM563.443 71.296C562.771 71.584 560.947 71.2 561.427 70.432C561.523 70.144 561.907 69.952 562.387 69.952C563.347 69.952 563.827 70.24 563.827 70.72C563.827 70.912 563.731 71.104 563.443 71.296ZM558.451 68.704C557.299 68.704 557.203 67.552 558.835 67.552C559.123 67.552 559.315 67.552 559.411 67.648C559.603 67.744 559.699 67.84 559.603 68.032C559.507 68.512 559.123 68.704 558.451 68.704ZM554.323 68.704C553.267 68.704 553.171 67.552 554.707 67.552C554.995 67.552 555.187 67.552 555.283 67.648C555.571 67.744 555.667 67.84 555.571 68.032C555.475 68.512 554.995 68.704 554.323 68.704ZM571.219 67.648C569.395 67.84 567.667 68.128 566.227 68.416C565.555 68.512 564.883 68.608 564.211 68.608C563.635 68.608 563.059 68.512 562.387 68.416L560.179 67.936L563.443 67.552C565.747 67.264 568.147 67.168 570.643 67.168H574.771L571.219 67.648ZM517.171 64.096C516.115 63.424 518.227 63.424 517.171 64.096V64.096ZM554.899 55.744C554.611 55.456 554.802 55.36 555.283 55.36C556.339 55.36 555.379 56.224 554.899 55.744ZM547.315 55.744C547.027 55.456 547.219 55.36 547.699 55.36C548.562 55.36 547.795 56.224 547.315 55.744ZM554.131 55.648C554.131 55.84 553.555 55.936 552.499 55.936C551.731 55.84 551.443 55.648 551.731 55.36C552.499 54.88 554.131 55.168 554.131 55.648ZM544.819 54.976C544.819 55.648 543.763 55.84 543.379 55.36C543.091 54.976 543.283 54.784 543.859 54.784C544.531 54.784 544.819 54.88 544.819 54.976ZM565.747 43.84C562.579 44.896 560.755 45.472 560.179 45.76C559.315 46.24 555.091 47.488 547.603 49.504C541.459 51.232 537.811 52.096 536.659 52.096C536.083 52.096 535.411 51.904 534.643 51.616C533.299 51.04 532.627 50.368 532.627 49.6C532.627 48.928 533.107 47.68 533.971 45.664L535.411 42.688H552.499L569.491 42.784L565.747 43.84ZM526.771 36.832C525.139 40.192 522.931 45.088 520.147 51.52C517.171 57.952 515.635 61.696 515.635 62.656C515.635 63.04 517.171 64.096 515.251 64.096C514.579 64.096 512.851 67.264 509.971 73.504C507.379 79.168 506.131 82.336 506.131 83.104C506.131 83.392 506.323 83.872 506.611 84.352C507.379 85.6 508.627 87.232 510.259 89.152C511.891 90.976 512.851 91.936 513.234 91.936C513.619 91.936 516.211 87.232 521.011 77.824L528.115 63.616L533.395 66.4C536.755 68.224 541.171 70.144 546.547 72.256C551.923 74.464 555.187 75.52 556.243 75.52H556.435C557.203 75.328 557.779 75.52 558.259 76.096C558.547 76.384 558.835 76.48 559.219 76.576C559.699 76.48 559.891 76.192 559.603 75.616C559.507 75.52 559.507 75.328 559.507 75.232C559.507 75.04 560.947 74.848 563.731 74.752C564.691 74.752 569.779 74.368 570.835 74.272C572.083 74.176 574.483 73.984 574.483 74.752C574.483 75.808 573.139 76.096 566.707 76.864C563.443 77.248 561.811 77.536 561.811 77.728C561.811 78.112 565.363 79.168 572.467 80.992C573.811 81.184 576.019 81.952 576.211 81.952C576.691 81.952 578.707 80.32 582.163 77.152C585.523 73.888 587.251 72.064 587.251 71.584C587.251 71.296 583.603 69.856 576.307 67.072C568.915 64.288 565.171 62.944 564.883 62.944C564.211 62.944 562.387 62.368 559.507 61.12C556.531 59.872 555.091 59.104 555.091 58.816C555.091 58.528 556.339 58.048 558.739 57.376C560.947 56.608 562.483 56.032 563.155 55.648C564.403 54.88 569.683 53.056 578.803 50.08C588.403 47.008 593.491 45.184 594.067 44.608C594.163 44.512 594.259 44.32 594.259 44.032C594.259 43.36 593.683 42.112 592.531 40.288C590.995 37.792 590.131 36.544 590.035 36.448C589.843 36.256 584.755 35.872 574.867 35.296C564.883 34.816 557.971 34.528 554.131 34.432C549.042 34.432 544.147 34.24 539.539 33.856C533.395 33.472 530.131 33.28 529.747 33.28C528.691 33.28 528.019 34.048 526.771 36.832ZM657.926 84.448C655.718 84.448 654.566 84.256 654.566 83.776C654.566 83.488 655.142 83.392 656.198 83.392C658.022 83.392 660.902 83.872 660.902 84.16C660.902 84.352 659.942 84.448 657.926 84.448ZM615.302 83.296C615.398 83.68 615.11 83.872 614.054 83.872C613.574 83.776 613.382 83.584 613.286 83.296C614.246 82.72 614.918 82.72 615.302 83.296ZM626.726 29.728L622.406 46.912C619.622 57.856 617.606 64.672 616.358 67.36C615.11 69.952 614.63 70.432 613.766 70.432C613.67 70.432 613.286 70.336 612.614 70.24L610.598 69.856L607.91 77.536C606.086 82.624 605.222 85.312 605.318 85.408L626.342 86.656C636.038 87.136 642.182 87.52 644.582 87.808C646.982 88.096 648.998 88.576 650.534 89.248L653.702 90.688L675.014 90.208C678.374 90.112 682.022 90.112 685.766 90.016C693.35 89.92 697.766 89.728 698.438 89.728C699.686 89.632 700.358 89.536 700.358 89.344L699.686 88.48C699.206 87.904 698.246 87.616 696.614 87.52C694.982 87.424 690.278 87.328 682.406 87.328C671.846 87.328 666.566 87.136 666.566 86.752C666.566 86.368 665.798 85.792 664.166 85.12C662.438 84.256 661.574 83.584 661.574 83.008C661.574 81.952 660.422 81.184 658.022 80.8C655.622 80.416 649.478 79.936 639.782 79.456C627.014 78.88 620.582 78.496 620.486 78.4C620.39 78.304 621.446 75.136 623.75 68.992C634.214 41.056 639.398 26.464 639.398 25.216C639.398 24.928 639.302 24.64 639.11 24.448C638.726 23.968 638.15 23.776 637.286 23.776C636.614 23.776 635.558 23.872 634.118 24.064C631.526 24.256 629.606 24.544 628.262 24.832C626.822 24.928 626.726 24.928 626.726 23.392C626.726 22.144 626.342 21.568 625.574 21.568C624.422 21.568 624.422 21.76 625.574 25.696L626.726 29.728ZM741.016 74.272C741.016 74.752 739.288 76.48 738.616 76.48H738.52C738.424 76.384 738.424 76.288 738.424 76.192C738.424 75.424 739.384 73.984 740.152 73.984C740.728 73.984 741.016 74.08 741.016 74.272ZM720.088 64.096C720.376 64.192 720.568 64.384 720.568 64.672C720.568 64.864 720.28 64.96 719.704 64.96C718.936 64.96 718.168 64.768 717.4 64.384L715.768 63.52H717.496C718.744 63.52 719.608 63.712 720.088 64.096ZM723.928 59.392C722.872 58.72 724.984 58.72 723.928 59.392V59.392ZM719.512 59.008C718.744 59.2 718.359 59.008 718.359 58.528C718.359 58.048 718.648 57.856 719.32 57.856C720.088 57.856 720.472 58.048 720.472 58.432C720.472 58.624 720.184 58.816 719.512 59.008ZM743.32 54.592C747.928 54.88 750.232 55.072 750.232 55.36C750.232 55.456 748.6 56.992 745.432 60.064C742.168 63.232 740.536 64.864 740.44 64.96C740.344 65.248 741.112 65.728 741.976 65.824C743.224 66.016 743.896 66.592 743.896 67.456C743.896 67.744 743.512 67.936 742.84 67.936C741.976 67.936 741.304 67.936 740.632 67.84L737.176 67.456C735.736 68.8 733.624 70.72 730.84 73.312L733.336 73.408C735.352 73.408 735.832 73.696 735.832 74.56C735.832 75.328 735.448 75.712 734.68 75.712C734.008 75.712 733.432 75.424 732.952 74.848C732.472 74.272 731.896 73.984 731.224 73.984C730.168 73.984 728.92 74.752 727.288 76.384C725.848 77.632 725.08 78.304 724.888 78.304C724.792 78.304 724.792 78.304 724.792 78.208C724.792 77.536 725.176 75.712 725.944 72.64C726.616 70.048 726.904 68.32 726.904 67.552C726.808 67.264 726.328 66.784 725.272 66.208C724.216 66.016 723.736 65.728 723.736 65.248C723.736 64.672 724.504 64.288 726.136 64.192C727.576 64.096 728.248 63.808 728.248 63.52C728.248 63.328 728.344 62.56 728.632 61.312C728.92 60.064 728.536 59.296 727.576 59.2C727.096 59.104 726.808 59.104 726.712 59.104L727.672 58.912H727.768C729.016 58.816 729.4 58.432 729.688 56.896C729.88 55.84 730.168 55.072 730.456 54.592C730.744 54.304 731.704 54.208 733.528 54.208C733.911 54.208 737.176 54.304 743.32 54.592ZM793.912 5.632C790.936 9.952 788.44 12.928 786.328 14.56C784.888 15.712 782.584 18.208 779.32 21.952C775.96 25.696 773.752 28.48 772.6 30.304C771.928 31.36 770.008 33.76 766.84 37.696L762.04 43.552C757.912 43.456 751.672 43.36 743.32 43.264C734.968 43.168 728.632 43.072 724.504 42.976L719.992 48.256C717.016 51.808 715.384 54.304 715.096 55.936C714.808 57.568 714.904 58.336 715.192 58.24C716.536 57.952 717.208 58.144 717.208 58.816C717.208 59.2 716.824 59.296 715.96 59.2H715.672C714.808 59.2 714.616 59.584 714.52 61.504C714.52 62.944 714.424 64 714.136 64.48C713.848 64.96 713.272 67.936 712.408 73.312C711.544 78.688 711.16 82.048 711.16 83.392C711.16 83.584 711.16 83.776 711.256 83.872C711.544 84.16 714.52 85.408 720.184 87.616L728.632 90.88L735.928 85.984C740.632 82.816 744.664 79.264 748.216 75.232C751.576 71.392 753.304 69.28 753.304 68.992C753.304 68.704 753.88 68.032 754.936 67.072C755.992 66.016 760.312 61.216 767.704 52.576C775.096 44.032 778.84 39.616 778.84 39.328C778.84 39.232 781.24 36.352 785.944 30.688L793.048 22.336V22.144L793.144 22.048C793.144 21.28 792.76 20.32 792.088 19.072L790.648 16.672L794.68 9.376C797.272 4.86399 798.52 1.984 798.52 0.735996C798.52 0.351995 798.424 0.159998 798.232 0.159998C797.848 0.159998 796.408 1.984 793.912 5.632Z" fill="#02174B"/>
</g>
<defs>
<filter id="filter0_d_21_2" x="0.472" y="0.159996" width="802.048" height="105.728" filterUnits="userSpaceOnUse" color-interpolation-filters="sRGB">
<feFlood flood-opacity="0" result="BackgroundImageFix"/>
<feColorMatrix in="SourceAlpha" type="matrix" values="0 0 0 0 0 0 0 0 0 0 0 0 0 0 0 0 0 0 127 0" result="hardAlpha"/>
<feOffset dy="4"/>
<feGaussianBlur stdDeviation="2"/>
<feComposite in2="hardAlpha" operator="out"/>
<feColorMatrix type="matrix" values="0 0 0 0 0.795833 0 0 0 0 0 0 0 0 0 0 0 0 0 0.86 0"/>
<feBlend mode="normal" in2="BackgroundImageFix" result="effect1_dropShadow_21_2"/>
<feBlend mode="normal" in="SourceGraphic" in2="effect1_dropShadow_21_2" result="shape"/>
</filter>
</defs>
</svg>
