<svg width="930" height="1363" viewBox="0 0 930 1363" fill="none" xmlns="http://www.w3.org/2000/svg">
<circle cx="464.5" cy="245.5" r="245.5" fill="white"/>
<path d="M930 898C930 774.674 881.009 656.4 793.805 569.195C706.6 481.991 588.326 433 465 433C341.674 433 223.4 481.991 136.195 569.195C48.991 656.4 1.86217e-05 774.674 0 898L84.3742 898C84.3742 797.052 124.476 700.238 195.857 628.857C267.238 557.476 364.052 517.374 465 517.374C565.948 517.374 662.762 557.476 734.143 628.857C805.524 700.238 845.626 797.052 845.626 898H930Z" fill="white"/>
<path d="M427.926 603.784C443.999 575.314 485.002 575.314 501.074 603.784L581.985 747.102C597.792 775.1 577.563 809.75 545.411 809.75H383.589C351.437 809.75 331.208 775.1 347.015 747.102L427.926 603.784Z" fill="white"/>
</svg>
