<svg width="650" height="59" viewBox="0 0 650 59" fill="none" xmlns="http://www.w3.org/2000/svg">
<g filter="url(#filter0_d_30_2)">
<path d="M43.8 51C43.368 51 43.056 50.832 42.864 50.496L9.312 5.28V25.656C9.312 26.328 9.072 26.904 8.592 27.384C8.112 27.864 7.536 28.104 6.864 28.104H4.488V0.599997H10.32C10.656 0.599997 10.992 0.767997 11.328 1.104L44.88 46.392V3.048C44.88 2.376 45.12 1.8 45.6 1.32C46.08 0.839996 46.656 0.599997 47.328 0.599997H49.704V51H43.8ZM79.1396 0.599997H126.012V2.76C126.012 3.432 125.772 4.008 125.292 4.488C124.86 4.92 124.308 5.136 123.636 5.136H79.9316C79.4036 5.136 79.1396 4.896 79.1396 4.416V0.599997ZM121.404 25.656C121.404 26.328 121.164 26.904 120.684 27.384C120.252 27.864 119.7 28.104 119.028 28.104H79.1396V24.216C79.1396 23.784 79.3796 23.568 79.8596 23.568H121.404V25.656ZM79.1396 51V47.112C79.1396 46.68 79.3556 46.464 79.7876 46.464H124.356C125.028 46.464 125.58 46.704 126.012 47.184C126.492 47.616 126.732 48.168 126.732 48.84V51H79.1396ZM218.838 51C218.31 51 217.83 50.904 217.398 50.712C216.966 50.472 216.63 50.16 216.39 49.776L190.182 3.912L163.902 49.776C163.662 50.16 163.326 50.472 162.894 50.712C162.462 50.904 161.982 51 161.454 51H158.79L158.862 0.887997H160.374C161.19 0.887997 161.91 1.128 162.534 1.608C163.158 2.088 163.47 2.664 163.47 3.336V41.424L186.294 2.4C186.63 1.872 187.086 1.44 187.662 1.104C188.286 0.767997 188.982 0.599997 189.75 0.599997H190.542C191.31 0.599997 192.006 0.767997 192.63 1.104C193.254 1.44 193.71 1.872 193.998 2.4L216.822 41.424V3.336C216.822 2.664 217.134 2.088 217.758 1.608C218.382 1.128 219.102 0.887997 219.918 0.887997H221.43L221.502 51H218.838ZM347.707 51C347.179 51 346.699 50.904 346.267 50.712C345.835 50.472 345.499 50.16 345.259 49.776L319.051 3.912L292.771 49.776C292.531 50.16 292.195 50.472 291.763 50.712C291.331 50.904 290.851 51 290.323 51H287.659L287.731 0.887997H289.243C290.059 0.887997 290.779 1.128 291.403 1.608C292.027 2.088 292.339 2.664 292.339 3.336V41.424L315.163 2.4C315.499 1.872 315.955 1.44 316.531 1.104C317.155 0.767997 317.851 0.599997 318.619 0.599997H319.411C320.179 0.599997 320.875 0.767997 321.499 1.104C322.123 1.44 322.579 1.872 322.867 2.4L345.691 41.424V3.336C345.691 2.664 346.003 2.088 346.627 1.608C347.251 1.128 347.971 0.887997 348.787 0.887997H350.299L350.371 51H347.707ZM432.384 25.8C432.384 29.256 431.712 32.52 430.368 35.592C429.072 38.664 427.272 41.352 424.968 43.656C422.712 45.912 420.048 47.712 416.976 49.056C413.904 50.352 410.64 51 407.184 51C403.728 51 400.464 50.352 397.392 49.056C394.32 47.712 391.632 45.912 389.328 43.656C387.072 41.352 385.272 38.664 383.928 35.592C382.632 32.52 381.984 29.256 381.984 25.8C381.984 22.344 382.632 19.08 383.928 16.008C385.272 12.936 387.072 10.272 389.328 8.016C391.632 5.712 394.32 3.912 397.392 2.616C400.464 1.272 403.728 0.599997 407.184 0.599997C410.64 0.599997 413.904 1.272 416.976 2.616C420.048 3.912 422.712 5.712 424.968 8.016C427.272 10.272 429.072 12.936 430.368 16.008C431.712 19.08 432.384 22.344 432.384 25.8ZM386.52 25.8C386.52 28.632 387.048 31.32 388.104 33.864C389.208 36.36 390.696 38.544 392.568 40.416C394.44 42.288 396.624 43.776 399.12 44.88C401.664 45.936 404.352 46.464 407.184 46.464C410.016 46.464 412.68 45.936 415.176 44.88C417.72 43.776 419.928 42.288 421.8 40.416C423.672 38.544 425.136 36.36 426.192 33.864C427.296 31.32 427.848 28.632 427.848 25.8C427.848 22.968 427.296 20.304 426.192 17.808C425.136 15.264 423.672 13.056 421.8 11.184C419.928 9.312 417.72 7.848 415.176 6.792C412.68 5.688 410.016 5.136 407.184 5.136C404.352 5.136 401.664 5.688 399.12 6.792C396.624 7.848 394.44 9.312 392.568 11.184C390.696 13.056 389.208 15.264 388.104 17.808C387.048 20.304 386.52 22.968 386.52 25.8ZM489.017 27.816C491.321 30.648 493.265 33.048 494.849 35.016C496.433 36.936 497.777 38.592 498.881 39.984C499.985 41.328 500.897 42.48 501.617 43.44C502.337 44.352 502.985 45.192 503.561 45.96C504.185 46.728 504.809 47.496 505.433 48.264C506.057 49.032 506.801 49.944 507.665 51H503.489C502.865 51 502.265 50.88 501.689 50.64C501.593 50.544 501.497 50.472 501.401 50.424C501.353 50.376 501.305 50.304 501.257 50.208C501.209 50.16 501.185 50.16 501.185 50.208C501.233 50.256 501.113 50.112 500.825 49.776C500.537 49.392 500.009 48.744 499.241 47.832C498.473 46.872 497.273 45.408 495.641 43.44C494.057 41.472 491.945 38.856 489.305 35.592C486.665 32.328 483.329 28.224 479.297 23.28H491.321C492.665 23.28 493.889 23.04 494.993 22.56C496.145 22.032 497.129 21.36 497.945 20.544C498.761 19.728 499.409 18.768 499.889 17.664C500.369 16.56 500.609 15.408 500.609 14.208C500.609 13.008 500.369 11.88 499.889 10.824C499.409 9.72 498.761 8.76 497.945 7.944C497.129 7.08 496.145 6.408 494.993 5.928C493.889 5.448 492.665 5.208 491.321 5.208C491.273 5.208 490.169 5.184 488.009 5.136H460.721C459.761 5.136 458.921 4.8 458.201 4.128C457.481 3.408 457.121 2.544 457.121 1.536V0.599997H490.961C492.929 0.551997 494.753 0.887997 496.433 1.608C498.161 2.28 499.649 3.24 500.897 4.488C502.193 5.688 503.225 7.128 503.993 8.808C504.761 10.488 505.145 12.288 505.145 14.208C505.145 16.128 504.761 17.928 503.993 19.608C503.225 21.288 502.193 22.752 500.897 24C499.649 25.2 498.161 26.16 496.433 26.88C494.753 27.552 492.929 27.864 490.961 27.816H489.017ZM538.572 0.599997C539.244 0.599997 539.82 0.839996 540.3 1.32C540.78 1.8 541.02 2.376 541.02 3.048V25.8C541.02 28.68 541.548 31.392 542.604 33.936C543.66 36.432 545.1 38.616 546.924 40.488C548.748 42.36 550.884 43.824 553.332 44.88C555.828 45.936 558.516 46.464 561.396 46.464H571.836C572.508 46.464 573.06 46.704 573.492 47.184C573.972 47.616 574.212 48.168 574.212 48.84V51C570.42 51 567.588 51 565.716 51C563.892 51 562.596 51 561.828 51C561.06 51 560.628 51 560.532 51C560.436 50.952 560.22 50.928 559.884 50.928C556.572 50.736 553.476 49.944 550.596 48.552C547.716 47.16 545.196 45.336 543.036 43.08C540.924 40.824 539.244 38.208 537.996 35.232C536.796 32.256 536.196 29.112 536.196 25.8V0.599997H538.572ZM619.598 51H597.062V48.84C597.062 48.168 597.278 47.616 597.71 47.184C598.19 46.704 598.766 46.464 599.438 46.464H619.958C622.79 46.464 625.454 45.936 627.95 44.88C630.446 43.776 632.63 42.288 634.502 40.416C636.374 38.544 637.838 36.36 638.894 33.864C639.998 31.32 640.55 28.632 640.55 25.8C640.55 22.92 639.998 20.232 638.894 17.736C637.838 15.24 636.374 13.056 634.502 11.184C632.63 9.312 630.446 7.848 627.95 6.792C625.454 5.736 622.79 5.208 619.958 5.208H599.438C598.766 5.208 598.19 4.968 597.71 4.488C597.278 4.008 597.062 3.432 597.062 2.76V0.599997H619.598C623.15 0.551997 626.462 1.2 629.534 2.544C632.654 3.84 635.366 5.64 637.67 7.944C639.974 10.248 641.774 12.936 643.07 16.008C644.414 19.08 645.086 22.344 645.086 25.8C645.086 29.208 644.438 32.448 643.142 35.52C641.846 38.544 640.046 41.208 637.742 43.512C635.486 45.816 632.798 47.64 629.678 48.984C626.606 50.328 623.246 51 619.598 51Z" fill="#13FFD5" fill-opacity="0.9" shape-rendering="crispEdges"/>
</g>
<defs>
<filter id="filter0_d_30_2" x="0.488007" y="0.528" width="648.598" height="58.472" filterUnits="userSpaceOnUse" color-interpolation-filters="sRGB">
<feFlood flood-opacity="0" result="BackgroundImageFix"/>
<feColorMatrix in="SourceAlpha" type="matrix" values="0 0 0 0 0 0 0 0 0 0 0 0 0 0 0 0 0 0 127 0" result="hardAlpha"/>
<feOffset dy="4"/>
<feGaussianBlur stdDeviation="2"/>
<feComposite in2="hardAlpha" operator="out"/>
<feColorMatrix type="matrix" values="0 0 0 0 1 0 0 0 0 0.075 0 0 0 0 0.075 0 0 0 1 0"/>
<feBlend mode="normal" in2="BackgroundImageFix" result="effect1_dropShadow_30_2"/>
<feBlend mode="normal" in="SourceGraphic" in2="effect1_dropShadow_30_2" result="shape"/>
</filter>
</defs>
</svg>
