<svg width="151" height="29" viewBox="0 0 151 29" fill="none" xmlns="http://www.w3.org/2000/svg">
<g filter="url(#filter0_d_34_3)">
<path d="M13.6 4.264H15.328V25H13.6V20.176L6.688 13.264V25H4.96V4.264H6.688V10.816L13.6 17.728V4.264ZM32.4093 5.992H23.7692V14.632H30.6812V16.36H23.7692V23.272H32.4093V25H22.0412V4.264H32.4093V5.992ZM46.0345 25C45.4425 25 44.8665 24.848 44.3065 24.544C43.7465 24.848 43.1705 25 42.5785 25C42.0985 25 41.6425 24.912 41.2105 24.736C40.7945 24.56 40.4265 24.32 40.1065 24.016C39.8025 23.696 39.5625 23.328 39.3865 22.912C39.2105 22.48 39.1225 22.024 39.1225 21.544V4.264H40.8505V21.544C40.8505 22.008 41.0185 22.416 41.3545 22.768C41.7065 23.104 42.1145 23.272 42.5785 23.272C42.8985 23.272 43.1865 23.192 43.4425 23.032V12.904H45.1705V23.032C45.4265 23.192 45.7145 23.272 46.0345 23.272C46.4985 23.272 46.8985 23.104 47.2345 22.768C47.5865 22.416 47.7625 22.008 47.7625 21.544V4.264H49.4905V21.544C49.4905 22.024 49.3945 22.48 49.2025 22.912C49.0265 23.328 48.7785 23.696 48.4585 24.016C48.1545 24.32 47.7945 24.56 47.3785 24.736C46.9625 24.912 46.5145 25 46.0345 25ZM75.1111 25C74.5191 25 73.9431 24.848 73.3831 24.544C72.8231 24.848 72.2471 25 71.6551 25C71.1751 25 70.7191 24.912 70.2871 24.736C69.8711 24.56 69.5031 24.32 69.1831 24.016C68.8791 23.696 68.6391 23.328 68.4631 22.912C68.2871 22.48 68.1991 22.024 68.1991 21.544V4.264H69.9271V21.544C69.9271 22.008 70.0951 22.416 70.4311 22.768C70.7831 23.104 71.1911 23.272 71.6551 23.272C71.9751 23.272 72.2631 23.192 72.5191 23.032V12.904H74.2471V23.032C74.5031 23.192 74.7911 23.272 75.1111 23.272C75.5751 23.272 75.9751 23.104 76.3111 22.768C76.6631 22.416 76.8391 22.008 76.8391 21.544V4.264H78.5671V21.544C78.5671 22.024 78.4711 22.48 78.2791 22.912C78.1031 23.328 77.8551 23.696 77.5351 24.016C77.2311 24.32 76.8711 24.56 76.4551 24.736C76.0391 24.912 75.5911 25 75.1111 25ZM92.1923 4.264C92.6723 4.264 93.1203 4.36 93.5363 4.552C93.9523 4.728 94.3123 4.976 94.6163 5.296C94.9363 5.6 95.1843 5.96 95.3603 6.376C95.5523 6.792 95.6483 7.24 95.6483 7.72V21.544C95.6483 22.024 95.5523 22.48 95.3603 22.912C95.1843 23.328 94.9363 23.696 94.6163 24.016C94.3123 24.32 93.9523 24.56 93.5363 24.736C93.1203 24.912 92.6723 25 92.1923 25H88.7363C88.2563 25 87.8003 24.912 87.3683 24.736C86.9523 24.56 86.5843 24.32 86.2643 24.016C85.9603 23.696 85.7203 23.328 85.5443 22.912C85.3683 22.48 85.2803 22.024 85.2803 21.544V7.72C85.2803 7.24 85.3683 6.792 85.5443 6.376C85.7203 5.96 85.9603 5.6 86.2643 5.296C86.5843 4.976 86.9523 4.728 87.3683 4.552C87.8003 4.36 88.2563 4.264 88.7363 4.264H92.1923ZM93.9203 7.72C93.9203 7.256 93.7443 6.856 93.3923 6.52C93.0563 6.168 92.6563 5.992 92.1923 5.992H88.7363C88.2723 5.992 87.8643 6.168 87.5123 6.52C87.1763 6.856 87.0083 7.256 87.0083 7.72V21.544C87.0083 22.008 87.1763 22.416 87.5123 22.768C87.8643 23.104 88.2723 23.272 88.7363 23.272H92.1923C92.6563 23.272 93.0563 23.104 93.3923 22.768C93.7443 22.416 93.9203 22.008 93.9203 21.544V7.72ZM112.73 12.904C112.73 13.4 112.626 13.88 112.418 14.344C112.21 14.792 111.922 15.176 111.554 15.496C111.922 15.816 112.21 16.208 112.418 16.672C112.626 17.12 112.73 17.592 112.73 18.088V25H111.002V18.088C111.002 17.624 110.826 17.224 110.474 16.888C110.138 16.536 109.738 16.36 109.274 16.36H104.09V25H102.362V4.264H109.274C109.754 4.264 110.202 4.36 110.618 4.552C111.034 4.728 111.394 4.976 111.698 5.296C112.018 5.6 112.266 5.96 112.442 6.376C112.634 6.792 112.73 7.24 112.73 7.72V12.904ZM109.274 14.632C109.738 14.632 110.138 14.464 110.474 14.128C110.826 13.776 111.002 13.368 111.002 12.904V7.72C111.002 7.256 110.826 6.856 110.474 6.52C110.138 6.168 109.738 5.992 109.274 5.992H104.09V14.632H109.274ZM121.171 23.272H129.811V25H119.443V4.264H121.171V23.272ZM143.436 4.264C143.916 4.264 144.364 4.36 144.78 4.552C145.196 4.728 145.556 4.976 145.86 5.296C146.18 5.6 146.428 5.96 146.604 6.376C146.796 6.792 146.892 7.24 146.892 7.72V21.544C146.892 22.024 146.796 22.472 146.604 22.888C146.428 23.304 146.18 23.672 145.86 23.992C145.556 24.296 145.196 24.544 144.78 24.736C144.364 24.912 143.916 25 143.436 25H136.524V4.264H143.436ZM145.164 7.72C145.164 7.256 144.988 6.856 144.636 6.52C144.3 6.168 143.9 5.992 143.436 5.992H138.252V23.272H143.436C143.9 23.272 144.3 23.104 144.636 22.768C144.988 22.416 145.164 22.008 145.164 21.544V7.72Z" fill="#FDFFFF"/>
<path d="M13.6 4.264V3.864H13.2V4.264H13.6ZM15.328 4.264H15.728V3.864H15.328V4.264ZM15.328 25V25.4H15.728V25H15.328ZM13.6 25H13.2V25.4H13.6V25ZM13.6 20.176H14V20.0103L13.8828 19.8932L13.6 20.176ZM6.688 13.264L6.97084 12.9812L6.288 12.2983V13.264H6.688ZM6.688 25V25.4H7.088V25H6.688ZM4.96 25H4.56V25.4H4.96V25ZM4.96 4.264V3.864H4.56V4.264H4.96ZM6.688 4.264H7.088V3.864H6.688V4.264ZM6.688 10.816H6.288V10.9817L6.40516 11.0988L6.688 10.816ZM13.6 17.728L13.3172 18.0108L14 18.6937V17.728H13.6ZM13.6 4.664H15.328V3.864H13.6V4.664ZM14.928 4.264V25H15.728V4.264H14.928ZM15.328 24.6H13.6V25.4H15.328V24.6ZM14 25V20.176H13.2V25H14ZM13.8828 19.8932L6.97084 12.9812L6.40516 13.5468L13.3172 20.4588L13.8828 19.8932ZM6.288 13.264V25H7.088V13.264H6.288ZM6.688 24.6H4.96V25.4H6.688V24.6ZM5.36 25V4.264H4.56V25H5.36ZM4.96 4.664H6.688V3.864H4.96V4.664ZM6.288 4.264V10.816H7.088V4.264H6.288ZM6.40516 11.0988L13.3172 18.0108L13.8828 17.4452L6.97084 10.5332L6.40516 11.0988ZM14 17.728V4.264H13.2V17.728H14ZM32.4093 5.992V6.392H32.8093V5.992H32.4093ZM23.7692 5.992V5.592H23.3692V5.992H23.7692ZM23.7692 14.632H23.3692V15.032H23.7692V14.632ZM30.6812 14.632H31.0812V14.232H30.6812V14.632ZM30.6812 16.36V16.76H31.0812V16.36H30.6812ZM23.7692 16.36V15.96H23.3692V16.36H23.7692ZM23.7692 23.272H23.3692V23.672H23.7692V23.272ZM32.4093 23.272H32.8093V22.872H32.4093V23.272ZM32.4093 25V25.4H32.8093V25H32.4093ZM22.0412 25H21.6412V25.4H22.0412V25ZM22.0412 4.264V3.864H21.6412V4.264H22.0412ZM32.4093 4.264H32.8093V3.864H32.4093V4.264ZM32.4093 5.592H23.7692V6.392H32.4093V5.592ZM23.3692 5.992V14.632H24.1692V5.992H23.3692ZM23.7692 15.032H30.6812V14.232H23.7692V15.032ZM30.2812 14.632V16.36H31.0812V14.632H30.2812ZM30.6812 15.96H23.7692V16.76H30.6812V15.96ZM23.3692 16.36V23.272H24.1692V16.36H23.3692ZM23.7692 23.672H32.4093V22.872H23.7692V23.672ZM32.0093 23.272V25H32.8093V23.272H32.0093ZM32.4093 24.6H22.0412V25.4H32.4093V24.6ZM22.4412 25V4.264H21.6412V25H22.4412ZM22.0412 4.664H32.4093V3.864H22.0412V4.664ZM32.0093 4.264V5.992H32.8093V4.264H32.0093ZM44.3065 24.544L44.4973 24.1925L44.3065 24.0889L44.1157 24.1925L44.3065 24.544ZM41.2105 24.736L41.0546 25.1044L41.0596 25.1064L41.2105 24.736ZM40.1065 24.016L39.8165 24.2915L39.8236 24.2989L39.831 24.306L40.1065 24.016ZM39.3865 22.912L39.016 23.0629L39.0181 23.0679L39.3865 22.912ZM39.1225 4.264V3.864H38.7225V4.264H39.1225ZM40.8505 4.264H41.2505V3.864H40.8505V4.264ZM41.3545 22.768L41.0652 23.0442L41.0716 23.0509L41.0783 23.0573L41.3545 22.768ZM43.4425 23.032L43.6545 23.3712L43.8425 23.2537V23.032H43.4425ZM43.4425 12.904V12.504H43.0425V12.904H43.4425ZM45.1705 12.904H45.5705V12.504H45.1705V12.904ZM45.1705 23.032H44.7705V23.2537L44.9585 23.3712L45.1705 23.032ZM47.2345 22.768L47.5173 23.0508L47.5173 23.0508L47.2345 22.768ZM47.7625 4.264V3.864H47.3625V4.264H47.7625ZM49.4905 4.264H49.8905V3.864H49.4905V4.264ZM49.2025 22.912L48.8369 22.7495L48.8341 22.7561L49.2025 22.912ZM48.4585 24.016L48.1757 23.7332L48.1757 23.7332L48.4585 24.016ZM47.3785 24.736L47.2226 24.3676L47.2226 24.3676L47.3785 24.736ZM46.0345 24.6C45.5142 24.6 45.0034 24.4672 44.4973 24.1925L44.1157 24.8955C44.7296 25.2288 45.3708 25.4 46.0345 25.4V24.6ZM44.1157 24.1925C43.6096 24.4672 43.0988 24.6 42.5785 24.6V25.4C43.2422 25.4 43.8834 25.2288 44.4973 24.8955L44.1157 24.1925ZM42.5785 24.6C42.1487 24.6 41.7441 24.5215 41.3614 24.3656L41.0596 25.1064C41.5409 25.3025 42.0483 25.4 42.5785 25.4V24.6ZM41.3664 24.3676C40.9936 24.2099 40.6663 23.9961 40.382 23.726L39.831 24.306C40.1867 24.6439 40.5954 24.9101 41.0546 25.1044L41.3664 24.3676ZM40.3965 23.7405C40.1264 23.4562 39.9126 23.1289 39.7549 22.7561L39.0181 23.0679C39.2124 23.5271 39.4786 23.9358 39.8165 24.2915L40.3965 23.7405ZM39.7569 22.7611C39.601 22.3784 39.5225 21.9738 39.5225 21.544H38.7225C38.7225 22.0742 38.82 22.5816 39.0161 23.0629L39.7569 22.7611ZM39.5225 21.544V4.264H38.7225V21.544H39.5225ZM39.1225 4.664H40.8505V3.864H39.1225V4.664ZM40.4505 4.264V21.544H41.2505V4.264H40.4505ZM40.4505 21.544C40.4505 22.1163 40.662 22.6218 41.0652 23.0442L41.6438 22.4918C41.375 22.2102 41.2505 21.8997 41.2505 21.544H40.4505ZM41.0783 23.0573C41.5007 23.4605 42.0062 23.672 42.5785 23.672V22.872C42.2228 22.872 41.9123 22.7475 41.6307 22.4787L41.0783 23.0573ZM42.5785 23.672C42.9688 23.672 43.3311 23.5734 43.6545 23.3712L43.2305 22.6928C43.0419 22.8106 42.8282 22.872 42.5785 22.872V23.672ZM43.8425 23.032V12.904H43.0425V23.032H43.8425ZM43.4425 13.304H45.1705V12.504H43.4425V13.304ZM44.7705 12.904V23.032H45.5705V12.904H44.7705ZM44.9585 23.3712C45.2819 23.5734 45.6442 23.672 46.0345 23.672V22.872C45.7848 22.872 45.5711 22.8106 45.3825 22.6928L44.9585 23.3712ZM46.0345 23.672C46.6074 23.672 47.1084 23.4598 47.5173 23.0508L46.9517 22.4852C46.6886 22.7482 46.3896 22.872 46.0345 22.872V23.672ZM47.5173 23.0508C47.9383 22.6299 48.1625 22.1223 48.1625 21.544H47.3625C47.3625 21.8937 47.2347 22.2021 46.9517 22.4852L47.5173 23.0508ZM48.1625 21.544V4.264H47.3625V21.544H48.1625ZM47.7625 4.664H49.4905V3.864H47.7625V4.664ZM49.0905 4.264V21.544H49.8905V4.264H49.0905ZM49.0905 21.544C49.0905 21.9689 49.0059 22.3695 48.837 22.7495L49.568 23.0745C49.7831 22.5905 49.8905 22.0791 49.8905 21.544H49.0905ZM48.8341 22.7561C48.6782 23.1246 48.4593 23.4495 48.1757 23.7332L48.7413 24.2988C49.0977 23.9425 49.3748 23.5314 49.5709 23.0679L48.8341 22.7561ZM48.1757 23.7332C47.9099 23.9989 47.5936 24.2107 47.2226 24.3676L47.5344 25.1044C47.9954 24.9093 48.3991 24.6411 48.7413 24.2988L48.1757 23.7332ZM47.2226 24.3676C46.859 24.5215 46.4644 24.6 46.0345 24.6V25.4C46.5646 25.4 47.066 25.3025 47.5344 25.1044L47.2226 24.3676ZM73.3831 24.544L73.5739 24.1925L73.3831 24.0889L73.1922 24.1925L73.3831 24.544ZM70.2871 24.736L70.1312 25.1044L70.1361 25.1064L70.2871 24.736ZM69.1831 24.016L68.8931 24.2915L68.9001 24.2989L68.9076 24.306L69.1831 24.016ZM68.4631 22.912L68.0926 23.0629L68.0947 23.0679L68.4631 22.912ZM68.1991 4.264V3.864H67.7991V4.264H68.1991ZM69.9271 4.264H70.3271V3.864H69.9271V4.264ZM70.4311 22.768L70.1417 23.0442L70.1481 23.0509L70.1549 23.0573L70.4311 22.768ZM72.5191 23.032L72.7311 23.3712L72.9191 23.2537V23.032H72.5191ZM72.5191 12.904V12.504H72.1191V12.904H72.5191ZM74.2471 12.904H74.6471V12.504H74.2471V12.904ZM74.2471 23.032H73.8471V23.2537L74.0351 23.3712L74.2471 23.032ZM76.3111 22.768L76.5939 23.0508L76.5939 23.0508L76.3111 22.768ZM76.8391 4.264V3.864H76.4391V4.264H76.8391ZM78.5671 4.264H78.9671V3.864H78.5671V4.264ZM78.2791 22.912L77.9135 22.7495L77.9107 22.7561L78.2791 22.912ZM77.5351 24.016L77.2522 23.7332L77.2522 23.7332L77.5351 24.016ZM76.4551 24.736L76.2992 24.3676L76.2992 24.3676L76.4551 24.736ZM75.1111 24.6C74.5908 24.6 74.0799 24.4672 73.5739 24.1925L73.1922 24.8955C73.8062 25.2288 74.4474 25.4 75.1111 25.4V24.6ZM73.1922 24.1925C72.6862 24.4672 72.1754 24.6 71.6551 24.6V25.4C72.3188 25.4 72.9599 25.2288 73.5739 24.8955L73.1922 24.1925ZM71.6551 24.6C71.2253 24.6 70.8207 24.5215 70.438 24.3656L70.1361 25.1064C70.6175 25.3025 71.1249 25.4 71.6551 25.4V24.6ZM70.4429 24.3676C70.0701 24.2099 69.7429 23.9961 69.4586 23.726L68.9076 24.306C69.2632 24.6439 69.672 24.9101 70.1312 25.1044L70.4429 24.3676ZM69.4731 23.7405C69.2029 23.4562 68.9892 23.1289 68.8315 22.7561L68.0947 23.0679C68.289 23.5271 68.5552 23.9358 68.8931 24.2915L69.4731 23.7405ZM68.8335 22.7611C68.6776 22.3784 68.5991 21.9738 68.5991 21.544H67.7991C67.7991 22.0742 67.8965 22.5816 68.0926 23.0629L68.8335 22.7611ZM68.5991 21.544V4.264H67.7991V21.544H68.5991ZM68.1991 4.664H69.9271V3.864H68.1991V4.664ZM69.5271 4.264V21.544H70.3271V4.264H69.5271ZM69.5271 21.544C69.5271 22.1163 69.7385 22.6218 70.1417 23.0442L70.7204 22.4918C70.4516 22.2102 70.3271 21.8997 70.3271 21.544H69.5271ZM70.1549 23.0573C70.5773 23.4605 71.0828 23.672 71.6551 23.672V22.872C71.2993 22.872 70.9889 22.7475 70.7073 22.4787L70.1549 23.0573ZM71.6551 23.672C72.0453 23.672 72.4076 23.5734 72.7311 23.3712L72.3071 22.6928C72.1185 22.8106 71.9048 22.872 71.6551 22.872V23.672ZM72.9191 23.032V12.904H72.1191V23.032H72.9191ZM72.5191 13.304H74.2471V12.504H72.5191V13.304ZM73.8471 12.904V23.032H74.6471V12.904H73.8471ZM74.0351 23.3712C74.3585 23.5734 74.7208 23.672 75.1111 23.672V22.872C74.8613 22.872 74.6476 22.8106 74.4591 22.6928L74.0351 23.3712ZM75.1111 23.672C75.684 23.672 76.1849 23.4598 76.5939 23.0508L76.0282 22.4852C75.7652 22.7482 75.4661 22.872 75.1111 22.872V23.672ZM76.5939 23.0508C77.0149 22.6299 77.2391 22.1223 77.2391 21.544H76.4391C76.4391 21.8937 76.3113 22.2021 76.0282 22.4852L76.5939 23.0508ZM77.2391 21.544V4.264H76.4391V21.544H77.2391ZM76.8391 4.664H78.5671V3.864H76.8391V4.664ZM78.1671 4.264V21.544H78.9671V4.264H78.1671ZM78.1671 21.544C78.1671 21.9689 78.0825 22.3695 77.9135 22.7495L78.6446 23.0745C78.8597 22.5905 78.9671 22.0791 78.9671 21.544H78.1671ZM77.9107 22.7561C77.7548 23.1246 77.5359 23.4495 77.2522 23.7332L77.8179 24.2988C78.1743 23.9425 78.4513 23.5314 78.6475 23.0679L77.9107 22.7561ZM77.2522 23.7332C76.9865 23.9989 76.6702 24.2107 76.2992 24.3676L76.6109 25.1044C77.0719 24.9093 77.4757 24.6411 77.8179 24.2988L77.2522 23.7332ZM76.2992 24.3676C75.9356 24.5215 75.5409 24.6 75.1111 24.6V25.4C75.6412 25.4 76.1426 25.3025 76.6109 25.1044L76.2992 24.3676ZM93.5363 4.552L93.3686 4.91537L93.3805 4.92039L93.5363 4.552ZM94.6163 5.296L94.3263 5.5715L94.3334 5.57893L94.3408 5.586L94.6163 5.296ZM95.3603 6.376L94.9917 6.53194L94.9971 6.54362L95.3603 6.376ZM95.3603 22.912L94.9947 22.7495L94.9919 22.7561L95.3603 22.912ZM94.6163 24.016L94.3335 23.7332L94.3335 23.7332L94.6163 24.016ZM93.5363 24.736L93.3805 24.3676L93.3805 24.3676L93.5363 24.736ZM87.3683 24.736L87.2124 25.1044L87.2174 25.1064L87.3683 24.736ZM86.2643 24.016L85.9743 24.2915L85.9814 24.2989L85.9888 24.306L86.2643 24.016ZM85.5443 22.912L85.1738 23.0629L85.1759 23.0679L85.5443 22.912ZM85.5443 6.376L85.9127 6.53186L85.9127 6.53186L85.5443 6.376ZM86.2643 5.296L85.9815 5.01316L85.9815 5.01316L86.2643 5.296ZM87.3683 4.552L87.5242 4.92044L87.5308 4.91752L87.3683 4.552ZM93.3923 6.52L93.103 6.79619L93.1094 6.80292L93.1161 6.80934L93.3923 6.52ZM87.5123 6.52L87.2295 6.23716L87.2295 6.23716L87.5123 6.52ZM87.5123 22.768L87.223 23.0442L87.2294 23.0509L87.2361 23.0573L87.5123 22.768ZM93.3923 22.768L93.6752 23.0508L93.6752 23.0508L93.3923 22.768ZM92.1923 4.664C92.6173 4.664 93.0077 4.74859 93.3687 4.91518L93.7039 4.18881C93.2329 3.9714 92.7274 3.864 92.1923 3.864V4.664ZM93.3805 4.92039C93.747 5.07548 94.0611 5.29229 94.3263 5.5715L94.9063 5.0205C94.5636 4.6597 94.1576 4.38052 93.6922 4.18361L93.3805 4.92039ZM94.3408 5.586C94.62 5.85124 94.8368 6.16526 94.9919 6.53186L95.7287 6.22014C95.5318 5.75474 95.2526 5.34875 94.8918 5.006L94.3408 5.586ZM94.9971 6.54362C95.1637 6.90457 95.2483 7.29506 95.2483 7.72H96.0483C96.0483 7.18494 95.9409 6.67943 95.7235 6.20838L94.9971 6.54362ZM95.2483 7.72V21.544H96.0483V7.72H95.2483ZM95.2483 21.544C95.2483 21.9689 95.1637 22.3695 94.9948 22.7495L95.7258 23.0745C95.9409 22.5905 96.0483 22.0791 96.0483 21.544H95.2483ZM94.9919 22.7561C94.836 23.1246 94.6171 23.4495 94.3335 23.7332L94.8992 24.2988C95.2555 23.9425 95.5326 23.5314 95.7287 23.0679L94.9919 22.7561ZM94.3335 23.7332C94.0677 23.9989 93.7515 24.2107 93.3805 24.3676L93.6922 25.1044C94.1532 24.9093 94.5569 24.6411 94.8992 24.2988L94.3335 23.7332ZM93.3805 24.3676C93.0168 24.5215 92.6222 24.6 92.1923 24.6V25.4C92.7225 25.4 93.2238 25.3025 93.6922 25.1044L93.3805 24.3676ZM92.1923 24.6H88.7363V25.4H92.1923V24.6ZM88.7363 24.6C88.3065 24.6 87.9019 24.5215 87.5192 24.3656L87.2174 25.1064C87.6987 25.3025 88.2061 25.4 88.7363 25.4V24.6ZM87.5242 24.3676C87.1514 24.2099 86.8241 23.9961 86.5398 23.726L85.9888 24.306C86.3445 24.6439 86.7532 24.9101 87.2125 25.1044L87.5242 24.3676ZM86.5543 23.7405C86.2842 23.4562 86.0704 23.1289 85.9127 22.7561L85.1759 23.0679C85.3702 23.5271 85.6364 23.9358 85.9743 24.2915L86.5543 23.7405ZM85.9147 22.7611C85.7588 22.3784 85.6803 21.9738 85.6803 21.544H84.8803C84.8803 22.0742 84.9778 22.5816 85.1739 23.0629L85.9147 22.7611ZM85.6803 21.544V7.72H84.8803V21.544H85.6803ZM85.6803 7.72C85.6803 7.29014 85.7588 6.8955 85.9127 6.53186L85.1759 6.22014C84.9778 6.6885 84.8803 7.18986 84.8803 7.72H85.6803ZM85.9127 6.53186C86.0697 6.16086 86.2814 5.84459 86.5472 5.57884L85.9815 5.01316C85.6392 5.35541 85.371 5.75914 85.1759 6.22014L85.9127 6.53186ZM86.5472 5.57884C86.8308 5.2952 87.1557 5.07628 87.5242 4.92039L87.2125 4.18361C86.7489 4.37972 86.3378 4.6568 85.9815 5.01316L86.5472 5.57884ZM87.5308 4.91752C87.9108 4.74861 88.3114 4.664 88.7363 4.664V3.864C88.2012 3.864 87.6898 3.97139 87.2059 4.18647L87.5308 4.91752ZM88.7363 4.664H92.1923V3.864H88.7363V4.664ZM94.3203 7.72C94.3203 7.14085 94.0953 6.63801 93.6685 6.23066L93.1161 6.80934C93.3934 7.07399 93.5203 7.37115 93.5203 7.72H94.3203ZM93.6817 6.24381C93.2743 5.81706 92.7715 5.592 92.1923 5.592V6.392C92.5412 6.392 92.8383 6.51894 93.103 6.79619L93.6817 6.24381ZM92.1923 5.592H88.7363V6.392H92.1923V5.592ZM88.7363 5.592C88.158 5.592 87.6504 5.81619 87.2295 6.23716L87.7952 6.80284C88.0782 6.51981 88.3867 6.392 88.7363 6.392V5.592ZM87.2295 6.23716C86.8205 6.64615 86.6083 7.14708 86.6083 7.72H87.4083C87.4083 7.36491 87.5321 7.06585 87.7952 6.80284L87.2295 6.23716ZM86.6083 7.72V21.544H87.4083V7.72H86.6083ZM86.6083 21.544C86.6083 22.1163 86.8198 22.6218 87.223 23.0442L87.8017 22.4918C87.5329 22.2102 87.4083 21.8997 87.4083 21.544H86.6083ZM87.2361 23.0573C87.6585 23.4605 88.164 23.672 88.7363 23.672V22.872C88.3806 22.872 88.0701 22.7475 87.7885 22.4787L87.2361 23.0573ZM88.7363 23.672H92.1923V22.872H88.7363V23.672ZM92.1923 23.672C92.7652 23.672 93.2662 23.4598 93.6752 23.0508L93.1095 22.4852C92.8465 22.7482 92.5474 22.872 92.1923 22.872V23.672ZM93.6752 23.0508C94.0961 22.6299 94.3203 22.1223 94.3203 21.544H93.5203C93.5203 21.8937 93.3925 22.2021 93.1095 22.4852L93.6752 23.0508ZM94.3203 21.544V7.72H93.5203V21.544H94.3203ZM112.418 14.344L112.78 14.5125L112.783 14.5076L112.418 14.344ZM111.554 15.496L111.291 15.1942L110.944 15.496L111.291 15.7978L111.554 15.496ZM112.418 16.672L112.053 16.8356L112.055 16.8404L112.418 16.672ZM112.73 25V25.4H113.13V25H112.73ZM111.002 25H110.602V25.4H111.002V25ZM110.474 16.888L110.184 17.1642L110.191 17.1709L110.197 17.1773L110.474 16.888ZM104.09 16.36V15.96H103.69V16.36H104.09ZM104.09 25V25.4H104.49V25H104.09ZM102.362 25H101.962V25.4H102.362V25ZM102.362 4.264V3.864H101.962V4.264H102.362ZM110.618 4.552L110.45 4.91537L110.462 4.92039L110.618 4.552ZM111.698 5.296L111.408 5.5715L111.415 5.57893L111.422 5.586L111.698 5.296ZM112.442 6.376L112.073 6.53194L112.078 6.54362L112.442 6.376ZM110.474 14.128L110.756 14.4108L110.756 14.4108L110.474 14.128ZM110.474 6.52L110.184 6.79619L110.191 6.80292L110.197 6.80934L110.474 6.52ZM104.09 5.992V5.592H103.69V5.992H104.09ZM104.09 14.632H103.69V15.032H104.09V14.632ZM112.33 12.904C112.33 13.3422 112.238 13.7665 112.053 14.1804L112.783 14.5076C113.013 13.9935 113.13 13.4578 113.13 12.904H112.33ZM112.055 14.1756C111.87 14.5732 111.616 14.9116 111.291 15.1942L111.816 15.7978C112.227 15.4404 112.549 15.0108 112.78 14.5124L112.055 14.1756ZM111.291 15.7978C111.613 16.0781 111.867 16.4223 112.053 16.8356L112.783 16.5084C112.552 15.9937 112.23 15.5539 111.816 15.1942L111.291 15.7978ZM112.055 16.8404C112.238 17.2354 112.33 17.6499 112.33 18.088H113.13C113.13 17.5341 113.013 17.0046 112.78 16.5036L112.055 16.8404ZM112.33 18.088V25H113.13V18.088H112.33ZM112.73 24.6H111.002V25.4H112.73V24.6ZM111.402 25V18.088H110.602V25H111.402ZM111.402 18.088C111.402 17.5089 111.177 17.006 110.75 16.5987L110.197 17.1773C110.475 17.442 110.602 17.7391 110.602 18.088H111.402ZM110.763 16.6118C110.356 16.1851 109.853 15.96 109.274 15.96V16.76C109.622 16.76 109.92 16.8869 110.184 17.1642L110.763 16.6118ZM109.274 15.96H104.09V16.76H109.274V15.96ZM103.69 16.36V25H104.49V16.36H103.69ZM104.09 24.6H102.362V25.4H104.09V24.6ZM102.762 25V4.264H101.962V25H102.762ZM102.362 4.664H109.274V3.864H102.362V4.664ZM109.274 4.664C109.699 4.664 110.089 4.74859 110.45 4.91518L110.785 4.18881C110.314 3.9714 109.809 3.864 109.274 3.864V4.664ZM110.462 4.92039C110.828 5.07548 111.142 5.29229 111.408 5.5715L111.988 5.0205C111.645 4.6597 111.239 4.38052 110.773 4.18361L110.462 4.92039ZM111.422 5.586C111.701 5.85124 111.918 6.16526 112.073 6.53186L112.81 6.22014C112.613 5.75474 112.334 5.34875 111.973 5.006L111.422 5.586ZM112.078 6.54362C112.245 6.90457 112.33 7.29506 112.33 7.72H113.13C113.13 7.18494 113.022 6.67943 112.805 6.20838L112.078 6.54362ZM112.33 7.72V12.904H113.13V7.72H112.33ZM109.274 15.032C109.846 15.032 110.347 14.8198 110.756 14.4108L110.191 13.8452C109.928 14.1082 109.629 14.232 109.274 14.232V15.032ZM110.756 14.4108C111.177 13.9899 111.402 13.4823 111.402 12.904H110.602C110.602 13.2537 110.474 13.5621 110.191 13.8452L110.756 14.4108ZM111.402 12.904V7.72H110.602V12.904H111.402ZM111.402 7.72C111.402 7.14085 111.177 6.63801 110.75 6.23066L110.197 6.80934C110.475 7.07399 110.602 7.37115 110.602 7.72H111.402ZM110.763 6.24381C110.356 5.81706 109.853 5.592 109.274 5.592V6.392C109.622 6.392 109.92 6.51894 110.184 6.79619L110.763 6.24381ZM109.274 5.592H104.09V6.392H109.274V5.592ZM103.69 5.992V14.632H104.49V5.992H103.69ZM104.09 15.032H109.274V14.232H104.09V15.032ZM121.171 23.272H120.771V23.672H121.171V23.272ZM129.811 23.272H130.211V22.872H129.811V23.272ZM129.811 25V25.4H130.211V25H129.811ZM119.443 25H119.043V25.4H119.443V25ZM119.443 4.264V3.864H119.043V4.264H119.443ZM121.171 4.264H121.571V3.864H121.171V4.264ZM121.171 23.672H129.811V22.872H121.171V23.672ZM129.411 23.272V25H130.211V23.272H129.411ZM129.811 24.6H119.443V25.4H129.811V24.6ZM119.843 25V4.264H119.043V25H119.843ZM119.443 4.664H121.171V3.864H119.443V4.664ZM120.771 4.264V23.272H121.571V4.264H120.771ZM144.78 4.552L144.612 4.91537L144.624 4.92039L144.78 4.552ZM145.86 5.296L145.57 5.5715L145.577 5.57893L145.585 5.586L145.86 5.296ZM146.604 6.376L146.235 6.53194L146.241 6.54362L146.604 6.376ZM146.604 22.888L146.241 22.7203L146.236 22.7321L146.604 22.888ZM145.86 23.992L145.577 23.7092L145.577 23.7092L145.86 23.992ZM144.78 24.736L144.936 25.1046L144.948 25.0992L144.78 24.736ZM136.524 25H136.124V25.4H136.524V25ZM136.524 4.264V3.864H136.124V4.264H136.524ZM144.636 6.52L144.347 6.79619L144.353 6.80292L144.36 6.80934L144.636 6.52ZM138.252 5.992V5.592H137.852V5.992H138.252ZM138.252 23.272H137.852V23.672H138.252V23.272ZM144.636 22.768L144.919 23.0508L144.919 23.0508L144.636 22.768ZM143.436 4.664C143.861 4.664 144.251 4.74859 144.612 4.91518L144.948 4.18881C144.477 3.9714 143.971 3.864 143.436 3.864V4.664ZM144.624 4.92039C144.991 5.07548 145.305 5.29229 145.57 5.5715L146.15 5.0205C145.807 4.6597 145.401 4.38052 144.936 4.18361L144.624 4.92039ZM145.585 5.586C145.864 5.85124 146.081 6.16526 146.236 6.53186L146.972 6.22014C146.776 5.75474 146.496 5.34875 146.136 5.006L145.585 5.586ZM146.241 6.54362C146.407 6.90457 146.492 7.29506 146.492 7.72H147.292C147.292 7.18494 147.185 6.67943 146.967 6.20838L146.241 6.54362ZM146.492 7.72V21.544H147.292V7.72H146.492ZM146.492 21.544C146.492 21.9689 146.407 22.3594 146.241 22.7204L146.967 23.0556C147.185 22.5846 147.292 22.0791 147.292 21.544H146.492ZM146.236 22.7321C146.08 23.1006 145.861 23.4255 145.577 23.7092L146.143 24.2748C146.499 23.9185 146.776 23.5074 146.972 23.0439L146.236 22.7321ZM145.577 23.7092C145.309 23.9777 144.988 24.1993 144.612 24.3728L144.948 25.0992C145.404 24.8887 145.803 24.6143 146.143 24.2748L145.577 23.7092ZM144.624 24.3676C144.261 24.5215 143.866 24.6 143.436 24.6V25.4C143.966 25.4 144.468 25.3025 144.936 25.1044L144.624 24.3676ZM143.436 24.6H136.524V25.4H143.436V24.6ZM136.924 25V4.264H136.124V25H136.924ZM136.524 4.664H143.436V3.864H136.524V4.664ZM145.564 7.72C145.564 7.14085 145.339 6.63801 144.912 6.23066L144.36 6.80934C144.637 7.07399 144.764 7.37115 144.764 7.72H145.564ZM144.925 6.24381C144.518 5.81706 144.015 5.592 143.436 5.592V6.392C143.785 6.392 144.082 6.51894 144.347 6.79619L144.925 6.24381ZM143.436 5.592H138.252V6.392H143.436V5.592ZM137.852 5.992V23.272H138.652V5.992H137.852ZM138.252 23.672H143.436V22.872H138.252V23.672ZM143.436 23.672C144.009 23.672 144.51 23.4598 144.919 23.0508L144.353 22.4852C144.09 22.7482 143.791 22.872 143.436 22.872V23.672ZM144.919 23.0508C145.34 22.6299 145.564 22.1223 145.564 21.544H144.764C144.764 21.8937 144.636 22.2021 144.353 22.4852L144.919 23.0508ZM145.564 21.544V7.72H144.764V21.544H145.564Z" fill="#31A96B"/>
</g>
<defs>
<filter id="filter0_d_34_3" x="0.959991" y="0.263977" width="149.932" height="28.736" filterUnits="userSpaceOnUse" color-interpolation-filters="sRGB">
<feFlood flood-opacity="0" result="BackgroundImageFix"/>
<feColorMatrix in="SourceAlpha" type="matrix" values="0 0 0 0 0 0 0 0 0 0 0 0 0 0 0 0 0 0 127 0" result="hardAlpha"/>
<feOffset/>
<feGaussianBlur stdDeviation="2"/>
<feComposite in2="hardAlpha" operator="out"/>
<feColorMatrix type="matrix" values="0 0 0 0 0.192157 0 0 0 0 0.662745 0 0 0 0 0.419608 0 0 0 1 0"/>
<feBlend mode="normal" in2="BackgroundImageFix" result="effect1_dropShadow_34_3"/>
<feBlend mode="normal" in="SourceGraphic" in2="effect1_dropShadow_34_3" result="shape"/>
</filter>
</defs>
</svg>
