<svg width="930" height="955" viewBox="0 0 930 955" fill="none" xmlns="http://www.w3.org/2000/svg">
<path d="M464.5 501.087C600.086 501.087 710 388.914 710 250.543C710 112.172 600.086 0 464.5 0C328.914 0 219 112.172 219 250.543C219 388.914 328.914 501.087 464.5 501.087Z" fill="white"/>
<path d="M930 954.552C930 828.693 881.009 707.989 793.805 618.993C706.6 529.997 588.326 480 465 480C341.674 480 223.4 529.997 136.195 618.993C48.991 707.989 1.86217e-05 828.693 0 954.552H84.3742C84.3742 851.531 124.476 752.728 195.857 679.88C267.238 607.033 364.052 566.107 465 566.107C565.948 566.107 662.762 607.033 734.143 679.88C805.524 752.728 845.626 851.531 845.626 954.552H930Z" fill="white"/>
<path d="M428.399 646.791C444.472 617.736 485.475 617.736 501.547 646.791L582.458 793.053C598.265 821.626 578.036 856.988 545.884 856.988H384.062C351.91 856.988 331.681 821.626 347.488 793.053L428.399 646.791Z" fill="white"/>
</svg>
